<svg width="60" height="105" viewBox="0 0 60 105" fill="none" xmlns="http://www.w3.org/2000/svg">
<mask id="mask0" mask-type="alpha" maskUnits="userSpaceOnUse" x="0" y="0" width="60" height="105">
<path d="M0.251046 1.75837L2.00837 0L3.01255 1.50718L4.64435 4.14474L5.77406 5.02392L7.90795 5.77751L10.2929 6.6567L11.5481 7.41029L12.1757 8.03828L13.682 8.91746L14.9372 9.54545L15.1883 10.299L15.6904 11.1782V12.183L16.1925 13.0622L16.569 13.3134V12.9366V12.3086L16.9456 11.3038L18.2008 10.299L19.4561 9.54545L20.9623 8.54067L22.4686 8.28947L24.2259 8.03828L25.4812 7.78708L28.1172 7.28469H30.6276L31.2552 6.90789L32.5105 6.02871L35.3975 4.01914H35.7741V8.41507L35.3975 9.92225L34.0167 12.5598L32.5105 14.5694L29.6234 17.0813L26.7364 19.0909L22.2176 20.9749L20.9623 21.4773L19.7071 22.8589L19.3305 23.9892L18.5774 26.1244L18.4519 26.878L18.5774 27.8828V31.7763L18.7029 33.4091L19.3305 35.9211L19.5816 37.9306L20.0837 38.6842L20.4603 40.1914L21.3389 42.8289L22.3431 45.8433L24.2259 50.3648L25.6067 53.6304L26.7364 56.0167L27.8661 58.5287L29.1213 60.4127L30.251 62.0455L35.523 68.1998L42.1757 74.4797L47.5732 79.6292L51.841 83.7739L55.1046 87.6675L57.9916 91.561L60 94.9522V97.7153L59.4979 99.2225L57.6151 100.855L53.4728 102.614L49.8326 103.618L46.9456 103.995H39.5397L38.9121 103.493L37.1548 101.734L34.8954 99.2225L31.3808 96.2081L28.3682 94.073L27.4895 93.1938L27.113 92.6914L26.6109 92.9426L26.8619 93.3194L27.113 93.8218L27.6151 94.701L27.8661 95.2034L28.3682 96.0825L28.8703 96.9617L29.3724 97.7153L29.749 98.3433L30.5021 99.4737L31.2552 100.353L31.7573 101.106L32.2594 101.986L33.1381 103.116L33.6402 103.618L33.8912 104.121L34.0167 104.623V105H33.6402L33.1381 104.623L32.2594 103.995L31.2552 102.865L30.251 101.986L28.8703 100.102L26.1088 95.9569L23.0962 91.0586L21.0879 87.7931L19.0795 85.4067L17.9498 84.0251L17.5732 82.7691L16.569 81.89H14.5607L12.0502 81.6388L10.5439 80.7596L8.159 79.5036L6.27615 77.9964L4.76987 76.9916L3.38912 75.7356L2.76151 74.8565L2.25941 73.9773L2.00837 73.3493V72.4701L2.76151 72.0933L3.89121 71.8421H5.27197L6.5272 72.0933L6.90377 72.4701L7.53138 72.0933L7.78243 72.2189L8.41004 72.4701L8.66109 72.2189H9.53975L10.1674 72.4701L6.90377 66.3158L5.64854 62.4222L3.76569 56.0167L3.51464 54.2584L3.2636 52.5L3.01255 50.1136V41.9498V39.9402L3.2636 38.6842L5.14644 31.6507L6.5272 28.3852L6.90377 27.3804L7.15481 26.3756L7.90795 25.3708L8.03347 25.1196V24.366L8.53557 23.3612L8.78661 22.6077L9.03766 22.3565V21.6029L8.78661 21.3517L8.28452 20.4725L7.90795 19.8445L7.78243 19.3421L7.28033 18.8397L7.15481 18.0861L6.5272 16.8301L6.0251 16.3278V15.8254L5.64854 15.5742L4.76987 14.3182L0 9.41986L0.251046 1.75837Z" fill="black"/>
</mask>
<g mask="url(#mask0)">
<rect x="-16.6946" y="-8.66602" width="87.8661" height="125.598" fill="black"/>
</g>
</svg>
