<svg width="277" height="29" viewBox="0 0 277 29" fill="none" xmlns="http://www.w3.org/2000/svg">
<path d="M6.08 23.42C3.58 23.42 1.64 22.39 0.26 20.33V18.71C0.8 19.91 1.58 20.85 2.6 21.53C3.64 22.21 4.88 22.55 6.32 22.55C7.32 22.55 8.24 22.33 9.08 21.89C9.94 21.45 10.62 20.83 11.12 20.03C11.62 19.23 11.87 18.31 11.87 17.27C11.87 16.33 11.71 15.52 11.39 14.84C11.07 14.16 10.54 13.51 9.8 12.89C9.06 12.25 7.99 11.5 6.59 10.64L5.63 10.04C4.75 9.5 4.04 9.02 3.5 8.6C2.96 8.18 2.49 7.69 2.09 7.13C1.57 6.35 1.31 5.45 1.31 4.43C1.31 3.07 1.75 2.01 2.63 1.25C3.51 0.49 4.63 0.11 5.99 0.11C7.83 0.11 9.29 0.789999 10.37 2.15V3.68C9.91 2.84 9.28 2.18 8.48 1.7C7.68 1.22 6.8 0.979999 5.84 0.979999C4.84 0.979999 4 1.29 3.32 1.91C2.64 2.53 2.3 3.36 2.3 4.4C2.3 5.42 2.61 6.3 3.23 7.04C3.87 7.76 4.94 8.55 6.44 9.41C8.28 10.49 9.71 11.47 10.73 12.35C11.45 13.01 11.97 13.74 12.29 14.54C12.63 15.34 12.8 16.23 12.8 17.21C12.8 18.45 12.51 19.54 11.93 20.48C11.35 21.42 10.55 22.15 9.53 22.67C8.51 23.17 7.36 23.42 6.08 23.42ZM22.3686 23.48C21.0086 23.48 19.7786 23.15 18.6786 22.49C17.5786 21.81 16.7186 20.92 16.0986 19.82C15.4786 18.7 15.1686 17.49 15.1686 16.19C15.1686 14.91 15.4786 13.72 16.0986 12.62C16.7386 11.52 17.5986 10.65 18.6786 10.01C19.7786 9.35 20.9986 9.02 22.3386 9.02C23.6586 9.02 24.8586 9.35 25.9386 10.01C27.0386 10.65 27.8986 11.52 28.5186 12.62C29.1386 13.72 29.4486 14.91 29.4486 16.19C29.4486 17.53 29.1486 18.76 28.5486 19.88C27.9486 20.98 27.1086 21.86 26.0286 22.52C24.9686 23.16 23.7486 23.48 22.3686 23.48ZM22.3686 22.64C23.5086 22.64 24.5486 22.35 25.4886 21.77C26.4286 21.19 27.1586 20.42 27.6786 19.46C28.2186 18.48 28.4886 17.41 28.4886 16.25C28.4886 15.11 28.2186 14.05 27.6786 13.07C27.1386 12.09 26.3986 11.31 25.4586 10.73C24.5186 10.15 23.4786 9.86 22.3386 9.86C21.1986 9.86 20.1486 10.16 19.1886 10.76C18.2486 11.34 17.4986 12.12 16.9386 13.1C16.3986 14.08 16.1286 15.14 16.1286 16.28C16.1286 17.42 16.3986 18.48 16.9386 19.46C17.4986 20.42 18.2486 21.19 19.1886 21.77C20.1486 22.35 21.2086 22.64 22.3686 22.64ZM37.5727 4.7C36.8127 4.7 36.1127 4.89 35.4727 5.27C34.8327 5.63 34.3227 6.14 33.9427 6.8C33.5827 7.44 33.4027 8.15 33.4027 8.93V9.5H37.5727V10.34H33.4027V23H32.4427V8.93C32.4427 7.99 32.6627 7.14 33.1027 6.38C33.5627 5.6 34.1827 4.99 34.9627 4.55C35.7627 4.09 36.6327 3.86 37.5727 3.86V4.7ZM45.6985 28.97C43.4585 28.97 41.6885 28.17 40.3885 26.57V25.04C41.0485 26.08 41.7985 26.85 42.6385 27.35C43.4785 27.87 44.4585 28.13 45.5785 28.13C46.7185 28.13 47.6885 27.89 48.4885 27.41C49.3085 26.93 49.9285 26.27 50.3485 25.43C50.7685 24.61 50.9785 23.69 50.9785 22.67V20.39C50.4985 21.33 49.7685 22.06 48.7885 22.58C47.8285 23.08 46.7785 23.33 45.6385 23.33C44.4985 23.33 43.4885 23.08 42.6085 22.58C41.7285 22.08 41.0385 21.38 40.5385 20.48C40.0585 19.58 39.8185 18.54 39.8185 17.36V9.5H40.7785V17.36C40.7785 18.44 40.9985 19.37 41.4385 20.15C41.8985 20.91 42.4985 21.49 43.2385 21.89C43.9785 22.29 44.7885 22.49 45.6685 22.49C46.6285 22.49 47.5185 22.26 48.3385 21.8C49.1585 21.32 49.7985 20.69 50.2585 19.91C50.7385 19.11 50.9785 18.26 50.9785 17.36V9.5H51.9385V22.58C51.9385 23.78 51.6885 24.86 51.1885 25.82C50.7085 26.8 49.9985 27.57 49.0585 28.13C48.1185 28.69 46.9985 28.97 45.6985 28.97ZM61.7715 23.33C60.4915 23.33 59.3015 23.01 58.2015 22.37C57.1015 21.73 56.2315 20.87 55.5915 19.79C54.9515 18.69 54.6315 17.51 54.6315 16.25C54.6315 14.99 54.9515 13.82 55.5915 12.74C56.2315 11.64 57.1015 10.77 58.2015 10.13C59.3015 9.49 60.4915 9.17 61.7715 9.17C63.0715 9.17 64.3015 9.52 65.4615 10.22C66.6215 10.9 67.4315 11.79 67.8915 12.89V9.5H68.8515V23H67.8915V19.64C67.3515 20.76 66.5115 21.66 65.3715 22.34C64.2515 23 63.0515 23.33 61.7715 23.33ZM61.8315 22.49C62.9315 22.49 63.9515 22.21 64.8915 21.65C65.8315 21.07 66.5715 20.31 67.1115 19.37C67.6715 18.41 67.9515 17.37 67.9515 16.25C67.9515 15.15 67.6715 14.12 67.1115 13.16C66.5515 12.2 65.8015 11.44 64.8615 10.88C63.9215 10.3 62.9015 10.01 61.8015 10.01C60.7015 10.01 59.6715 10.3 58.7115 10.88C57.7715 11.46 57.0115 12.23 56.4315 13.19C55.8715 14.15 55.5915 15.18 55.5915 16.28C55.5915 17.38 55.8715 18.41 56.4315 19.37C57.0115 20.31 57.7815 21.07 58.7415 21.65C59.7015 22.21 60.7315 22.49 61.8315 22.49ZM102.78 0.499998V23H101.79V1.94L91.1698 23.42L80.6098 1.67V23H79.6198V0.499998H81.0298L91.1698 21.38L101.4 0.499998H102.78ZM108.203 6.41C107.923 6.41 107.673 6.31 107.453 6.11C107.253 5.91 107.153 5.66 107.153 5.36C107.153 5.08 107.253 4.84 107.453 4.64C107.673 4.44 107.923 4.34 108.203 4.34C108.483 4.34 108.723 4.44 108.923 4.64C109.143 4.84 109.253 5.08 109.253 5.36C109.253 5.66 109.143 5.91 108.923 6.11C108.723 6.31 108.483 6.41 108.203 6.41ZM107.723 9.5H108.683V23H107.723V9.5ZM113.156 0.559999H114.116V14.18L119.456 9.5H120.686L114.506 14.9L122.246 23H120.956L114.116 15.8V23H113.156V0.559999ZM124.435 0.499998H125.395V12.29C125.815 11.39 126.525 10.65 127.525 10.07C128.545 9.47 129.575 9.17 130.615 9.17C132.515 9.17 133.975 9.69 134.995 10.73C136.035 11.77 136.555 13.24 136.555 15.14V23H135.595V15.14C135.595 13.5 135.155 12.24 134.275 11.36C133.415 10.46 132.195 10.01 130.615 10.01C129.655 10.01 128.775 10.24 127.975 10.7C127.175 11.14 126.545 11.76 126.085 12.56C125.625 13.34 125.395 14.2 125.395 15.14V23H124.435V0.499998ZM146.703 23.33C145.423 23.33 144.233 23.01 143.133 22.37C142.033 21.73 141.163 20.87 140.523 19.79C139.883 18.69 139.563 17.51 139.563 16.25C139.563 14.99 139.883 13.82 140.523 12.74C141.163 11.64 142.033 10.77 143.133 10.13C144.233 9.49 145.423 9.17 146.703 9.17C148.003 9.17 149.233 9.52 150.393 10.22C151.553 10.9 152.363 11.79 152.823 12.89V9.5H153.783V23H152.823V19.64C152.283 20.76 151.443 21.66 150.303 22.34C149.183 23 147.983 23.33 146.703 23.33ZM146.763 22.49C147.863 22.49 148.883 22.21 149.823 21.65C150.763 21.07 151.503 20.31 152.043 19.37C152.603 18.41 152.883 17.37 152.883 16.25C152.883 15.15 152.603 14.12 152.043 13.16C151.483 12.2 150.733 11.44 149.793 10.88C148.853 10.3 147.833 10.01 146.733 10.01C145.633 10.01 144.603 10.3 143.643 10.88C142.703 11.46 141.943 12.23 141.363 13.19C140.803 14.15 140.523 15.18 140.523 16.28C140.523 17.38 140.803 18.41 141.363 19.37C141.943 20.31 142.713 21.07 143.673 21.65C144.633 22.21 145.663 22.49 146.763 22.49ZM163.15 28.97C160.91 28.97 159.14 28.17 157.84 26.57V25.04C158.5 26.08 159.25 26.85 160.09 27.35C160.93 27.87 161.91 28.13 163.03 28.13C164.17 28.13 165.14 27.89 165.94 27.41C166.76 26.93 167.38 26.27 167.8 25.43C168.22 24.61 168.43 23.69 168.43 22.67V20.39C167.95 21.33 167.22 22.06 166.24 22.58C165.28 23.08 164.23 23.33 163.09 23.33C161.95 23.33 160.94 23.08 160.06 22.58C159.18 22.08 158.49 21.38 157.99 20.48C157.51 19.58 157.27 18.54 157.27 17.36V9.5H158.23V17.36C158.23 18.44 158.45 19.37 158.89 20.15C159.35 20.91 159.95 21.49 160.69 21.89C161.43 22.29 162.24 22.49 163.12 22.49C164.08 22.49 164.97 22.26 165.79 21.8C166.61 21.32 167.25 20.69 167.71 19.91C168.19 19.11 168.43 18.26 168.43 17.36V9.5H169.39V22.58C169.39 23.78 169.14 24.86 168.64 25.82C168.16 26.8 167.45 27.57 166.51 28.13C165.57 28.69 164.45 28.97 163.15 28.97ZM177.993 23.27C177.053 23.27 176.193 23.06 175.413 22.64C174.633 22.2 174.013 21.59 173.553 20.81C173.093 20.03 172.863 19.16 172.863 18.2V0.499998H173.823V18.2C173.823 19 174.003 19.72 174.363 20.36C174.743 21 175.253 21.51 175.893 21.89C176.533 22.25 177.233 22.43 177.993 22.43V23.27ZM186.607 23.48C185.247 23.48 184.017 23.15 182.917 22.49C181.817 21.81 180.957 20.92 180.337 19.82C179.717 18.7 179.407 17.49 179.407 16.19C179.407 14.91 179.717 13.72 180.337 12.62C180.977 11.52 181.837 10.65 182.917 10.01C184.017 9.35 185.237 9.02 186.577 9.02C187.897 9.02 189.097 9.35 190.177 10.01C191.277 10.65 192.137 11.52 192.757 12.62C193.377 13.72 193.687 14.91 193.687 16.19C193.687 17.53 193.387 18.76 192.787 19.88C192.187 20.98 191.347 21.86 190.267 22.52C189.207 23.16 187.987 23.48 186.607 23.48ZM186.607 22.64C187.747 22.64 188.787 22.35 189.727 21.77C190.667 21.19 191.397 20.42 191.917 19.46C192.457 18.48 192.727 17.41 192.727 16.25C192.727 15.11 192.457 14.05 191.917 13.07C191.377 12.09 190.637 11.31 189.697 10.73C188.757 10.15 187.717 9.86 186.577 9.86C185.437 9.86 184.387 10.16 183.427 10.76C182.487 11.34 181.737 12.12 181.177 13.1C180.637 14.08 180.367 15.14 180.367 16.28C180.367 17.42 180.637 18.48 181.177 19.46C181.737 20.42 182.487 21.19 183.427 21.77C184.387 22.35 185.447 22.64 186.607 22.64ZM207.645 9.5L201.015 23.39L194.355 9.5H195.405L201.015 21.2L206.595 9.5H207.645ZM212.959 23.33C211.999 23.33 211.149 23.17 210.409 22.85C209.669 22.51 209.139 22.08 208.819 21.56V19.97C209.199 20.83 209.719 21.47 210.379 21.89C211.039 22.29 211.879 22.49 212.899 22.49C213.879 22.49 214.669 22.19 215.269 21.59C215.869 20.97 216.169 20.18 216.169 19.22C216.169 18.4 215.999 17.77 215.659 17.33C215.319 16.87 214.769 16.41 214.009 15.95L212.869 15.29C212.049 14.79 211.429 14.4 211.009 14.12C210.609 13.82 210.289 13.49 210.049 13.13C209.809 12.75 209.689 12.31 209.689 11.81C209.689 11.01 209.969 10.37 210.529 9.89C211.089 9.41 211.819 9.17 212.719 9.17C213.819 9.17 214.739 9.42 215.479 9.92V11.24C214.859 10.42 213.969 10.01 212.809 10.01C212.169 10.01 211.649 10.17 211.249 10.49C210.849 10.81 210.649 11.22 210.649 11.72C210.649 12.16 210.769 12.55 211.009 12.89C211.249 13.21 211.579 13.51 211.999 13.79C212.439 14.07 213.159 14.49 214.159 15.05C215.179 15.63 215.929 16.23 216.409 16.85C216.889 17.45 217.129 18.24 217.129 19.22C217.129 20.46 216.719 21.46 215.899 22.22C215.099 22.96 214.119 23.33 212.959 23.33ZM220.119 0.559999H221.079V14.18L226.419 9.5H227.649L221.469 14.9L229.209 23H227.919L221.079 15.8V23H220.119V0.559999ZM236.85 23.33C235.57 23.33 234.38 23.01 233.28 22.37C232.18 21.73 231.31 20.87 230.67 19.79C230.03 18.69 229.71 17.51 229.71 16.25C229.71 14.99 230.03 13.82 230.67 12.74C231.31 11.64 232.18 10.77 233.28 10.13C234.38 9.49 235.57 9.17 236.85 9.17C238.15 9.17 239.38 9.52 240.54 10.22C241.7 10.9 242.51 11.79 242.97 12.89V9.5H243.93V23H242.97V19.64C242.43 20.76 241.59 21.66 240.45 22.34C239.33 23 238.13 23.33 236.85 23.33ZM236.91 22.49C238.01 22.49 239.03 22.21 239.97 21.65C240.91 21.07 241.65 20.31 242.19 19.37C242.75 18.41 243.03 17.37 243.03 16.25C243.03 15.15 242.75 14.12 242.19 13.16C241.63 12.2 240.88 11.44 239.94 10.88C239 10.3 237.98 10.01 236.88 10.01C235.78 10.01 234.75 10.3 233.79 10.88C232.85 11.46 232.09 12.23 231.51 13.19C230.95 14.15 230.67 15.18 230.67 16.28C230.67 17.38 230.95 18.41 231.51 19.37C232.09 20.31 232.86 21.07 233.82 21.65C234.78 22.21 235.81 22.49 236.91 22.49ZM253.296 28.97C251.056 28.97 249.286 28.17 247.986 26.57V25.04C248.646 26.08 249.396 26.85 250.236 27.35C251.076 27.87 252.056 28.13 253.176 28.13C254.316 28.13 255.286 27.89 256.086 27.41C256.906 26.93 257.526 26.27 257.946 25.43C258.366 24.61 258.576 23.69 258.576 22.67V20.39C258.096 21.33 257.366 22.06 256.386 22.58C255.426 23.08 254.376 23.33 253.236 23.33C252.096 23.33 251.086 23.08 250.206 22.58C249.326 22.08 248.636 21.38 248.136 20.48C247.656 19.58 247.416 18.54 247.416 17.36V9.5H248.376V17.36C248.376 18.44 248.596 19.37 249.036 20.15C249.496 20.91 250.096 21.49 250.836 21.89C251.576 22.29 252.386 22.49 253.266 22.49C254.226 22.49 255.116 22.26 255.936 21.8C256.756 21.32 257.396 20.69 257.856 19.91C258.336 19.11 258.576 18.26 258.576 17.36V9.5H259.536V22.58C259.536 23.78 259.286 24.86 258.786 25.82C258.306 26.8 257.596 27.57 256.656 28.13C255.716 28.69 254.596 28.97 253.296 28.97ZM269.369 23.33C268.089 23.33 266.899 23.01 265.799 22.37C264.699 21.73 263.829 20.87 263.189 19.79C262.549 18.69 262.229 17.51 262.229 16.25C262.229 14.99 262.549 13.82 263.189 12.74C263.829 11.64 264.699 10.77 265.799 10.13C266.899 9.49 268.089 9.17 269.369 9.17C270.669 9.17 271.899 9.52 273.059 10.22C274.219 10.9 275.029 11.79 275.489 12.89V9.5H276.449V23H275.489V19.64C274.949 20.76 274.109 21.66 272.969 22.34C271.849 23 270.649 23.33 269.369 23.33ZM269.429 22.49C270.529 22.49 271.549 22.21 272.489 21.65C273.429 21.07 274.169 20.31 274.709 19.37C275.269 18.41 275.549 17.37 275.549 16.25C275.549 15.15 275.269 14.12 274.709 13.16C274.149 12.2 273.399 11.44 272.459 10.88C271.519 10.3 270.499 10.01 269.399 10.01C268.299 10.01 267.269 10.3 266.309 10.88C265.369 11.46 264.609 12.23 264.029 13.19C263.469 14.15 263.189 15.18 263.189 16.28C263.189 17.38 263.469 18.41 264.029 19.37C264.609 20.31 265.379 21.07 266.339 21.65C267.299 22.21 268.329 22.49 269.429 22.49Z" fill="white"/>
</svg>
