<svg width="57" height="40" viewBox="0 0 57 40" fill="none" xmlns="http://www.w3.org/2000/svg">
<g clip-path="url(#clip0)">
<path d="M22.5781 27.3778L37.9559 19.4222L22.5781 11.4V27.3778V27.3778Z" fill="white"/>
<path opacity="0.12" d="M22.5781 11.4L36.067 20.4L37.9559 19.4222L22.5781 11.4V11.4Z" fill="#420000"/>
<path d="M56.2891 8.62222C56.2891 8.62222 55.7338 4.71111 54.0233 2.97778C51.8687 0.711111 49.4473 0.711111 48.3144 0.577778C40.3844 0 28.4556 0 28.4556 0H28.4333C28.4333 0 16.5047 0 8.53 0.577778C7.41933 0.711111 4.998 0.711111 2.82111 2.97778C1.13289 4.71111 0.577556 8.62222 0.577556 8.62222C0.577556 8.62222 0 13.2444 0 17.8444V22.1556C0 26.7556 0.577556 31.3556 0.577556 31.3556C0.577556 31.3556 1.13289 35.2667 2.84333 37C4.998 39.2667 7.84133 39.2 9.10756 39.4222C13.6613 39.8667 28.4333 40 28.4333 40C28.4333 40 40.3842 39.9778 48.3367 39.4C49.4473 39.2667 51.8687 39.2667 54.0456 37C55.756 35.2667 56.3113 31.3556 56.3113 31.3556C56.3113 31.3556 56.8889 26.7556 56.8889 22.1556V17.8444C56.8667 13.2444 56.2891 8.62222 56.2891 8.62222ZM22.5691 27.3778V11.4L37.9407 19.4222L22.5689 27.3778H22.5691Z" fill="url(#paint0_linear)"/>
</g>
<defs>
<linearGradient id="paint0_linear" x1="28.4331" y1="0" x2="28.4331" y2="40.012" gradientUnits="userSpaceOnUse">
<stop stop-color="#E52D27"/>
<stop offset="1" stop-color="#BF171D"/>
</linearGradient>
<clipPath id="clip0">
<rect width="56.89" height="40" fill="white"/>
</clipPath>
</defs>
</svg>
