<svg width="10" height="12" viewBox="0 0 10 12" fill="none" xmlns="http://www.w3.org/2000/svg">
<g clip-path="url(#clip0)">
<path d="M4.81226 0C4.93746 0 5.06254 0 5.18774 0C5.28815 0.012633 5.38928 0.021591 5.48899 0.0385882C6.20083 0.16021 6.79958 0.48373 7.26889 1.02109C7.86212 1.70052 8.09501 2.49066 7.96336 3.37302C7.85202 4.11906 7.48089 4.729 6.88696 5.20929C6.87592 5.21825 6.86288 5.22479 6.84867 5.23375C6.8637 5.24374 6.86664 5.2465 6.87016 5.24799C6.88625 5.25488 6.90234 5.26154 6.91855 5.26821C7.66892 5.57726 8.30982 6.03365 8.83047 6.64578C9.5961 7.54594 9.98602 8.58369 9.99859 9.75523C10.0021 10.0822 9.99977 10.4092 9.99918 10.7362C9.99859 11.0358 9.78507 11.2442 9.47795 11.2443C6.49187 11.2446 3.5059 11.2446 0.519814 11.2443C0.216449 11.2443 0.00210879 11.0352 0.00140411 10.7395C0.000229641 10.4068 -0.00047504 10.074 0.00140411 9.74133C0.00504496 9.09912 0.129773 8.47975 0.39074 7.89036C0.928529 6.67587 1.82159 5.8058 3.06254 5.27739C3.0899 5.26568 3.11727 5.25396 3.1498 5.23995C3.12796 5.22204 3.11292 5.20998 3.09824 5.19758C2.27341 4.50276 1.90522 3.62534 2.02536 2.56657C2.10006 1.90862 2.39309 1.34324 2.86922 0.872483C3.30142 0.445142 3.8203 0.170546 4.42492 0.0559299C4.55282 0.0316974 4.68307 0.0183753 4.81226 0ZM8.99959 10.2653C8.99959 10.1541 8.99841 10.0475 8.99982 9.94082C9.00347 9.65738 8.99043 9.37486 8.93769 9.09567C8.76751 8.19539 8.33801 7.43316 7.62852 6.83677C6.6281 5.99575 5.4682 5.70049 4.17523 5.95384C3.26772 6.13162 2.51935 6.58732 1.92565 7.28065C1.4467 7.84018 1.15508 8.48389 1.04316 9.20604C0.989249 9.55391 0.999467 9.90373 1.00158 10.2533C1.00158 10.2564 1.00522 10.2596 1.00863 10.2651C3.66797 10.2653 6.32873 10.2653 8.99959 10.2653ZM4.99876 0.978141C3.89547 0.979405 2.99865 1.85889 3.0017 2.93638C3.00487 4.01788 3.89946 4.89002 5.00405 4.8883C6.10535 4.88646 6.99853 4.0111 6.99818 2.93408C6.99783 1.8543 6.101 0.976993 4.99876 0.978141Z" fill="black"/>
</g>
<defs>
<clipPath id="clip0">
<rect width="10" height="11.2446" fill="white"/>
</clipPath>
</defs>
</svg>
