
<svg width="15" height="17" viewBox="0 0 15 17" fill="none" xmlns="http://www.w3.org/2000/svg">
<g clip-path="url(#clip0)">
<path d="M7.21827 0C7.40606 0 7.59369 0 7.78148 0C7.93211 0.0190992 8.08379 0.0326422 8.23336 0.0583393C9.30113 0.242212 10.1992 0.731325 10.9032 1.54373C11.7931 2.57092 12.1424 3.76549 11.9449 5.09948C11.7779 6.22737 11.2212 7.14952 10.3303 7.87563C10.3138 7.88917 10.2942 7.89907 10.2729 7.91261C10.2954 7.92772 10.2998 7.93189 10.3051 7.93414C10.3293 7.94456 10.3534 7.95463 10.3777 7.9647C11.5033 8.43194 12.4646 9.12194 13.2456 10.0474C14.394 11.4083 14.9789 12.9772 14.9978 14.7484C15.0031 15.2427 14.9995 15.737 14.9986 16.2315C14.9978 16.6843 14.6775 16.9995 14.2168 16.9997C9.73768 17 5.25873 17 0.779599 16.9997C0.324552 16.9997 0.00304111 16.6835 0.00198409 16.2364C0.000222391 15.7334 -0.00083463 15.2304 0.00198409 14.7274C0.00744537 13.7564 0.194538 12.8201 0.585988 11.929C1.39267 10.0929 2.73227 8.77746 4.59368 7.97859C4.63473 7.96088 4.67578 7.94317 4.72458 7.92199C4.69181 7.8949 4.66926 7.87667 4.64724 7.85792C3.41 6.80747 2.8577 5.48094 3.03792 3.88026C3.14997 2.88554 3.58951 2.03076 4.30371 1.31906C4.95201 0.672985 5.73033 0.257839 6.63726 0.0845572C6.82911 0.0479216 7.02448 0.0277806 7.21827 0ZM13.4993 15.5195C13.4993 15.3514 13.4975 15.1903 13.4996 15.029C13.5051 14.6005 13.4855 14.1733 13.4064 13.7512C13.1511 12.3902 12.5069 11.2378 11.4427 10.3361C9.94203 9.06464 8.20218 8.61824 6.26272 9.00127C4.90145 9.27004 3.7789 9.959 2.88836 11.0072C2.16993 11.8531 1.7325 12.8263 1.56461 13.9181C1.48375 14.444 1.49908 14.9729 1.50225 15.5014C1.50225 15.5061 1.50771 15.511 1.51282 15.5193C5.50184 15.5195 9.49298 15.5195 13.4993 15.5195ZM7.49803 1.4788C5.84308 1.48071 4.49785 2.81036 4.50243 4.43934C4.50718 6.07441 5.84907 7.39294 7.50595 7.39034C9.1579 7.38756 10.4977 6.06416 10.4971 4.43587C10.4966 2.80341 9.15138 1.47706 7.49803 1.4788Z" fill="black"/>
</g>
<defs>
<clipPath id="clip0">
<rect width="15" height="17" fill="white"/>
</clipPath>
</defs>
</svg>