<svg width="55" height="48" viewBox="0 0 55 48" fill="none" xmlns="http://www.w3.org/2000/svg">
<path d="M22.896 13.04C22.896 17.0507 21.872 20.1227 19.824 22.256C17.776 24.3893 15.024 25.456 11.568 25.456C8.112 25.456 5.36 24.3893 3.312 22.256C1.264 20.1227 0.24 17.0507 0.24 13.04C0.24 9.02933 1.264 5.95733 3.312 3.824C5.36 1.69066 8.112 0.623997 11.568 0.623997C15.024 0.623997 17.776 1.69066 19.824 3.824C21.872 5.95733 22.896 9.02933 22.896 13.04ZM15.664 13.04C15.664 10.864 15.28 9.28533 14.512 8.304C13.744 7.32266 12.7627 6.832 11.568 6.832C10.3307 6.832 9.328 7.32266 8.56 8.304C7.83467 9.28533 7.472 10.864 7.472 13.04C7.472 15.216 7.83467 16.816 8.56 17.84C9.328 18.8213 10.3307 19.312 11.568 19.312C12.7627 19.312 13.744 18.8213 14.512 17.84C15.28 16.816 15.664 15.216 15.664 13.04ZM35.376 1.648H44.272L19.248 46H10.352L35.376 1.648ZM54.512 34.608C54.512 38.6187 53.488 41.6907 51.44 43.824C49.392 45.9573 46.64 47.024 43.184 47.024C39.728 47.024 36.976 45.9573 34.928 43.824C32.88 41.6907 31.856 38.6187 31.856 34.608C31.856 30.5973 32.88 27.5253 34.928 25.392C36.976 23.2587 39.728 22.192 43.184 22.192C46.64 22.192 49.392 23.2587 51.44 25.392C53.488 27.5253 54.512 30.5973 54.512 34.608ZM47.28 34.608C47.28 32.432 46.896 30.8533 46.128 29.872C45.36 28.8907 44.3787 28.4 43.184 28.4C41.9467 28.4 40.944 28.8907 40.176 29.872C39.4507 30.8533 39.088 32.432 39.088 34.608C39.088 36.784 39.4507 38.384 40.176 39.408C40.944 40.3893 41.9467 40.88 43.184 40.88C44.3787 40.88 45.36 40.3893 46.128 39.408C46.896 38.384 47.28 36.784 47.28 34.608Z" fill="#D60136"/>
</svg>
