<svg width="28" height="24" viewBox="0 0 28 24" fill="none" xmlns="http://www.w3.org/2000/svg">
<path d="M11.6546 6.52C11.6546 8.52533 11.1426 10.0613 10.1186 11.128C9.0946 12.1947 7.7186 12.728 5.9906 12.728C4.2626 12.728 2.8866 12.1947 1.8626 11.128C0.838604 10.0613 0.326604 8.52533 0.326604 6.52C0.326604 4.51467 0.838604 2.97867 1.8626 1.912C2.8866 0.845332 4.2626 0.311998 5.9906 0.311998C7.7186 0.311998 9.0946 0.845332 10.1186 1.912C11.1426 2.97867 11.6546 4.51467 11.6546 6.52ZM8.0386 6.52C8.0386 5.432 7.8466 4.64267 7.4626 4.152C7.0786 3.66133 6.58794 3.416 5.9906 3.416C5.37194 3.416 4.8706 3.66133 4.4866 4.152C4.12394 4.64267 3.9426 5.432 3.9426 6.52C3.9426 7.608 4.12394 8.408 4.4866 8.92C4.8706 9.41067 5.37194 9.656 5.9906 9.656C6.58794 9.656 7.0786 9.41067 7.4626 8.92C7.8466 8.408 8.0386 7.608 8.0386 6.52ZM17.8946 0.823999H22.3426L9.8306 23H5.3826L17.8946 0.823999ZM27.4626 17.304C27.4626 19.3093 26.9506 20.8453 25.9266 21.912C24.9026 22.9787 23.5266 23.512 21.7986 23.512C20.0706 23.512 18.6946 22.9787 17.6706 21.912C16.6466 20.8453 16.1346 19.3093 16.1346 17.304C16.1346 15.2987 16.6466 13.7627 17.6706 12.696C18.6946 11.6293 20.0706 11.096 21.7986 11.096C23.5266 11.096 24.9026 11.6293 25.9266 12.696C26.9506 13.7627 27.4626 15.2987 27.4626 17.304ZM23.8466 17.304C23.8466 16.216 23.6546 15.4267 23.2706 14.936C22.8866 14.4453 22.3959 14.2 21.7986 14.2C21.1799 14.2 20.6786 14.4453 20.2946 14.936C19.9319 15.4267 19.7506 16.216 19.7506 17.304C19.7506 18.392 19.9319 19.192 20.2946 19.704C20.6786 20.1947 21.1799 20.44 21.7986 20.44C22.3959 20.44 22.8866 20.1947 23.2706 19.704C23.6546 19.192 23.8466 18.392 23.8466 17.304Z" fill="#D60136"/>
</svg>
