<svg width="25" height="25" viewBox="0 0 25 25" fill="none" xmlns="http://www.w3.org/2000/svg">
<g clip-path="url(#clip0)">
<path d="M4.69959 4.3877H3.73901V7.6401H4.75007C5.68998 7.6401 6.37075 7.14924 6.37075 5.99875C6.37075 4.84827 5.68998 4.3877 4.69959 4.3877ZM4.64959 6.94923H4.59959V5.07808H4.64959C5.12026 5.07808 5.49046 5.2377 5.49046 5.99827C5.49046 6.75885 5.12026 6.94923 4.64959 6.94923Z" fill="black"/>
<path d="M8.31965 4.32715C7.41917 4.32715 6.80859 4.92763 6.80859 5.9983C6.80859 7.06898 7.41917 7.69975 8.31965 7.69975C9.22013 7.69975 9.83071 7.0685 9.83071 5.9983C9.83071 4.93244 9.22013 4.32715 8.31965 4.32715ZM8.31965 6.95888C7.92927 6.95888 7.68936 6.58869 7.68936 5.9983C7.68936 5.40792 7.92975 5.06753 8.31965 5.06753C8.71004 5.06753 8.95042 5.40792 8.95042 5.9983C8.95042 6.58917 8.71004 6.95888 8.31965 6.95888Z" fill="black"/>
<path d="M12.4202 6.69927C12.2799 6.84975 12.1001 6.95936 11.8501 6.95936C11.4294 6.95936 11.1496 6.61946 11.1496 6.00888C11.1496 5.41801 11.4799 5.06801 11.8702 5.06801C12.0803 5.06801 12.2207 5.14782 12.3808 5.28821L12.851 4.75792C12.6207 4.52763 12.2707 4.32715 11.8602 4.32715C11.0198 4.32715 10.2693 4.94734 10.2693 6.03869C10.2688 7.14927 10.9895 7.70023 11.84 7.70023C12.2404 7.70023 12.6154 7.53965 12.8904 7.21946L12.4202 6.69927Z" fill="black"/>
<path d="M2.88463 6.73096H1.9231V7.6925H2.88463V6.73096Z" fill="black"/>
<path d="M24.8591 4.94856L20.0514 0.140865C19.9615 0.0504808 19.8389 0 19.7115 0H19.2308H7.21154C5.88606 0 4.80769 1.07837 4.80769 2.40385H2.40385C1.07837 2.40385 0 3.48221 0 4.80769V7.21154C0 8.53702 1.07837 9.61538 2.40385 9.61538H4.80769V20.6731C4.80769 21.9986 5.88606 23.0769 7.21154 23.0769H8.65385C8.91923 23.0769 9.13461 22.862 9.13461 22.5962C9.13461 22.3303 8.91923 22.1154 8.65385 22.1154H7.21154C6.41635 22.1154 5.76923 21.4683 5.76923 20.6731V9.61538H14.9038C16.2293 9.61538 17.3077 8.53702 17.3077 7.21154V4.80769C17.3077 3.48221 16.2293 2.40385 14.9038 2.40385H5.76923C5.76923 1.60865 6.41635 0.961538 7.21154 0.961538H18.75V3.84615C18.75 5.17163 19.8284 6.25 21.1538 6.25H24.0385V20.6731C24.0385 21.4683 23.3913 22.1154 22.5962 22.1154H21.1538C20.8885 22.1154 20.6731 22.3303 20.6731 22.5962C20.6731 22.862 20.8885 23.0769 21.1538 23.0769H22.5962C23.9216 23.0769 25 21.9986 25 20.6731V5.76923V5.28846C25 5.16058 24.9495 5.03846 24.8591 4.94856ZM14.9038 3.36538C15.699 3.36538 16.3462 4.0125 16.3462 4.80769V7.21154C16.3462 8.00673 15.699 8.65385 14.9038 8.65385H2.40385C1.60865 8.65385 0.961538 8.00673 0.961538 7.21154V4.80769C0.961538 4.0125 1.60865 3.36538 2.40385 3.36538H14.9038ZM21.1538 5.28846C20.3587 5.28846 19.7115 4.64135 19.7115 3.84615V1.16058L23.8394 5.28846H21.1538Z" fill="black"/>
<path d="M17.7886 15.3848H12.0193C10.6938 15.3848 9.61548 16.4631 9.61548 17.7886V22.5963C9.61548 23.9218 10.6938 25.0001 12.0193 25.0001H17.7886C19.114 25.0001 20.1924 23.9218 20.1924 22.5963V17.7886C20.1924 16.4631 19.114 15.3848 17.7886 15.3848ZM19.2309 22.5963C19.2309 23.3915 18.5837 24.0386 17.7886 24.0386H12.0193C11.2241 24.0386 10.577 23.3915 10.577 22.5963V17.7886C10.577 16.9934 11.2241 16.3463 12.0193 16.3463H17.7886C18.5837 16.3463 19.2309 16.9934 19.2309 17.7886V22.5963Z" fill="black"/>
<path d="M15.8653 17.5898L12.9807 20.4745V22.5966H15.1028L17.9874 19.712L15.8653 17.5898ZM14.7048 21.635H13.9423V20.8725L15.8653 18.9495L16.6278 19.712L14.7048 21.635Z" fill="black"/>
</g>
<defs>
<clipPath id="clip0">
<rect width="25" height="25" fill="white"/>
</clipPath>
</defs>
</svg>
