<svg width="36" height="36" viewBox="0 0 36 36" fill="none" xmlns="http://www.w3.org/2000/svg">
<path d="M25.2627 11.5713H10.7381L18 17.7958L25.2627 11.5713Z" fill="#D70040"/>
<path d="M18 19.2857C17.8465 19.2857 17.6979 19.231 17.5813 19.1306L9.64285 12.3259V24.4285H26.3571V12.3259L18.4187 19.1306C18.3021 19.231 18.1535 19.2857 18 19.2857Z" fill="#D70040"/>
<path d="M18 0C8.05902 0 0 8.05902 0 18C0 27.941 8.05902 36 18 36C27.941 36 36 27.941 36 18C35.9888 8.06384 27.9362 0.01125 18 0ZM27.6429 25.0714C27.6429 25.4266 27.3552 25.7143 27 25.7143H9C8.64482 25.7143 8.35714 25.4266 8.35714 25.0714V10.9286C8.35714 10.5734 8.64482 10.2857 9 10.2857H27C27.3552 10.2857 27.6429 10.5734 27.6429 10.9286V25.0714Z" fill="#D70040"/>
</svg>
