<svg width="54" height="54" viewBox="0 0 54 54" fill="none" xmlns="http://www.w3.org/2000/svg">
<path d="M53.6305 13.6421C53.6305 13.6421 52.5788 8.52632 51.1575 8.52632C50.0774 8.52632 45.8421 13.3011 43.7671 15.7168C43.028 16.5695 41.9763 17.0526 40.8393 17.0526C38.679 17.0526 36.9451 15.3189 36.9451 13.1589C36.9451 12.0221 37.4283 10.9705 38.2811 10.2316C40.6972 8.15684 45.4726 3.92211 45.4726 2.84211C45.4726 1.42105 40.3561 0.341053 40.3561 0.341053C39.2475 0.113684 38.0821 0 36.9451 0C27.5365 0 19.8902 7.73053 19.8902 17.2232C19.8902 18.4168 20.0324 19.6105 20.3166 20.8611L2.66482 38.1979C-0.888275 41.8074 -0.888275 47.6621 2.66482 51.2716C4.39874 53.0337 6.70115 54 9.1741 54C11.6471 54 13.9495 53.0337 15.655 51.3L33.3636 33.9063C34.5859 34.1053 35.7797 34.1053 36.9451 34.1053C46.4959 34.1053 54 26.6874 54 17.2232C54 16.0011 53.8863 14.8074 53.6305 13.6421Z" fill="#D60136"/>
</svg>
