<svg width="159" height="46" viewBox="0 0 159 46" fill="none" xmlns="http://www.w3.org/2000/svg">
<g clip-path="url(#clip0)">
<path d="M4.18383 38.7794C3.95166 39.0564 3.67998 39.4075 3.37373 39.8329C3.06747 40.2582 2.75627 40.7083 2.44507 41.1831C2.13388 41.6578 1.83256 42.1277 1.54606 42.5975C1.25956 43.0624 1.01258 43.4779 0.800175 43.834H0.0888672V37.8101H0.834752V42.6322C1.02246 42.3008 1.25462 41.9101 1.5263 41.4749C1.80292 41.0347 2.09436 40.5945 2.40556 40.1444C2.71675 39.6993 3.02795 39.2691 3.34409 38.8586C3.66023 38.4481 3.95166 38.0969 4.22334 37.8101H4.93465V43.834H4.18383V38.7794Z" fill="#141721"/>
<path d="M18.6915 43.834H17.9357V41.0248H14.6657V43.834H13.9099V37.8101H14.6657V40.3868H17.9357V37.8101H18.6915V43.834Z" fill="#141721"/>
<path d="M31.5494 37.8101V38.4481H29.5735V43.829H28.8178V38.453H26.8518V37.815H31.5494V37.8101Z" fill="#141721"/>
<path d="M39.3442 40.8174C39.3442 40.2882 39.4183 39.8282 39.5715 39.4375C39.7246 39.0468 39.9222 38.7154 40.1642 38.4533C40.4063 38.1912 40.6878 37.9933 41.004 37.8648C41.3201 37.7362 41.6412 37.6719 41.9771 37.6719C42.7131 37.6719 43.3009 37.9142 43.7405 38.394C44.1801 38.8737 44.3975 39.6156 44.3975 40.6195C44.3975 40.6838 44.3975 40.7432 44.3925 40.8075C44.3876 40.8718 44.3827 40.9262 44.3728 40.9806H40.1494C40.1741 41.7175 40.3569 42.2863 40.6977 42.6819C41.0385 43.0776 41.5819 43.2754 42.3278 43.2754C42.7378 43.2754 43.0638 43.2358 43.3058 43.1567C43.5479 43.0776 43.7208 43.0133 43.8294 42.9589L43.9628 43.6117C43.8541 43.676 43.6516 43.7452 43.3503 43.8343C43.0539 43.9183 42.6982 43.9629 42.2981 43.9629C41.7696 43.9629 41.3201 43.8837 40.9496 43.7304C40.5791 43.5771 40.2729 43.3595 40.0308 43.0776C39.7888 42.7957 39.6159 42.4643 39.5072 42.0835C39.3986 41.7027 39.3442 41.2724 39.3442 40.8174ZM43.6121 40.3376C43.5973 39.7095 43.4491 39.2199 43.1675 38.8687C42.8909 38.5176 42.4908 38.3445 41.982 38.3445C41.7103 38.3445 41.4683 38.3989 41.2559 38.5077C41.0435 38.6165 40.8558 38.7599 40.6977 38.9429C40.5396 39.1259 40.4161 39.3386 40.3272 39.576C40.2383 39.8183 40.184 40.0706 40.1692 40.3327H43.6121V40.3376Z" fill="#141721"/>
<path d="M53.8173 45.9854H53.0615V38.0178C53.2887 37.9387 53.5752 37.8645 53.921 37.7953C54.2668 37.726 54.7114 37.6914 55.2448 37.6914C55.6894 37.6914 56.0895 37.7656 56.4501 37.909C56.8107 38.0524 57.1219 38.2602 57.3788 38.5322C57.6406 38.8042 57.8382 39.1356 57.9814 39.5213C58.1246 39.912 58.1987 40.3473 58.1987 40.8369C58.1987 41.2968 58.1395 41.7172 58.016 42.0981C57.8925 42.4789 57.7196 42.8152 57.4874 43.0872C57.2553 43.3642 56.9688 43.5768 56.6329 43.7351C56.297 43.8884 55.9117 43.9675 55.477 43.9675C55.0818 43.9675 54.7361 43.9131 54.4496 43.7994C54.1581 43.6856 53.9457 43.5818 53.8173 43.4779V45.9854V45.9854ZM53.8173 42.7509C53.8864 42.8053 53.9754 42.8646 54.0791 42.924C54.1828 42.9883 54.3063 43.0427 54.4446 43.0971C54.5829 43.1515 54.7361 43.196 54.8991 43.2306C55.0621 43.2653 55.235 43.285 55.4128 43.285C55.7833 43.285 56.0994 43.2207 56.3513 43.0921C56.6032 42.9636 56.8058 42.7905 56.9638 42.5679C57.117 42.3453 57.2306 42.0882 57.2997 41.7865C57.3689 41.4897 57.4035 41.1732 57.4035 40.8369C57.4035 40.0456 57.2059 39.4372 56.8107 39.0119C56.4155 38.5866 55.8919 38.3789 55.2399 38.3789C54.8694 38.3789 54.5681 38.3986 54.336 38.4333C54.1087 38.4679 53.9358 38.5075 53.8173 38.5421V42.7509Z" fill="#141721"/>
<path d="M71.6049 43.834H70.8492V41.0248H67.5791V43.834H66.8234V37.8101H67.5791V40.3868H70.8492V37.8101H71.6049V43.834Z" fill="#141721"/>
<path d="M80.2246 40.8174C80.2246 40.2882 80.2987 39.8282 80.4518 39.4375C80.605 39.0468 80.8025 38.7154 81.0446 38.4533C81.2866 38.1912 81.5682 37.9933 81.8843 37.8648C82.2005 37.7362 82.5215 37.6719 82.8574 37.6719C83.5934 37.6719 84.1813 37.9142 84.6209 38.394C85.0605 38.8737 85.2779 39.6156 85.2779 40.6195C85.2779 40.6838 85.2779 40.7432 85.2729 40.8075C85.268 40.8718 85.263 40.9262 85.2532 40.9806H81.0298C81.0545 41.7175 81.2372 42.2863 81.5781 42.6819C81.9189 43.0776 82.4623 43.2754 83.2082 43.2754C83.6181 43.2754 83.9442 43.2358 84.1862 43.1567C84.4282 43.0776 84.6011 43.0133 84.7098 42.9589L84.8481 43.6117C84.7394 43.676 84.5369 43.7452 84.2356 43.8343C83.9392 43.9183 83.5836 43.9629 83.1835 43.9629C82.6549 43.9629 82.2054 43.8837 81.8349 43.7304C81.4645 43.5771 81.1582 43.3595 80.9162 43.0776C80.6741 42.7957 80.5012 42.4643 80.3926 42.0835C80.2839 41.7027 80.2246 41.2724 80.2246 40.8174ZM84.4925 40.3376C84.4776 39.7095 84.3294 39.2199 84.0479 38.8687C83.7663 38.5176 83.3712 38.3445 82.8624 38.3445C82.5907 38.3445 82.3487 38.3989 82.1362 38.5077C81.9238 38.6165 81.7361 38.7599 81.5781 38.9429C81.42 39.1259 81.2965 39.3386 81.2076 39.576C81.1187 39.8134 81.0643 40.0706 81.0495 40.3327H84.4925V40.3376Z" fill="#141721"/>
<path d="M97.8147 37.8101V38.4481H95.8388V43.829H95.083V38.453H93.1171V37.815H97.8147V37.8101Z" fill="#141721"/>
<path d="M115.252 40.1396H117.544V37.6123H118.22V40.1396H120.512V40.7924H118.22V43.3296H117.544V40.7924H115.252V40.1396Z" fill="#141721"/>
<path d="M142.652 37.8101V38.4481H140.676V43.829H139.92V38.453H137.954V37.815H142.652V37.8101Z" fill="#141721"/>
<path d="M152.748 37.6816C152.981 37.6816 153.242 37.6965 153.534 37.7212C153.825 37.7459 154.097 37.8152 154.354 37.919C154.611 38.0229 154.823 38.1861 155.001 38.4087C155.174 38.6312 155.263 38.928 155.263 39.3088C155.263 39.6055 155.179 39.8677 155.006 40.0952C154.833 40.3227 154.601 40.4908 154.309 40.5996C154.744 40.7183 155.06 40.9013 155.253 41.1585C155.445 41.4157 155.544 41.7322 155.544 42.1031C155.544 42.5087 155.46 42.8301 155.297 43.0774C155.134 43.3247 154.922 43.5077 154.65 43.6363C154.378 43.7649 154.082 43.849 153.741 43.8885C153.405 43.9281 153.06 43.9479 152.714 43.9479C152.294 43.9479 151.928 43.9182 151.612 43.8638C151.296 43.8094 151.029 43.7501 150.802 43.6907V37.9388C150.995 37.8745 151.252 37.8201 151.568 37.7657C151.894 37.7113 152.284 37.6816 152.748 37.6816ZM151.563 40.3276H152.936C153.4 40.3276 153.776 40.2485 154.062 40.0952C154.349 39.9418 154.492 39.6847 154.492 39.3187C154.492 39.0862 154.443 38.9082 154.339 38.7746C154.24 38.6461 154.107 38.5471 153.944 38.4779C153.781 38.4136 153.593 38.3691 153.386 38.3493C153.178 38.3295 152.966 38.3196 152.758 38.3196C152.501 38.3196 152.259 38.3345 152.027 38.3592C151.795 38.3839 151.637 38.4136 151.563 38.4334V40.3276V40.3276ZM151.563 40.9557V43.1813C151.602 43.1961 151.667 43.211 151.755 43.2209C151.844 43.2308 151.943 43.2456 152.057 43.2555C152.17 43.2654 152.289 43.2753 152.417 43.2852C152.546 43.295 152.669 43.295 152.783 43.295C153.045 43.295 153.297 43.2802 153.539 43.2505C153.781 43.2209 153.988 43.1615 154.166 43.0675C154.344 42.9736 154.487 42.8549 154.596 42.7065C154.704 42.5581 154.759 42.3554 154.759 42.1031C154.759 41.8855 154.714 41.7025 154.625 41.5541C154.537 41.4058 154.413 41.2871 154.255 41.203C154.097 41.1189 153.909 41.0546 153.697 41.0151C153.484 40.9755 153.252 40.9557 153.005 40.9557H151.563V40.9557Z" fill="#141721"/>
<path d="M49.7174 17.0974H56.6527C56.7959 18.9125 57.9715 19.8423 60.14 19.8423C62.027 19.8423 62.9507 19.3082 62.9507 18.2053C62.9507 17.2062 61.8096 16.7117 59.3596 16.1379C56.6181 15.4604 54.7015 14.8224 53.595 14.2141C51.2092 12.8589 50.0039 10.757 50.0039 7.94286C50.0039 5.55406 50.8585 3.63512 52.5676 2.17118C54.3063 0.712186 56.5835 0 59.4633 0C65.4403 0 69.0314 3.1356 69.4266 8.44238H62.595C62.4864 6.83996 61.8146 5.62825 59.3596 5.62825C57.7591 5.62825 56.9046 6.34044 56.9046 7.23067C56.9046 7.94286 57.2602 8.477 58.2235 8.90727C59.1818 9.29799 59.7547 9.44141 61.2811 9.76289C62.1702 9.94093 62.8124 10.119 63.2718 10.2624C63.7361 10.3712 64.3733 10.5839 65.1933 10.8658C65.9738 11.1131 66.6159 11.3999 67.1148 11.7906C68.572 12.8589 70.1724 14.6394 69.9946 17.4535C69.9946 19.7681 69.1055 21.692 67.3618 23.151C65.6181 24.61 63.1631 25.3222 59.9622 25.3222C53.595 25.3271 50.1076 22.4042 49.7174 17.0974Z" fill="#141721"/>
<path d="M77.819 24.8627V6.66234H71.0566V0.465332H91.5858V6.66234H84.8283V24.8627H77.819V24.8627Z" fill="#141721"/>
<path d="M106.173 21.3013H97.6368L96.5353 24.8622H89.4568L97.6418 0.459961H106.607L114.753 24.8622H107.279L106.173 21.3013ZM101.905 7.33948L99.341 15.6384H104.429L101.905 7.33948Z" fill="#141721"/>
<path d="M124.064 24.8627H117.055V0.465332H128.085C130.644 0.465332 132.743 1.21214 134.348 2.67608C135.949 4.13507 136.734 6.20239 136.734 8.90771C136.734 12.3252 134.813 15.1393 131.538 16.4252L138.438 24.8676H129.542L124.064 17.3501V24.8627V24.8627ZM124.064 6.66234V11.6823H126.41C128.51 11.6823 129.577 10.8613 129.577 9.22423C129.577 7.51301 128.51 6.6574 126.41 6.6574H124.064V6.66234Z" fill="#141721"/>
<path d="M145.122 24.8627V6.66234H138.359V0.465332H158.888V6.66234H152.131V24.8627H145.122V24.8627Z" fill="#141721"/>
<path d="M6.55984 7.01824C7.80957 5.53946 9.59278 4.81738 11.9836 4.81738C14.2607 4.81738 16.0785 5.53946 17.4419 7.01824C18.8447 8.42283 19.5264 10.3616 19.5264 12.7503V24.8625H12.8529V14.3478C12.8529 12.3745 11.7909 10.9699 9.85458 10.9699C7.99727 10.9699 6.66851 12.3003 6.66851 14.5753V24.8625H0V5.1982H6.55984V7.01824ZM36.4792 23.537C35.0023 24.4866 33.3722 24.9812 31.6236 24.9812C28.9315 24.9812 26.6543 24.0316 24.7624 22.0978C22.8656 20.1591 21.9172 17.8098 21.9172 15.0007C21.9172 12.231 22.8656 9.87687 24.7624 7.93814C26.6592 5.99941 28.9315 5.05478 31.6236 5.05478C33.3672 5.05478 34.9973 5.54935 36.4792 6.49893V5.2081H43.1527V24.8724H36.4792V23.537ZM32.5325 11.0045C31.4309 11.0045 30.4479 11.4199 29.6526 12.2212C28.8574 13.0174 28.477 13.967 28.477 15.1045C28.477 16.2816 28.8574 17.2312 29.6526 18.0274C30.4479 18.8237 31.3963 19.2045 32.5325 19.2045C34.7701 19.2045 36.5533 17.3845 36.5533 15.1045C36.5533 12.8295 34.7701 11.0045 32.5325 11.0045Z" fill="url(#paint0_linear)"/>
</g>
<defs>
<linearGradient id="paint0_linear" x1="21.5755" y1="24.9777" x2="21.5755" y2="4.81763" gradientUnits="userSpaceOnUse">
<stop offset="4.47534e-07" stop-color="#D7006C"/>
<stop offset="1" stop-color="#D4000F"/>
</linearGradient>
<clipPath id="clip0">
<rect width="158.893" height="45.9855" fill="white"/>
</clipPath>
</defs>
</svg>
