<svg width="190" height="57" viewBox="0 0 190 57" fill="none" xmlns="http://www.w3.org/2000/svg">
<path d="M5.0031 47.4458C4.72548 47.7785 4.4006 48.2004 4.03438 48.7113C3.66815 49.2223 3.29602 49.763 2.92389 50.3333C2.55176 50.9037 2.19144 51.4682 1.84884 52.0326C1.50624 52.5911 1.2109 53.0902 0.956903 53.518H0.106316V46.2812H0.998251V52.0742C1.22271 51.6761 1.50033 51.2068 1.82521 50.6839C2.156 50.1551 2.5045 49.6263 2.87663 49.0856C3.24876 48.5509 3.6209 48.034 3.99894 47.5408C4.37697 47.0477 4.72548 46.6259 5.05036 46.2812H5.90094V53.518H5.0031V47.4458Z" fill="white"/>
<path d="M22.3516 53.518H21.4478V50.1432H17.5375V53.518H16.6337V46.2812H17.5375V49.3768H21.4478V46.2812H22.3516V53.518Z" fill="white"/>
<path d="M37.7271 46.2812V47.0477H35.3643V53.5121H34.4606V47.0536H32.1096V46.2872H37.7271V46.2812Z" fill="white"/>
<path d="M47.0481 49.893C47.0481 49.2573 47.1367 48.7047 47.3198 48.2354C47.503 47.766 47.7392 47.3679 48.0287 47.053C48.3181 46.7381 48.6548 46.5005 49.0328 46.346C49.4109 46.1915 49.7948 46.1143 50.1965 46.1143C51.0766 46.1143 51.7795 46.4054 52.3052 46.9817C52.8309 47.558 53.0908 48.4493 53.0908 49.6554C53.0908 49.7326 53.0908 49.8039 53.0849 49.8812C53.079 49.9584 53.0731 50.0238 53.0613 50.0891H48.0109C48.0405 50.9744 48.259 51.6577 48.6666 52.133C49.0742 52.6083 49.7239 52.846 50.6159 52.846C51.1061 52.846 51.496 52.7984 51.7854 52.7034C52.0749 52.6083 52.2816 52.5311 52.4116 52.4657L52.571 53.25C52.4411 53.3272 52.1989 53.4104 51.8386 53.5174C51.4842 53.6184 51.0589 53.6718 50.5804 53.6718C49.9484 53.6718 49.4109 53.5768 48.9679 53.3926C48.5248 53.2084 48.1586 52.947 47.8692 52.6083C47.5797 52.2696 47.373 51.8716 47.2431 51.4141C47.1131 50.9566 47.0481 50.4397 47.0481 49.893ZM52.1517 49.3167C52.1339 48.5622 51.9567 47.9739 51.62 47.5521C51.2892 47.1303 50.8108 46.9223 50.2024 46.9223C49.8775 46.9223 49.5881 46.9877 49.3341 47.1184C49.0801 47.2491 48.8556 47.4214 48.6666 47.6412C48.4776 47.8611 48.3299 48.1165 48.2236 48.4017C48.1173 48.6929 48.0523 48.9959 48.0346 49.3108H52.1517V49.3167Z" fill="white"/>
<path d="M64.3552 56.1026H63.4514V46.5308C63.7232 46.4357 64.0658 46.3466 64.4792 46.2634C64.8927 46.1803 65.4243 46.1387 66.0623 46.1387C66.5939 46.1387 67.0724 46.2278 67.5036 46.4001C67.9348 46.5724 68.3069 46.8219 68.614 47.1487C68.9271 47.4755 69.1634 47.8736 69.3347 48.337C69.506 48.8064 69.5946 49.3293 69.5946 49.9175C69.5946 50.47 69.5237 50.975 69.376 51.4325C69.2284 51.89 69.0216 52.2941 68.744 52.6208C68.4664 52.9536 68.1238 53.209 67.7221 53.3992C67.3204 53.5834 66.8597 53.6784 66.3399 53.6784C65.8674 53.6784 65.4539 53.6131 65.1113 53.4764C64.7628 53.3398 64.5088 53.215 64.3552 53.0902V56.1026V56.1026ZM64.3552 52.2168C64.4379 52.2822 64.5442 52.3535 64.6683 52.4248C64.7923 52.502 64.94 52.5674 65.1054 52.6327C65.2708 52.6981 65.4539 52.7516 65.6488 52.7931C65.8437 52.8347 66.0505 52.8585 66.2631 52.8585C66.7061 52.8585 67.0842 52.7813 67.3854 52.6268C67.6867 52.4723 67.9288 52.2644 68.1179 51.997C68.301 51.7296 68.4368 51.4207 68.5195 51.0582C68.6022 50.7017 68.6436 50.3215 68.6436 49.9175C68.6436 48.9668 68.4073 48.236 67.9348 47.725C67.4622 47.2141 66.8361 46.9645 66.0564 46.9645C65.6134 46.9645 65.253 46.9883 64.9754 47.0299C64.7037 47.0715 64.497 47.119 64.3552 47.1606V52.2168Z" fill="white"/>
<path d="M85.6258 53.518H84.722V50.1432H80.8117V53.518H79.908V46.2812H80.8117V49.3768H84.722V46.2812H85.6258V53.518Z" fill="white"/>
<path d="M95.9333 49.893C95.9333 49.2573 96.0219 48.7047 96.205 48.2354C96.3881 47.766 96.6244 47.3679 96.9138 47.053C97.2032 46.7381 97.5399 46.5005 97.918 46.346C98.296 46.1915 98.68 46.1143 99.0816 46.1143C99.9617 46.1143 100.665 46.4054 101.19 46.9817C101.716 47.558 101.976 48.4493 101.976 49.6554C101.976 49.7326 101.976 49.8039 101.97 49.8812C101.964 49.9584 101.958 50.0238 101.946 50.0891H96.8961C96.9256 50.9744 97.1442 51.6577 97.5517 52.133C97.9593 52.6083 98.6091 52.846 99.501 52.846C99.9913 52.846 100.381 52.7984 100.671 52.7034C100.96 52.6083 101.167 52.5311 101.297 52.4657L101.462 53.25C101.332 53.3272 101.09 53.4104 100.73 53.5174C100.375 53.6184 99.9499 53.6718 99.4715 53.6718C98.8394 53.6718 98.3019 53.5768 97.8589 53.3926C97.4159 53.2084 97.0497 52.947 96.7602 52.6083C96.4708 52.2696 96.2641 51.8716 96.1341 51.4141C96.0042 50.9566 95.9333 50.4397 95.9333 49.893ZM101.037 49.3167C101.019 48.5622 100.842 47.9739 100.505 47.5521C100.168 47.1303 99.6959 46.9223 99.0875 46.9223C98.7627 46.9223 98.4732 46.9877 98.2192 47.1184C97.9652 47.2491 97.7408 47.4214 97.5517 47.6412C97.3627 47.8611 97.2151 48.1165 97.1087 48.4017C97.0024 48.6869 96.9374 48.9959 96.9197 49.3108H101.037V49.3167Z" fill="white"/>
<path d="M116.968 46.2812V47.0477H114.605V53.5121H113.701V47.0536H111.35V46.2872H116.968V46.2812Z" fill="white"/>
<path d="M137.819 49.08H140.56V46.0439H141.369V49.08H144.11V49.8643H141.369V52.9123H140.56V49.8643H137.819V49.08Z" fill="white"/>
<path d="M170.584 46.2812V47.0477H168.221V53.5121H167.318V47.0536H164.967V46.2872H170.584V46.2812Z" fill="white"/>
<path d="M182.658 46.1279C182.935 46.1279 183.248 46.1458 183.597 46.1755C183.945 46.2052 184.27 46.2883 184.578 46.4131C184.885 46.5379 185.139 46.734 185.351 47.0013C185.558 47.2687 185.664 47.6252 185.664 48.0827C185.664 48.4392 185.564 48.7541 185.357 49.0274C185.15 49.3007 184.873 49.5027 184.524 49.6334C185.044 49.776 185.422 49.9958 185.653 50.3048C185.883 50.6138 186.001 50.994 186.001 51.4396C186.001 51.9268 185.901 52.313 185.706 52.6101C185.511 52.9072 185.257 53.127 184.932 53.2815C184.607 53.436 184.253 53.537 183.845 53.5845C183.443 53.632 183.03 53.6558 182.616 53.6558C182.114 53.6558 181.677 53.6202 181.299 53.5548C180.921 53.4894 180.602 53.4181 180.33 53.3468V46.4369C180.561 46.3596 180.868 46.2943 181.246 46.2289C181.636 46.1636 182.103 46.1279 182.658 46.1279ZM181.24 49.3066H182.882C183.437 49.3066 183.886 49.2116 184.229 49.0274C184.572 48.8432 184.743 48.5342 184.743 48.0946C184.743 47.8153 184.684 47.6014 184.56 47.441C184.442 47.2865 184.282 47.1677 184.087 47.0845C183.892 47.0073 183.668 46.9538 183.42 46.93C183.172 46.9063 182.918 46.8944 182.67 46.8944C182.362 46.8944 182.073 46.9122 181.795 46.9419C181.518 46.9716 181.329 47.0073 181.24 47.031V49.3066V49.3066ZM181.24 50.0612V52.7349C181.287 52.7527 181.364 52.7705 181.47 52.7824C181.577 52.7943 181.695 52.8121 181.831 52.824C181.967 52.8359 182.108 52.8478 182.262 52.8596C182.416 52.8715 182.563 52.8715 182.699 52.8715C183.012 52.8715 183.313 52.8537 183.603 52.818C183.892 52.7824 184.14 52.7111 184.353 52.5982C184.566 52.4853 184.737 52.3427 184.867 52.1645C184.997 51.9862 185.062 51.7426 185.062 51.4396C185.062 51.1782 185.009 50.9584 184.902 50.7801C184.796 50.6019 184.648 50.4593 184.459 50.3583C184.27 50.2573 184.046 50.18 183.792 50.1325C183.538 50.085 183.26 50.0612 182.965 50.0612H181.24V50.0612Z" fill="white"/>
<path d="M59.4525 21.3981H67.7457C67.917 23.5787 69.3229 24.6957 71.916 24.6957C74.1724 24.6957 75.277 24.054 75.277 22.729C75.277 21.5289 73.9125 20.9347 70.9827 20.2455C67.7044 19.4315 65.4125 18.6651 64.0894 17.9343C61.2364 16.3063 59.7951 13.7811 59.7951 10.4004C59.7951 7.5307 60.817 5.2254 62.8608 3.46671C64.94 1.71397 67.663 0.858398 71.1067 0.858398C78.254 0.858398 82.5483 4.62531 83.0209 11.0005H74.8517C74.7217 9.07548 73.9184 7.61982 70.9827 7.61982C69.0689 7.61982 68.047 8.47539 68.047 9.54486C68.047 10.4004 68.4723 11.0421 69.6241 11.559C70.7701 12.0284 71.4553 12.2007 73.2805 12.5869C74.3437 12.8008 75.1116 13.0147 75.6609 13.187C76.2162 13.3177 76.9782 13.5732 77.9587 13.9119C78.892 14.2089 79.6599 14.5535 80.2565 15.0229C81.999 16.3063 83.9128 18.4452 83.7002 21.8259C83.7002 24.6066 82.6369 26.9178 80.5518 28.6705C78.4667 30.4233 75.531 31.2788 71.7033 31.2788C64.0894 31.2848 59.9192 27.7734 59.4525 21.3981Z" fill="white"/>
<path d="M93.0567 30.7264V8.86168H84.9702V1.41699H109.519V8.86168H101.439V30.7264H93.0567V30.7264Z" fill="white"/>
<path d="M126.962 26.4496H116.755L115.438 30.7274H106.973L116.761 1.41211H127.482L137.222 30.7274H128.285L126.962 26.4496ZM121.859 9.67673L118.793 19.6466H124.877L121.859 9.67673Z" fill="white"/>
<path d="M148.357 30.7264H139.975V1.41699H153.165C156.225 1.41699 158.735 2.31416 160.655 4.07284C162.569 5.82558 163.508 8.30913 163.508 11.5591C163.508 15.6647 161.21 19.0454 157.294 20.5902L165.546 30.7323H154.907L148.357 21.7013V30.7264V30.7264ZM148.357 8.86168V14.8923H151.162C153.673 14.8923 154.949 13.906 154.949 11.9394C154.949 9.88362 153.673 8.85574 151.162 8.85574H148.357V8.86168Z" fill="white"/>
<path d="M173.538 30.7264V8.86168H165.451V1.41699H190V8.86168H181.919V30.7264H173.538V30.7264Z" fill="white"/>
<path d="M7.84431 9.28947C9.33874 7.51297 11.4711 6.64551 14.33 6.64551C17.0531 6.64551 19.2268 7.51297 20.8571 9.28947C22.5347 10.9769 23.3498 13.3059 23.3498 16.1757V30.7264H15.3696V18.0948C15.3696 15.7241 14.0997 14.0367 11.7842 14.0367C9.5632 14.0367 7.97426 15.635 7.97426 18.3681V30.7264H0V7.103H7.84431V9.28947ZM43.6221 29.1341C41.856 30.2748 39.9067 30.869 37.8157 30.869C34.5965 30.869 31.8734 29.7282 29.6111 27.4051C27.3428 25.076 26.2087 22.2538 26.2087 18.879C26.2087 15.5518 27.3428 12.7237 29.6111 10.3946C31.8793 8.06552 34.5965 6.9307 37.8157 6.9307C39.9008 6.9307 41.8501 7.52485 43.6221 8.66562V7.11489H51.6023V30.7383H43.6221V29.1341ZM38.9026 14.0783C37.5853 14.0783 36.4099 14.5774 35.4589 15.5399C34.5079 16.4965 34.053 17.6373 34.053 19.0038C34.053 20.4179 34.5079 21.5587 35.4589 22.5152C36.4099 23.4718 37.544 23.9293 38.9026 23.9293C41.5784 23.9293 43.7108 21.7428 43.7108 19.0038C43.7108 16.2707 41.5784 14.0783 38.9026 14.0783Z" fill="url(#paint0_linear)"/>
<defs>
<linearGradient id="paint0_linear" x1="25.8002" y1="30.8649" x2="25.8002" y2="6.64581" gradientUnits="userSpaceOnUse">
<stop offset="4.47534e-07" stop-color="#D7006C"/>
<stop offset="1" stop-color="#D4000F"/>
</linearGradient>
</defs>
</svg>
