<svg width="114" height="33" viewBox="0 0 114 33" fill="none" xmlns="http://www.w3.org/2000/svg">
<path d="M2.9886 27.8284C2.82276 28.0272 2.6287 28.2792 2.40993 28.5844C2.19117 28.8896 1.96888 29.2126 1.74658 29.5533C1.52429 29.8941 1.30905 30.2312 1.1044 30.5684C0.899752 30.902 0.723329 31.2001 0.571605 31.4557H0.0635071V27.1328H0.596305V30.5932C0.730386 30.3554 0.896224 30.0751 1.09029 29.7627C1.28788 29.4469 1.49606 29.131 1.71836 28.808C1.94065 28.4886 2.16294 28.1798 2.38876 27.8852C2.61458 27.5907 2.82276 27.3387 3.01683 27.1328H3.52493V31.4557H2.9886V27.8284Z" fill="white"/>
<path d="M13.3517 31.4557H12.8118V29.4398H10.476V31.4557H9.93614V27.1328H10.476V28.9819H12.8118V27.1328H13.3517V31.4557Z" fill="white"/>
<path d="M22.5363 27.1328V27.5907H21.1249V31.4521H20.585V27.5942H19.1807V27.1364H22.5363V27.1328Z" fill="white"/>
<path d="M28.1042 29.2905C28.1042 28.9107 28.1571 28.5806 28.2665 28.3002C28.3759 28.0199 28.517 27.7821 28.6899 27.594C28.8628 27.4059 29.0639 27.2639 29.2897 27.1716C29.5156 27.0793 29.7449 27.0332 29.9849 27.0332C30.5106 27.0332 30.9305 27.2071 31.2445 27.5514C31.5586 27.8956 31.7138 28.428 31.7138 29.1485C31.7138 29.1946 31.7138 29.2372 31.7103 29.2834C31.7067 29.3295 31.7032 29.3685 31.6962 29.4076H28.6793C28.697 29.9364 28.8275 30.3446 29.071 30.6285C29.3144 30.9124 29.7026 31.0544 30.2354 31.0544C30.5282 31.0544 30.7611 31.026 30.934 30.9692C31.1069 30.9124 31.2304 30.8663 31.308 30.8272L31.4033 31.2957C31.3257 31.3419 31.181 31.3916 30.9658 31.4554C30.7541 31.5158 30.5 31.5477 30.2142 31.5477C29.8367 31.5477 29.5156 31.4909 29.2509 31.3809C28.9863 31.2709 28.7675 31.1147 28.5946 30.9124C28.4217 30.7101 28.2983 30.4723 28.2206 30.199C28.143 29.9258 28.1042 29.617 28.1042 29.2905ZM31.1528 28.9462C31.1422 28.4955 31.0363 28.1441 30.8352 27.8921C30.6376 27.6401 30.3518 27.5159 29.9884 27.5159C29.7943 27.5159 29.6214 27.5549 29.4697 27.633C29.318 27.7111 29.1839 27.814 29.071 27.9453C28.9581 28.0767 28.8699 28.2293 28.8063 28.3996C28.7428 28.5735 28.704 28.7545 28.6934 28.9426H31.1528V28.9462Z" fill="white"/>
<path d="M38.4426 32.9998H37.9027V27.2821C38.065 27.2253 38.2697 27.1721 38.5167 27.1224C38.7637 27.0727 39.0812 27.0479 39.4623 27.0479C39.7799 27.0479 40.0657 27.1011 40.3232 27.204C40.5808 27.3069 40.8031 27.456 40.9866 27.6512C41.1736 27.8464 41.3147 28.0842 41.4171 28.361C41.5194 28.6414 41.5723 28.9537 41.5723 29.3051C41.5723 29.6352 41.53 29.9369 41.4418 30.2101C41.3535 30.4834 41.23 30.7248 41.0642 30.92C40.8984 31.1187 40.6937 31.2713 40.4538 31.3849C40.2139 31.4949 39.9386 31.5517 39.6281 31.5517C39.3459 31.5517 39.0989 31.5127 38.8942 31.4311C38.686 31.3494 38.5343 31.2749 38.4426 31.2004V32.9998ZM38.4426 30.6786C38.492 30.7177 38.5555 30.7603 38.6296 30.8029C38.7037 30.849 38.7919 30.888 38.8907 30.9271C38.9895 30.9661 39.0989 30.9981 39.2153 31.0229C39.3317 31.0477 39.4552 31.0619 39.5823 31.0619C39.8469 31.0619 40.0727 31.0158 40.2527 30.9235C40.4326 30.8312 40.5773 30.707 40.6902 30.5473C40.7996 30.3876 40.8807 30.203 40.9301 29.9865C40.9795 29.7736 41.0042 29.5465 41.0042 29.3051C41.0042 28.7372 40.8631 28.3007 40.5808 27.9955C40.2985 27.6902 39.9245 27.5412 39.4588 27.5412C39.1941 27.5412 38.9789 27.5554 38.8131 27.5802C38.6507 27.6051 38.5272 27.6335 38.4426 27.6583V30.6786Z" fill="white"/>
<path d="M51.1486 31.4557H50.6087V29.4398H48.2729V31.4557H47.733V27.1328H48.2729V28.9819H50.6087V27.1328H51.1486V31.4557Z" fill="white"/>
<path d="M57.3057 29.2905C57.3057 28.9107 57.3586 28.5806 57.468 28.3002C57.5774 28.0199 57.7186 27.7821 57.8914 27.594C58.0643 27.4059 58.2655 27.2639 58.4913 27.1716C58.7171 27.0793 58.9465 27.0332 59.1864 27.0332C59.7121 27.0332 60.132 27.2071 60.446 27.5514C60.7601 27.8956 60.9153 28.428 60.9153 29.1485C60.9153 29.1946 60.9153 29.2372 60.9118 29.2834C60.9083 29.3295 60.9047 29.3685 60.8977 29.4076H57.8809C57.8985 29.9364 58.0291 30.3446 58.2725 30.6285C58.516 30.9124 58.9041 31.0544 59.4369 31.0544C59.7298 31.0544 59.9626 31.026 60.1355 30.9692C60.3084 30.9124 60.4319 30.8663 60.5096 30.8272L60.6084 31.2957C60.5307 31.3419 60.3861 31.3916 60.1708 31.4554C59.9591 31.5158 59.7051 31.5477 59.4193 31.5477C59.0417 31.5477 58.7206 31.4909 58.456 31.3809C58.1914 31.2709 57.9726 31.1147 57.7997 30.9124C57.6268 30.7101 57.5033 30.4723 57.4257 30.199C57.3481 29.9258 57.3057 29.617 57.3057 29.2905ZM60.3543 28.9462C60.3437 28.4955 60.2379 28.1441 60.0367 27.8921C59.8356 27.6401 59.5533 27.5159 59.1899 27.5159C58.9959 27.5159 58.823 27.5549 58.6712 27.633C58.5195 27.7111 58.3854 27.814 58.2725 27.9453C58.1596 28.0767 58.0714 28.2293 58.0079 28.3996C57.9444 28.57 57.9056 28.7545 57.895 28.9426H60.3543V28.9462Z" fill="white"/>
<path d="M69.8706 27.1328V27.5907H68.4592V31.4521H67.9193V27.5942H66.515V27.1364H69.8706V27.1328Z" fill="white"/>
<path d="M82.326 28.8048H83.9633V26.9912H84.4467V28.8048H86.0839V29.2733H84.4467V31.094H83.9633V29.2733H82.326V28.8048Z" fill="white"/>
<path d="M101.898 27.1328V27.5907H100.487V31.4521H99.9472V27.5942H98.5428V27.1364H101.898V27.1328Z" fill="white"/>
<path d="M109.111 27.041C109.276 27.041 109.463 27.0517 109.672 27.0694C109.88 27.0872 110.074 27.1368 110.257 27.2114C110.441 27.2859 110.593 27.403 110.72 27.5627C110.843 27.7225 110.907 27.9354 110.907 28.2087C110.907 28.4216 110.847 28.6097 110.723 28.773C110.6 28.9363 110.434 29.0569 110.226 29.135C110.536 29.2202 110.762 29.3515 110.9 29.5361C111.037 29.7206 111.108 29.9478 111.108 30.214C111.108 30.505 111.048 30.7357 110.931 30.9131C110.815 31.0906 110.663 31.2219 110.469 31.3142C110.275 31.4065 110.063 31.4668 109.82 31.4952C109.58 31.5236 109.333 31.5378 109.086 31.5378C108.786 31.5378 108.525 31.5165 108.299 31.4775C108.073 31.4384 107.883 31.3958 107.72 31.3532V27.2256C107.858 27.1794 108.041 27.1404 108.267 27.1014C108.5 27.0623 108.779 27.041 109.111 27.041ZM108.264 28.9398H109.245C109.576 28.9398 109.845 28.883 110.049 28.773C110.254 28.663 110.356 28.4784 110.356 28.2158C110.356 28.049 110.321 27.9212 110.247 27.8254C110.176 27.7331 110.081 27.6621 109.964 27.6124C109.848 27.5663 109.714 27.5343 109.566 27.5202C109.418 27.506 109.266 27.4989 109.118 27.4989C108.934 27.4989 108.761 27.5095 108.595 27.5272C108.43 27.545 108.317 27.5663 108.264 27.5805V28.9398ZM108.264 29.3906V30.9877C108.292 30.9983 108.338 31.009 108.401 31.0161C108.465 31.0232 108.535 31.0338 108.617 31.0409C108.698 31.048 108.782 31.0551 108.874 31.0622C108.966 31.0693 109.054 31.0693 109.135 31.0693C109.322 31.0693 109.502 31.0587 109.675 31.0374C109.848 31.0161 109.996 30.9735 110.123 30.906C110.25 30.8386 110.353 30.7534 110.43 30.6469C110.508 30.5405 110.547 30.395 110.547 30.214C110.547 30.0578 110.515 29.9265 110.451 29.82C110.388 29.7135 110.3 29.6283 110.187 29.568C110.074 29.5077 109.94 29.4615 109.788 29.4331C109.636 29.4047 109.47 29.3906 109.294 29.3906H108.264Z" fill="white"/>
<path d="M35.5139 12.2694H40.4679C40.5702 13.5719 41.41 14.2392 42.959 14.2392C44.3069 14.2392 44.9667 13.8559 44.9667 13.0644C44.9667 12.3475 44.1516 11.9926 42.4015 11.5809C40.4432 11.0946 39.0742 10.6368 38.2838 10.2003C36.5795 9.22779 35.7186 7.7194 35.7186 5.69993C35.7186 3.9857 36.329 2.60863 37.5499 1.55808C38.7919 0.511078 40.4185 0 42.4756 0C46.745 0 49.3102 2.25016 49.5925 6.0584H44.7126C44.635 4.90847 44.1551 4.03893 42.4015 4.03893C41.2583 4.03893 40.6479 4.55001 40.6479 5.18886C40.6479 5.69994 40.9019 6.08324 41.59 6.39202C42.2745 6.6724 42.6838 6.77533 43.7741 7.00602C44.4092 7.13379 44.8679 7.26156 45.196 7.36449C45.5277 7.44257 45.9829 7.59518 46.5686 7.79748C47.1261 7.97494 47.5848 8.18079 47.9412 8.46117C48.9821 9.22779 50.1253 10.5055 49.9983 12.525C49.9983 14.186 49.3632 15.5666 48.1176 16.6136C46.8721 17.6606 45.1184 18.1716 42.832 18.1716C38.2838 18.1752 35.7927 16.0777 35.5139 12.2694Z" fill="white"/>
<path d="M55.5874 17.8419V4.78107H50.7569V0.333984H65.4212V4.78107H60.5943V17.8419H55.5874Z" fill="white"/>
<path d="M75.8408 15.2862H69.7436L68.9567 17.8416H63.9005L69.7471 0.330078H76.1513L81.9697 17.8416H76.6311L75.8408 15.2862ZM72.7922 5.26695L70.9609 11.2224H74.5952L72.7922 5.26695Z" fill="white"/>
<path d="M88.6208 17.8419H83.614V0.333984H91.493C93.3207 0.333984 94.8203 0.869906 95.9671 1.92045C97.1103 2.96745 97.6713 4.451 97.6713 6.39238C97.6713 8.84485 96.2988 10.8643 93.9594 11.7871L98.8887 17.8455H92.5339L88.6208 12.4508V17.8419ZM88.6208 4.78107V8.38346H90.2969C91.7965 8.38346 92.5586 7.7943 92.5586 6.61953C92.5586 5.39152 91.7965 4.77752 90.2969 4.77752H88.6208V4.78107Z" fill="white"/>
<path d="M103.663 17.8419V4.78107H98.8322V0.333984H113.496V4.78107H108.67V17.8419H103.663Z" fill="white"/>
<path d="M4.6858 5.0364C5.5785 3.97521 6.85227 3.45703 8.56005 3.45703C10.1867 3.45703 11.4851 3.97521 12.459 5.0364C13.4611 6.04436 13.948 7.43563 13.948 9.14987V17.8417H9.18105V10.2962C9.18105 8.88013 8.42244 7.87217 7.03928 7.87217C5.71258 7.87217 4.76342 8.8269 4.76342 10.4595V17.8417H0V3.73032H4.6858V5.0364ZM26.0577 16.8906C25.0027 17.572 23.8383 17.9269 22.5892 17.9269C20.6662 17.9269 19.0396 17.2455 17.6882 15.8578C16.3332 14.4665 15.6558 12.7806 15.6558 10.7647C15.6558 8.77721 16.3332 7.08781 17.6882 5.69654C19.0431 4.30528 20.6662 3.62739 22.5892 3.62739C23.8347 3.62739 24.9991 3.98231 26.0577 4.66374V3.73741H30.8246V17.8488H26.0577V16.8906ZM23.2384 7.89702C22.4516 7.89702 21.7494 8.19515 21.1813 8.77011C20.6133 9.34152 20.3416 10.023 20.3416 10.8393C20.3416 11.684 20.6133 12.3654 21.1813 12.9368C21.7494 13.5082 22.4269 13.7815 23.2384 13.7815C24.8368 13.7815 26.1106 12.4754 26.1106 10.8393C26.1106 9.20666 24.8368 7.89702 23.2384 7.89702Z" fill="url(#paint0_linear)"/>
<defs>
<linearGradient id="paint0_linear" x1="15.4118" y1="17.9245" x2="15.4118" y2="3.45721" gradientUnits="userSpaceOnUse">
<stop offset="4.47534e-07" stop-color="#D7006C"/>
<stop offset="1" stop-color="#D4000F"/>
</linearGradient>
</defs>
</svg>
