<?xml version="1.0" encoding="UTF-8"?>
<svg width="663px" height="120px" viewBox="0 0 663 120" version="1.1" xmlns="http://www.w3.org/2000/svg" xmlns:xlink="http://www.w3.org/1999/xlink">
    <title>sm_logo</title>
    <defs>
        <polygon id="path-1" points="16.1820313 59.9838594 0.601562499 59.9838594 0.601562499 0.989656251 16.1820313 0.989656251 16.1820313 23.32275 23.5898438 23.32275 36.9857814 0.989656251 54.2420313 0.989656251 35.7225 29.7283594 55.0928124 59.9838594 37.8228126 59.9838594 23.505625 37.2289845 16.1820313 37.2289845"></polygon>
        <polygon id="path-3" points="77.4640626 59.9838594 0.409062501 59.9838594 0.409062501 0.989656251 15.9895313 0.989656251 15.9895313 46.0786563 31.1454687 46.0786563 31.1454687 0.989656251 46.7259375 0.989656251 46.7259375 46.0786563 61.8939063 46.0786563 61.8939063 0.989656251 77.4640626 0.989656251"></polygon>
        <polygon id="path-5" points="55.006875 14.8946875 37.2642189 14.8946875 37.2642189 59.9838594 21.68375 59.9838594 21.68375 14.8946875 7.88734374 14.8946875 0.393593751 0.989656251 55.006875 0.989656251"></polygon>
        <path d="M63.8240625,59.9826561 L47.829375,59.9826561 L44.4657813,50.7125781 L20.0320312,50.7125781 L16.6684375,59.9826561 L0.661718751,59.9826561 L23.8201562,0.989656251 L40.6639062,0.989656251 L63.8240625,59.9826561 Z M24.6709375,38.0699688 L39.826875,38.0699688 L33.7665624,21.0476406 C33.2560938,19.6148906 32.7593751,18.1809375 32.2489062,15.0636406 C31.7384376,18.1809375 31.2399999,19.6148906 30.73125,21.0476406 L24.6709375,38.0699688 Z" id="path-7"></path>
        <path d="M31.873875,47.6882345 C37.2659376,47.6882345 41.2977813,45.7157969 43.9209375,42.4723439 L52.8104844,55.311578 C47.6855157,59.465453 40.7147814,62.0162501 31.873875,62.0162501 C10.8159219,62.0162501 0.28703125,47.6882345 0.28703125,31.2552656 C0.28703125,14.8198906 10.8159219,0.493078124 31.873875,0.493078124 C41.917047,0.493078124 49.5314532,3.77554688 54.7899687,8.96840624 L44.4795312,20.7590313 C41.8928124,17.0803906 37.6667499,14.8198906 31.873875,14.8198906 C21.6849531,14.8198906 16.2928906,21.8162344 16.2928906,31.2552656 C16.2928906,40.694297 21.6849531,47.6882345 31.873875,47.6882345 Z" id="path-9"></path>
        <path d="M31.7040624,0.493078124 C52.7604687,0.493078124 63.2895312,14.8198906 63.2895312,31.2552656 C63.2895312,47.6882345 52.7604687,62.0162501 31.7040624,62.0162501 C10.6459375,62.0162501 0.12890625,47.6882345 0.12890625,31.2552656 C0.12890625,14.8198906 10.6459375,0.493078124 31.7040624,0.493078124 Z M31.7040624,14.8198906 C21.5135938,14.8198906 16.121875,21.8162344 16.121875,31.2552656 C16.121875,40.694297 21.5135938,47.6882345 31.7040624,47.6882345 C41.8928124,47.6882345 47.2845312,40.694297 47.2845312,31.2552656 C47.2845312,21.8162344 41.8928124,14.8198906 31.7040624,14.8198906 Z" id="path-11"></path>
        <path d="M15.9503125,59.9838594 L0.369843749,59.9838594 L0.369843749,0.989656251 L23.6984375,0.989656251 C38.2596875,0.989656251 49.3834376,5.70728124 49.3834376,21.2153906 C49.3834376,36.7222968 38.2596875,41.3586249 23.6984375,41.4425001 L15.9503125,41.4425001 L15.9503125,59.9838594 Z M24.45125,14.4730781 L15.9503125,14.4730781 L15.9503125,27.9589063 L24.45125,27.9589063 C29.1640625,27.9589063 33.3784376,26.5249531 33.3784376,21.2153906 C33.3784376,15.9070313 29.1640625,14.4730781 24.45125,14.4730781 Z" id="path-13"></path>
        <polygon id="path-15" points="16.3394687 59.9838594 0.758484375 59.9838594 0.758484375 0.989656251 15.5014063 0.989656251 33.4382814 28.6333438 51.3751563 0.989656251 66.1185939 0.989656251 66.1185939 59.9838594 50.5381251 59.9838594 50.5381251 28.6333438 37.9070313 48.0170625 28.9815625 48.0170625 16.3394687 28.5470625"></polygon>
        <path d="M33.2646876,19.3702812 C33.2646876,29.7302186 25.8620312,38.12975 16.7320313,38.12975 C7.59859374,38.12975 0.1959375,29.7302186 0.1959375,19.3702812 C0.1959375,9.01034375 7.59859374,0.611671874 16.7320313,0.611671874 C25.8620312,0.611671874 33.2646876,9.01034375 33.2646876,19.3702812 Z" id="path-17"></path>
        <path d="M33.1392186,19.2254219 C33.1392186,29.5853594 25.7365625,37.9848906 16.6065625,37.9848906 C7.47312501,37.9848906 0.0721875,29.5853594 0.0721875,19.2254219 C0.0721875,8.86548438 7.47312501,0.466984374 16.6065625,0.466984374 C25.7365625,0.466984374 33.1392186,8.86548438 33.1392186,19.2254219 Z" id="path-19"></path>
        <path d="M0.032968751,5.19076562 C0.032968751,2.84312501 2.41000001,0.495656249 4.78874999,0.495656249 C7.16578124,0.495656249 9.54453125,2.84312501 9.54453125,5.19076562 C9.54453125,7.53823436 7.16578124,9.885875 4.78874999,9.885875 C2.41000001,9.885875 0.032968751,8.12535938 0.032968751,5.19076562 Z" id="path-21"></path>
        <path d="M5.40718749,9.49623437 C2.43546875,9.49623437 0.651406251,7.14859376 0.651406251,4.80112499 C0.651406251,2.45348438 3.03015624,0.105843749 5.40718749,0.105843749 C7.7859375,0.105843749 10.1629688,2.45348438 10.1629688,4.80112499 C10.1629688,7.14859376 7.7859375,9.49623437 5.40718749,9.49623437 Z" id="path-23"></path>
        <path d="M80.0776484,89.8126269 C77.126564,102.391701 67.3169726,112.585223 55.1825,117.077984 C33.8218751,125.833297 8.3946875,113.615391 1.6365625,91.3752813 C-0.147499999,84.3315 -0.147499999,76.7026563 2.22953126,69.660078 C2.82421874,67.8985311 3.41890625,66.1381875 4.01359376,64.377672 C5.79765626,59.0954376 8.76937499,50.2913124 10.5534375,42.6624687 C6.39062501,39.1407501 3.41890625,33.2712186 3.41890625,26.8157656 C3.41890625,15.664 11.7410938,6.86090625 21.8473438,6.86090625 C29.5748438,0.40528125 40.86875,-1.3550625 50.3803124,2.16579688 C50.975,2.16579688 51.5679689,2.75292187 52.1626562,2.75292187 C53.3503124,2.16579688 55.1343749,2.16579688 56.9184374,2.16579688 C67.0229687,2.16579688 75.3468749,10.9688906 75.3468749,22.1206562 C75.3468749,27.9900156 72.9681251,33.2712186 68.8070312,37.3792032 C70.1710718,45.4631754 77.4978755,61.8831321 80.0776484,74.1066285 L80.0776484,89.8126269 Z M6.39062501,26.8157656 C6.39062501,36.2059845 13.5251563,43.8358593 21.8473438,43.8358593 C30.7642187,43.8358593 37.3023437,36.2059845 37.3023437,26.8157656 C37.3023437,17.425375 30.1695314,9.79567188 21.8473438,9.79567188 C12.9304687,9.79567188 6.39062501,17.425375 6.39062501,26.8157656 Z M56.3237501,5.1005625 C47.4085937,5.1005625 40.86875,12.7302656 40.86875,22.1206562 C40.86875,31.510875 48.0015626,39.1407501 56.3237501,39.1407501 C65.2406249,39.1407501 71.7787499,31.510875 71.7787499,22.1206562 C71.7787499,12.7302656 64.6459376,5.1005625 56.3237501,5.1005625 Z" id="path-25"></path>
        <path d="M48.901875,22.994125 C49.2834375,22.8794844 49.4965626,22.4635469 49.355625,22.0935 C46.4801562,14.5187969 39.0912501,9.12157812 30.4132812,9.12157812 C21.4225,9.12157812 13.8101563,14.9158281 11.1735938,22.9255469 C10.7198438,24.2998594 10.4259375,25.7418906 10.2867188,27.2299844 C10.2523438,27.6225469 10.5685937,27.9645781 10.9673438,27.9762656 C11.9659375,28.0023906 12.96625,28.0231875 13.9734375,28.0231875 C14.9325,28.0231875 15.88125,27.9924219 16.8334375,27.9707656 C28.1685938,27.71725 38.9829687,25.97925 48.901875,22.994125 Z M57.8892189,19.8501875 C58.8225,22.592625 59.3570313,25.5145 59.4155804,28.5537656 C59.420625,28.8380469 59.2470312,29.1015313 58.9789062,29.2117031 C56.1979689,30.361203 53.3242188,31.4080938 50.3645313,32.3437812 C43.0684374,34.651203 35.2756251,36.2891718 27.1235938,37.1418438 C22.8301562,37.5921564 18.4421875,37.8339843 13.9734375,37.8339843 C13.3839062,37.8339843 12.80125,37.8106095 12.2134375,37.8025311 C15.4910938,44.47575 22.39875,49.088703 30.4132812,49.088703 C33.1753125,49.088703 35.7998436,48.5319999 38.1975,47.5428594 C38.4467187,47.4409374 38.7268749,47.4851094 38.9262501,47.6619687 L44.9917188,53.0682969 C45.3389064,53.3769843 45.2907813,53.9381562 44.8885938,54.1719063 C40.5126561,56.7149688 35.4182811,58.1786562 29.9767187,58.1786562 C16.56875,58.1786562 5.26109376,49.3277811 1.69984375,37.2231405 C0.94359375,34.6450155 0.529374999,31.9242345 0.529374999,29.1051406 C0.529374999,28.5015156 0.555156249,27.9040781 0.591249999,27.3093906 C0.837031251,23.3289375 1.8940625,19.5659062 3.60078126,16.1773906 C8.42187501,6.60928125 18.418125,0.0317968749 29.9767187,0.0317968749 C42.9601563,0.0317968749 53.9739063,8.33284374 57.8892189,19.8501875 Z" id="path-27"></path>
    </defs>
    <g id="sm_logo" stroke="none" stroke-width="1" fill="none" fill-rule="evenodd">
        <g id="https___santa-rc.sequoia-api.lfstrm.tv_upload_806ec6f0362d047ae5ac5fc4d34dbf75.svg-0">
            <g id="Group-39" transform="translate(532.812501, 46.406250)">
                <g id="Fill-37-Clipped">
                    <mask id="mask-2" fill="white">
                        <use xlink:href="#path-1"></use>
                    </mask>
                    <g id="path-1"></g>
                    <polygon id="Fill-37" fill="#343B4C" fill-rule="nonzero" mask="url(#mask-2)" points="-7.9921875 68.5776093 63.6861327 68.5776093 63.6861327 -7.60416249 -7.9921875 -7.60416249"></polygon>
                </g>
            </g>
            <g id="Group-42" transform="translate(438.281250, 46.406250)">
                <g id="Fill-40-Clipped">
                    <mask id="mask-4" fill="white">
                        <use xlink:href="#path-3"></use>
                    </mask>
                    <g id="path-3"></g>
                    <polygon id="Fill-40" fill="#343B4C" fill-rule="nonzero" mask="url(#mask-4)" points="-8.18468751 68.5776093 86.0574687 68.5776093 86.0574687 -7.60416249 -8.18468751 -7.60416249"></polygon>
                </g>
            </g>
            <g id="Group-45" transform="translate(214.843749, 46.406250)">
                <g id="Fill-43-Clipped">
                    <mask id="mask-6" fill="white">
                        <use xlink:href="#path-5"></use>
                    </mask>
                    <g id="path-5"></g>
                    <polygon id="Fill-43" fill="#343B4C" fill-rule="nonzero" mask="url(#mask-6)" points="-8.20015626 68.5776093 63.5996109 68.5776093 63.5996109 -7.60416249 -8.20015626 -7.60416249"></polygon>
                </g>
            </g>
            <g id="Group-48" transform="translate(594.687501, 46.406250)">
                <g id="Fill-46-Clipped">
                    <mask id="mask-8" fill="white">
                        <use xlink:href="#path-7"></use>
                    </mask>
                    <g id="path-7"></g>
                    <polygon id="Fill-46" fill="#343B4C" fill-rule="nonzero" mask="url(#mask-8)" points="-7.93203126 68.5764063 72.4172109 68.5764063 72.4172109 -7.60416249 -7.93203126 -7.60416249"></polygon>
                </g>
            </g>
            <g id="Group-51" transform="translate(0.000000, 45.687499)">
                <g id="Fill-49-Clipped">
                    <mask id="mask-10" fill="white">
                        <use xlink:href="#path-9"></use>
                    </mask>
                    <g id="path-9"></g>
                    <polygon id="Fill-49" fill="#343B4C" fill-rule="nonzero" mask="url(#mask-10)" points="-8.30671875 70.61 63.3837531 70.61 63.3837531 -8.10075781 -8.30671875 -8.10075781"></polygon>
                </g>
            </g>
            <g id="Group-54" transform="translate(149.531250, 45.687499)">
                <g id="Fill-52-Clipped">
                    <mask id="mask-12" fill="white">
                        <use xlink:href="#path-11"></use>
                    </mask>
                    <g id="path-11"></g>
                    <polygon id="Fill-52" fill="#343B4C" fill-rule="nonzero" mask="url(#mask-12)" points="-8.46484374 70.61 71.8843983 70.61 71.8843983 -8.10075781 -8.46484374 -8.10075781"></polygon>
                </g>
            </g>
            <g id="Group-57" transform="translate(282.874999, 46.406250)">
                <g id="Fill-55-Clipped">
                    <mask id="mask-14" fill="white">
                        <use xlink:href="#path-13"></use>
                    </mask>
                    <g id="path-13"></g>
                    <polygon id="Fill-55" fill="#343B4C" fill-rule="nonzero" mask="url(#mask-14)" points="-8.22390625 68.5776093 57.977411 68.5776093 57.977411 -7.60416249 -8.22390625 -7.60416249"></polygon>
                </g>
            </g>
            <g id="Group-60" transform="translate(68.750001, 46.406250)">
                <g id="Fill-58-Clipped">
                    <mask id="mask-16" fill="white">
                        <use xlink:href="#path-15"></use>
                    </mask>
                    <g id="path-15"></g>
                    <polygon id="Fill-58" fill="#343B4C" fill-rule="nonzero" mask="url(#mask-16)" points="-7.83526563 68.5776093 74.7120687 68.5776093 74.7120687 -7.60416249 -7.83526563 -7.60416249"></polygon>
                </g>
            </g>
            <g id="Group-63" transform="translate(350.625000, 7.875001)">
                <g id="Fill-61-Clipped">
                    <mask id="mask-18" fill="white">
                        <use xlink:href="#path-17"></use>
                    </mask>
                    <g id="path-17"></g>
                    <polygon id="Fill-61" fill="#F8D049" fill-rule="nonzero" mask="url(#mask-18)" points="-8.39781249 46.7234999 41.8585062 46.7234999 41.8585062 -7.98202657 -8.39781249 -7.98202657"></polygon>
                </g>
            </g>
            <g id="Group-66" transform="translate(386.718750, 3.437499)">
                <g id="Fill-64-Clipped">
                    <mask id="mask-20" fill="white">
                        <use xlink:href="#path-19"></use>
                    </mask>
                    <g id="path-19"></g>
                    <polygon id="Fill-64" fill="#F8D049" fill-rule="nonzero" mask="url(#mask-20)" points="-8.52156249 46.5786405 41.7337767 46.5786405 41.7337767 -8.12688594 -8.52156249 -8.12688594"></polygon>
                </g>
            </g>
            <g id="Group-69" transform="translate(367.093750, 21.625000)">
                <g id="Fill-67-Clipped">
                    <mask id="mask-22" fill="white">
                        <use xlink:href="#path-21"></use>
                    </mask>
                    <g id="path-21"></g>
                    <polygon id="Fill-67" fill="#233046" fill-rule="nonzero" mask="url(#mask-22)" points="-8.56078126 18.479625 18.1374906 18.479625 18.1374906 -8.09814532 -8.56078126 -8.09814532"></polygon>
                </g>
            </g>
            <g id="Group-72" transform="translate(393.593751, 18.187501)">
                <g id="Fill-70-Clipped">
                    <mask id="mask-24" fill="white">
                        <use xlink:href="#path-23"></use>
                    </mask>
                    <g id="path-23"></g>
                    <polygon id="Fill-70" fill="#233046" fill-rule="nonzero" mask="url(#mask-24)" points="-7.94234376 18.0899844 18.7559281 18.0899844 18.7559281 -8.48778595 -7.94234376 -8.48778595"></polygon>
                </g>
            </g>
            <g id="Group-75" transform="translate(346.468750, 0.000000)">
                <g id="Fill-73-Clipped">
                    <mask id="mask-26" fill="white">
                        <use xlink:href="#path-25"></use>
                    </mask>
                    <g id="path-25"></g>
                    <polygon id="Fill-73" fill="#343B4C" fill-rule="nonzero" mask="url(#mask-26)" points="-8.2290625 128.521594 89.5820267 128.521594 89.5820267 -8.2108125 -8.2290625 -8.2108125"></polygon>
                </g>
            </g>
            <g id="Group-78" transform="translate(357.500001, 51.562500)">
                <g id="Fill-76-Clipped">
                    <mask id="mask-28" fill="white">
                        <use xlink:href="#path-27"></use>
                    </mask>
                    <g id="path-27"></g>
                    <polygon id="Fill-76" fill="#FFFFFF" fill-rule="nonzero" mask="url(#mask-28)" points="-8.064375 66.7724061 68.0099064 66.7724061 68.0099064 -8.56195314 -8.064375 -8.56195314"></polygon>
                </g>
            </g>
        </g>
    </g>
</svg>