<svg width="200" height="70" viewBox="0 0 200 70" fill="none" xmlns="http://www.w3.org/2000/svg">
<g clip-path="url(#clip0)">
<path d="M62.3127 21.4094H71.005C71.1845 23.6822 72.658 24.8465 75.3758 24.8465C77.7408 24.8465 78.8986 24.1777 78.8986 22.7966C78.8986 21.5456 77.4684 20.9263 74.3977 20.2079C70.9616 19.3595 68.5595 18.5606 67.1727 17.7988C64.1824 16.1019 62.6718 13.4699 62.6718 9.94603C62.6718 6.95479 63.7429 4.55189 65.885 2.71875C68.0642 0.891799 70.9183 0 74.5277 0C82.0188 0 86.5197 3.92639 87.015 10.5715H78.4528C78.3166 8.56498 77.4746 7.04769 74.3977 7.04769C72.3918 7.04769 71.3207 7.93949 71.3207 9.05423C71.3207 9.94603 71.7665 10.6149 72.9737 11.1537C74.1748 11.6429 74.8929 11.8225 76.806 12.2251C77.9204 12.448 78.7252 12.671 79.301 12.8506C79.8829 12.9868 80.6816 13.2531 81.7093 13.6061C82.6875 13.9158 83.4923 14.275 84.1176 14.7642C85.944 16.1019 87.9499 18.3314 87.727 21.8553C87.727 24.7536 86.6126 27.1627 84.4272 28.9897C82.2417 30.8166 79.1648 31.7084 75.153 31.7084C67.1727 31.7146 62.8018 28.0545 62.3127 21.4094Z" fill="#141721"/>
<path d="M97.5337 31.1326V8.34216H89.0581V0.582275H114.788V8.34216H106.319V31.1326H97.5337V31.1326Z" fill="#141721"/>
<path d="M133.07 26.6734H122.372L120.992 31.1324H112.12L122.378 0.575928H133.615L143.824 31.1324H134.457L133.07 26.6734ZM127.721 9.19046L124.508 19.5824H130.885L127.721 9.19046Z" fill="#141721"/>
<path d="M155.494 31.1326H146.709V0.582275H160.534C163.741 0.582275 166.372 1.51743 168.384 3.35057C170.39 5.17752 171.374 7.76621 171.374 11.1538C171.374 15.4332 168.966 18.957 164.861 20.5672L173.51 31.1388H162.36L155.494 21.7253V31.1326V31.1326ZM155.494 8.34216V14.6281H158.435C161.066 14.6281 162.403 13.6001 162.403 11.5502C162.403 9.40737 161.066 8.33597 158.435 8.33597H155.494V8.34216Z" fill="#141721"/>
<path d="M181.887 31.1326V8.34216H173.411V0.582275H199.141V8.34216H190.672V31.1326H181.887Z" fill="#141721"/>
<path d="M8.22171 8.78813C9.78804 6.93641 12.023 6.03223 15.0195 6.03223C17.8735 6.03223 20.1518 6.93641 21.8606 8.78813C23.6188 10.547 24.4732 12.9746 24.4732 15.9659V31.1326H16.1091V17.9662C16.1091 15.4952 14.778 13.7364 12.3511 13.7364C10.0233 13.7364 8.35791 15.4023 8.35791 18.2511V31.1326H0V6.50909H8.22171V8.78813ZM45.7209 29.4729C43.8697 30.662 41.8267 31.2813 39.6351 31.2813C36.2609 31.2813 33.4069 30.0922 31.0357 27.6707C28.6583 25.2431 27.4697 22.3014 27.4697 18.7837C27.4697 15.3156 28.6583 12.3677 31.0357 9.94004C33.4131 7.51236 36.2609 6.32949 39.6351 6.32949C41.8205 6.32949 43.8635 6.9488 45.7209 8.13786V6.52148H54.085V31.145H45.7209V29.4729ZM40.7742 13.7797C39.3936 13.7797 38.1616 14.2999 37.1648 15.3032C36.1681 16.3003 35.6914 17.4894 35.6914 18.9138C35.6914 20.3877 36.1681 21.5768 37.1648 22.5738C38.1616 23.5709 39.3503 24.0478 40.7742 24.0478C43.5788 24.0478 45.8137 21.7688 45.8137 18.9138C45.8137 16.065 43.5788 13.7797 40.7742 13.7797Z" fill="url(#paint0_linear)"/>
<path d="M0 53.8425H1.7954V60.6672L8.86557 53.0498V64.1787H7.07636V57.2796L0 64.8971V53.8425Z" fill="#141721"/>
<path d="M17.2234 64.1787V53.8425H19.0188V58.0724H23.8973V53.8425H25.6865V64.1725H23.8973V59.7135H19.0188V64.1725H17.2234V64.1787Z" fill="#141721"/>
<path d="M40.8175 55.4898H37.5796V64.1786H35.7842V55.4898H32.5463V53.8486H40.8113V55.4898H40.8175Z" fill="#141721"/>
<path d="M55.3541 60.7166L56.8462 61.5403C56.4995 62.203 56.0723 62.7603 55.577 63.2062C54.6298 64.0547 53.4844 64.4758 52.141 64.4758C50.748 64.4758 49.5469 64.0237 48.544 63.1195C47.541 62.2154 47.0396 60.8653 47.0396 59.0755C47.0396 57.4963 47.4915 56.1895 48.3954 55.1553C49.2993 54.121 50.5127 53.6008 52.0419 53.6008C53.7692 53.6008 55.0693 54.2325 55.9485 55.4959C56.648 56.493 56.97 57.7873 56.9205 59.3789H48.8845C48.9031 60.4256 49.225 61.274 49.8565 61.9181C50.488 62.5622 51.2618 62.8904 52.1719 62.8904C52.9829 62.8904 53.6887 62.6427 54.2893 62.141C54.7474 61.7385 55.1065 61.2616 55.3541 60.7166ZM49.0083 57.8802H55.0817C54.9331 57.0689 54.5802 56.4125 54.023 55.9232C53.4659 55.434 52.8096 55.1862 52.0419 55.1862C51.2928 55.1862 50.6365 55.4402 50.0608 55.948C49.4912 56.4558 49.1383 57.0999 49.0083 57.8802Z" fill="#141721"/>
<path d="M66.4299 62.7295V70.0001H64.6345V53.8424H66.4299V55.2854C67.34 54.1583 68.5225 53.5947 69.965 53.5947C71.5066 53.5947 72.7324 54.1397 73.6363 55.2235C74.5402 56.3135 74.9921 57.5954 74.9921 59.0694C74.9921 60.5619 74.5464 61.8377 73.6487 62.8905C72.751 63.9433 71.5499 64.4697 70.0393 64.4697C68.5287 64.4697 67.3276 63.8938 66.4299 62.7295ZM69.7917 62.8843C70.8008 62.8843 71.618 62.5127 72.2309 61.7757C72.8439 61.0388 73.1534 60.1346 73.1534 59.0756C73.1534 57.8803 72.8129 56.9328 72.1319 56.2392C71.4509 55.5393 70.6646 55.1925 69.7669 55.1925C68.8692 55.1925 68.0767 55.5393 67.3772 56.2392C66.6776 56.939 66.3309 57.8741 66.3309 59.0508C66.3309 60.1284 66.6528 61.0388 67.2905 61.7757C67.9282 62.5127 68.764 62.8843 69.7917 62.8843Z" fill="#141721"/>
<path d="M82.7061 64.1787V53.8425H84.5015V58.0724H89.38V53.8425H91.1692V64.1725H89.38V59.7135H84.5015V64.1725H82.7061V64.1787Z" fill="#141721"/>
<path d="M107.198 60.7166L108.69 61.5403C108.343 62.203 107.916 62.7603 107.421 63.2062C106.474 64.0547 105.328 64.4758 103.985 64.4758C102.592 64.4758 101.391 64.0237 100.388 63.1195C99.3849 62.2154 98.8834 60.8653 98.8834 59.0755C98.8834 57.4963 99.3354 56.1895 100.239 55.1553C101.143 54.121 102.357 53.6008 103.886 53.6008C105.613 53.6008 106.913 54.2325 107.792 55.4959C108.492 56.493 108.814 57.7873 108.764 59.3789H100.728C100.747 60.4256 101.069 61.274 101.7 61.9181C102.332 62.5622 103.106 62.8904 104.016 62.8904C104.827 62.8904 105.533 62.6427 106.133 62.141C106.591 61.7385 106.95 61.2616 107.198 60.7166ZM100.852 57.8802H106.926C106.777 57.0689 106.424 56.4125 105.867 55.9232C105.31 55.434 104.653 55.1862 103.886 55.1862C103.137 55.1862 102.48 55.4402 101.905 55.948C101.335 56.4558 100.982 57.0999 100.852 57.8802Z" fill="#141721"/>
<path d="M123.251 55.4898H120.014V64.1786H118.218V55.4898H114.98V53.8486H123.245V55.4898H123.251Z" fill="#141721"/>
<path d="M140.029 59.8559V58.2148H144.536V53.9292H146.332V58.2148H150.839V59.8559H146.332V64.1353H144.536V59.8559H140.029Z" fill="#141721"/>
<path d="M175.869 55.4898H172.631V64.1786H170.836V55.4898H167.598V53.8486H175.863V55.4898H175.869Z" fill="#141721"/>
<path d="M182.735 53.8425H186.641C187.589 53.8425 188.307 54.0407 188.808 54.4433C189.409 54.9263 189.706 55.5704 189.706 56.3879C189.706 57.2859 189.335 57.9733 188.585 58.4563C189.099 58.5864 189.533 58.8217 189.879 59.1562C190.424 59.6888 190.703 60.3514 190.703 61.1503C190.703 62.1474 190.344 62.9277 189.632 63.4913C189.019 63.9558 188.202 64.1911 187.192 64.1911H182.735V53.8425V53.8425ZM184.53 58.0538H186.425C186.908 58.0538 187.285 57.9547 187.57 57.7565C187.904 57.5088 188.065 57.1496 188.065 56.6851C188.065 56.2702 187.898 55.9358 187.57 55.6881C187.322 55.5208 186.84 55.4403 186.128 55.4403H184.536V58.0538H184.53ZM184.53 62.5809H186.747C187.508 62.5809 188.047 62.4632 188.363 62.2341C188.759 61.9368 188.963 61.5529 188.963 61.0884C188.963 60.5929 188.79 60.2028 188.443 59.9179C188.127 59.6702 187.589 59.5463 186.827 59.5463H184.536V62.5809H184.53Z" fill="#141721"/>
</g>
<defs>
<linearGradient id="paint0_linear" x1="27.0415" y1="31.277" x2="27.0415" y2="6.03254" gradientUnits="userSpaceOnUse">
<stop offset="4.47534e-07" stop-color="#D7006C"/>
<stop offset="1" stop-color="#D4000F"/>
</linearGradient>
<clipPath id="clip0">
<rect width="199.147" height="70" fill="white"/>
</clipPath>
</defs>
</svg>
