<svg width="239" height="69" viewBox="0 0 239 69" fill="none" xmlns="http://www.w3.org/2000/svg">
<g clip-path="url(#clip0)">
<path d="M6.27576 58.1689C5.92752 58.5843 5.52 59.111 5.06062 59.749C4.60124 60.387 4.13444 61.0621 3.66765 61.7743C3.20086 62.4865 2.74888 63.1912 2.31914 63.896C1.88939 64.5934 1.51892 65.2165 1.20032 65.7506H0.133362V56.7148H1.25218V63.9479C1.53374 63.4509 1.88198 62.8648 2.2895 62.212C2.70443 61.5517 3.14158 60.8915 3.60838 60.2164C4.07517 59.5487 4.54196 58.9033 5.01616 58.2876C5.49037 57.6718 5.92752 57.1451 6.33504 56.7148H7.40199V65.7506H6.27576V58.1689Z" fill="#141721"/>
<path d="M28.0371 65.7506H26.9035V61.5369H21.9985V65.7506H20.8648V56.7148H21.9985V60.5799H26.9035V56.7148H28.0371V65.7506Z" fill="#141721"/>
<path d="M47.3239 56.7148V57.6718H44.3601V65.7432H43.2265V57.6793H40.2775V56.7223H47.3239V56.7148Z" fill="#141721"/>
<path d="M59.016 61.225C59.016 60.4313 59.1271 59.7413 59.3568 59.1553C59.5865 58.5692 59.8829 58.0722 60.2459 57.679C60.609 57.2858 61.0313 56.989 61.5055 56.7962C61.9797 56.6033 62.4613 56.5068 62.9652 56.5068C64.0692 56.5068 64.9509 56.8703 65.6103 57.5899C66.2698 58.3095 66.5958 59.4223 66.5958 60.9283C66.5958 61.0247 66.5958 61.1138 66.5884 61.2102C66.581 61.3067 66.5736 61.3883 66.5587 61.4699H60.2237C60.2608 62.5752 60.5349 63.4284 61.0462 64.0218C61.5574 64.6153 62.3724 64.9121 63.4913 64.9121C64.1062 64.9121 64.5953 64.8527 64.9583 64.734C65.3214 64.6153 65.5807 64.5189 65.7437 64.4373L65.9438 65.4165C65.7808 65.513 65.477 65.6168 65.025 65.7504C64.5804 65.8765 64.047 65.9433 63.4468 65.9433C62.654 65.9433 61.9797 65.8246 61.424 65.5946C60.8683 65.3646 60.4089 65.0382 60.0459 64.6153C59.6828 64.1925 59.4235 63.6954 59.2605 63.1242C59.0975 62.553 59.016 61.9076 59.016 61.225ZM65.4177 60.5054C65.3955 59.5633 65.1732 58.8288 64.7509 58.3021C64.3359 57.7754 63.7358 57.5158 62.9726 57.5158C62.5651 57.5158 62.202 57.5974 61.8834 57.7606C61.5648 57.9238 61.2833 58.1389 61.0462 58.4134C60.809 58.6879 60.6238 59.0069 60.4904 59.363C60.3571 59.7265 60.2756 60.1048 60.2533 60.498H65.4177V60.5054Z" fill="#141721"/>
<path d="M80.7255 68.9775H79.5919V57.0262C79.9327 56.9076 80.3625 56.7963 80.8811 56.6924C81.3998 56.5886 82.0666 56.5366 82.8668 56.5366C83.5337 56.5366 84.1338 56.6479 84.6747 56.863C85.2156 57.0782 85.6824 57.3898 86.0677 57.7978C86.4604 58.2058 86.7568 58.7028 86.9716 59.2815C87.1865 59.8676 87.2977 60.5204 87.2977 61.2548C87.2977 61.9448 87.2087 62.5753 87.0235 63.1466C86.8383 63.7178 86.5789 64.2223 86.2307 64.6303C85.8825 65.0457 85.4527 65.3647 84.9489 65.6021C84.445 65.8321 83.8671 65.9508 83.2151 65.9508C82.6223 65.9508 82.1037 65.8692 81.6739 65.6985C81.2368 65.5279 80.9182 65.3721 80.7255 65.2163V68.9775ZM80.7255 64.1258C80.8292 64.2074 80.9626 64.2964 81.1182 64.3855C81.2738 64.4819 81.459 64.5635 81.6665 64.6451C81.874 64.7267 82.1037 64.7935 82.3482 64.8454C82.5927 64.8973 82.852 64.927 83.1188 64.927C83.6745 64.927 84.1487 64.8306 84.5265 64.6377C84.9044 64.4448 85.2082 64.1852 85.4453 63.8513C85.675 63.5175 85.8454 63.1317 85.9491 62.6792C86.0529 62.2341 86.1047 61.7593 86.1047 61.2548C86.1047 60.0679 85.8084 59.1554 85.2156 58.5174C84.6229 57.8794 83.8375 57.5678 82.8594 57.5678C82.3037 57.5678 81.8517 57.5975 81.5035 57.6494C81.1627 57.7013 80.9033 57.7607 80.7255 57.8126V64.1258Z" fill="#141721"/>
<path d="M107.407 65.7506H106.273V61.5369H101.368V65.7506H100.234V56.7148H101.368V60.5799H106.273V56.7148H107.407V65.7506Z" fill="#141721"/>
<path d="M120.336 61.225C120.336 60.4313 120.447 59.7413 120.677 59.1553C120.907 58.5692 121.203 58.0722 121.566 57.679C121.929 57.2858 122.352 56.989 122.826 56.7962C123.3 56.6033 123.782 56.5068 124.286 56.5068C125.39 56.5068 126.271 56.8703 126.931 57.5899C127.59 58.3095 127.916 59.4223 127.916 60.9283C127.916 61.0247 127.916 61.1138 127.909 61.2102C127.901 61.3067 127.894 61.3883 127.879 61.4699H121.544C121.581 62.5752 121.855 63.4284 122.366 64.0218C122.878 64.6153 123.693 64.9121 124.812 64.9121C125.427 64.9121 125.916 64.8527 126.279 64.734C126.642 64.6153 126.901 64.5189 127.064 64.4373L127.272 65.4165C127.109 65.513 126.805 65.6168 126.353 65.7504C125.908 65.8765 125.375 65.9433 124.775 65.9433C123.982 65.9433 123.307 65.8246 122.752 65.5946C122.196 65.3646 121.737 65.0382 121.374 64.6153C121.011 64.1925 120.751 63.6954 120.588 63.1242C120.425 62.553 120.336 61.9076 120.336 61.225ZM126.738 60.5054C126.716 59.5633 126.494 58.8288 126.071 58.3021C125.649 57.7754 125.056 57.5158 124.293 57.5158C123.885 57.5158 123.522 57.5974 123.204 57.7606C122.885 57.9238 122.604 58.1389 122.366 58.4134C122.129 58.6879 121.944 59.0069 121.811 59.363C121.677 59.7191 121.596 60.1048 121.574 60.498H126.738V60.5054Z" fill="#141721"/>
<path d="M146.721 56.7148V57.6718H143.757V65.7432H142.624V57.6793H139.675V56.7223H146.721V56.7148Z" fill="#141721"/>
<path d="M172.876 60.2089H176.314V56.418H177.329V60.2089H180.767V61.1881H177.329V64.9938H176.314V61.1881H172.876V60.2089Z" fill="#141721"/>
<path d="M213.976 56.7148V57.6718H211.013V65.7432H209.879V57.6793H206.93V56.7223H213.976V56.7148Z" fill="#141721"/>
<path d="M229.121 56.522C229.469 56.522 229.862 56.5442 230.299 56.5813C230.736 56.6184 231.144 56.7223 231.529 56.8781C231.915 57.0338 232.233 57.2787 232.5 57.6125C232.759 57.9463 232.893 58.3914 232.893 58.9627C232.893 59.4078 232.767 59.801 232.507 60.1422C232.248 60.4835 231.9 60.7357 231.463 60.8989C232.115 61.077 232.589 61.3515 232.878 61.7372C233.167 62.123 233.315 62.5978 233.315 63.1542C233.315 63.7625 233.189 64.2447 232.945 64.6156C232.7 64.9865 232.381 65.261 231.974 65.4539C231.566 65.6468 231.122 65.7729 230.611 65.8323C230.107 65.8916 229.588 65.9213 229.069 65.9213C228.44 65.9213 227.891 65.8768 227.417 65.7952C226.943 65.7136 226.543 65.6245 226.202 65.5355V56.9077C226.491 56.8113 226.876 56.7297 227.35 56.6481C227.839 56.5665 228.425 56.522 229.121 56.522ZM227.343 60.4909H229.403C230.099 60.4909 230.662 60.3722 231.092 60.1422C231.522 59.9123 231.737 59.5265 231.737 58.9775C231.737 58.6288 231.663 58.3618 231.507 58.1615C231.359 57.9686 231.159 57.8202 230.914 57.7164C230.67 57.6199 230.388 57.5532 230.077 57.5235C229.766 57.4938 229.447 57.479 229.136 57.479C228.751 57.479 228.388 57.5012 228.039 57.5383C227.691 57.5754 227.454 57.6199 227.343 57.6496V60.4909ZM227.343 61.4331V64.7714C227.402 64.7937 227.499 64.8159 227.632 64.8308C227.765 64.8456 227.913 64.8678 228.084 64.8827C228.254 64.8975 228.432 64.9124 228.625 64.9272C228.817 64.942 229.003 64.942 229.173 64.942C229.566 64.942 229.944 64.9198 230.307 64.8753C230.67 64.8308 230.981 64.7417 231.248 64.6008C231.514 64.4598 231.729 64.2818 231.892 64.0592C232.055 63.8367 232.137 63.5325 232.137 63.1542C232.137 62.8277 232.07 62.5533 231.937 62.3307C231.803 62.1081 231.618 61.9301 231.381 61.804C231.144 61.6779 230.862 61.5814 230.544 61.5221C230.225 61.4627 229.877 61.4331 229.507 61.4331H227.343Z" fill="#141721"/>
<path d="M74.5758 25.646H84.9786C85.1934 28.3686 86.9569 29.7633 90.2096 29.7633C93.04 29.7633 94.4256 28.9621 94.4256 27.3077C94.4256 25.8092 92.714 25.0673 89.0389 24.2068C84.9267 23.1904 82.0519 22.2334 80.3921 21.3209C76.8134 19.2883 75.0055 16.1354 75.0055 11.9142C75.0055 8.33104 76.2873 5.45264 78.851 3.25675C81.4591 1.06827 84.8748 0 89.1945 0C98.1599 0 103.547 4.70337 104.139 12.6635H93.8921C93.7291 10.2599 92.7214 8.44232 89.0389 8.44232C86.6383 8.44232 85.3565 9.5106 85.3565 10.8459C85.3565 11.9142 85.8899 12.7154 87.3348 13.3608C88.7722 13.9469 89.6317 14.162 91.9212 14.6442C93.2549 14.9113 94.2181 15.1784 94.9072 15.3935C95.6037 15.5567 96.5595 15.8757 97.7894 16.2986C98.9601 16.6695 99.9234 17.0998 100.672 17.6859C102.857 19.2883 105.258 21.9589 104.991 26.1801C104.991 29.652 103.658 32.5378 101.042 34.7263C98.4267 36.9148 94.7442 37.983 89.9429 37.983C80.3921 37.9905 75.1611 33.6061 74.5758 25.646Z" fill="#141721"/>
<path d="M116.728 37.2935V9.99321H106.584V0.697754H137.378V9.99321H127.242V37.2935H116.728Z" fill="#141721"/>
<path d="M159.258 31.9522H146.455L144.802 37.2936H134.185L146.462 0.69043H159.91L172.128 37.2936H160.918L159.258 31.9522ZM152.856 11.0096L149.011 23.458H156.642L152.856 11.0096Z" fill="#141721"/>
<path d="M186.095 37.2935H175.581V0.697754H192.126C195.964 0.697754 199.113 1.81796 201.521 4.01385C203.922 6.20233 205.1 9.30328 205.1 13.3612C205.1 18.4875 202.218 22.7086 197.305 24.6374L207.656 37.3009H194.312L186.095 26.0247V37.2935ZM186.095 9.99321V17.523H189.614C192.763 17.523 194.364 16.2916 194.364 13.836C194.364 11.2692 192.763 9.98579 189.614 9.98579H186.095V9.99321Z" fill="#141721"/>
<path d="M217.681 37.2935V9.99321H207.538V0.697754H238.331V9.99321H228.195V37.2935H217.681Z" fill="#141721"/>
<path d="M9.8397 10.5268C11.7143 8.3087 14.3891 7.22559 17.9752 7.22559C21.391 7.22559 24.1176 8.3087 26.1626 10.5268C28.2669 12.6337 29.2894 15.5418 29.2894 19.125V37.293H19.2793V21.5212C19.2793 18.5611 17.6863 16.4543 14.7818 16.4543C11.9958 16.4543 10.0027 18.4499 10.0027 21.8624V37.293H0V7.79682H9.8397V10.5268ZM54.7185 35.3048C52.5031 36.7292 50.058 37.4711 47.435 37.4711C43.3969 37.4711 39.9812 36.0467 37.1434 33.146C34.2982 30.238 32.8756 26.7141 32.8756 22.5004C32.8756 18.346 34.2982 14.8148 37.1434 11.9067C39.9886 8.99862 43.3969 7.58168 47.435 7.58168C50.0506 7.58168 52.4957 8.32353 54.7185 9.7479V7.81165H64.7286V37.3079H54.7185V35.3048ZM48.7984 16.5062C47.1461 16.5062 45.6716 17.1294 44.4787 18.3312C43.2858 19.5256 42.7153 20.9499 42.7153 22.6562C42.7153 24.4218 43.2858 25.8462 44.4787 27.0406C45.6716 28.235 47.0942 28.8062 48.7984 28.8062C52.1548 28.8062 54.8296 26.0762 54.8296 22.6562C54.8296 19.2437 52.1548 16.5062 48.7984 16.5062Z" fill="url(#paint0_linear)"/>
</g>
<defs>
<linearGradient id="paint0_linear" x1="32.3631" y1="37.4659" x2="32.3631" y2="7.22596" gradientUnits="userSpaceOnUse">
<stop offset="4.47534e-07" stop-color="#D7006C"/>
<stop offset="1" stop-color="#D4000F"/>
</linearGradient>
<clipPath id="clip0">
<rect width="238.339" height="68.9778" fill="white"/>
</clipPath>
</defs>
</svg>
