<svg width="64" height="51" viewBox="0 0 64 51" fill="none" xmlns="http://www.w3.org/2000/svg">
<g clip-path="url(#clip0)">
<path d="M40.632 35.8727H23.511V4.70361H40.632V35.8727Z" fill="#6C6BBD"/>
<path d="M24.5968 20.2907C24.5968 13.9667 27.5204 8.33673 32.0715 4.70619C28.7422 2.05031 24.5424 0.466797 19.9789 0.466797C9.1725 0.466797 0.411621 9.34146 0.411621 20.2907C0.411621 31.24 9.1725 40.1146 19.9789 40.1146C24.5424 40.1146 28.7447 38.5311 32.0715 35.8752C27.5204 32.2447 24.5968 26.6122 24.5968 20.2907Z" fill="#D32011"/>
<path d="M63.7314 20.2907C63.7314 31.24 54.9705 40.1146 44.1641 40.1146C39.6007 40.1146 35.3983 38.5311 32.0691 35.8752C36.6202 32.2447 39.5438 26.6122 39.5438 20.2907C39.5438 13.9692 36.6227 8.33423 32.0716 4.70619C35.4008 2.05031 39.6007 0.466797 44.1641 0.466797C54.9705 0.466797 63.7314 9.34146 63.7314 20.2907Z" fill="#0099DF"/>
<path d="M46.4249 44.6825C46.6524 44.6825 46.9789 44.7276 47.2287 44.8253L46.88 45.9052C46.6401 45.805 46.4026 45.7724 46.1726 45.7724C45.433 45.7724 45.0645 46.256 45.0645 47.1254V50.0769H43.9341V44.8128H45.0546V45.4517C45.3489 44.9907 45.7744 44.6825 46.4249 44.6825ZM42.2473 45.8601H40.3996V48.2379C40.3996 48.7665 40.5826 49.1198 41.149 49.1198C41.4434 49.1198 41.8119 49.0196 42.1483 48.8216L42.4748 49.8013C42.1162 50.0544 41.5522 50.2097 41.0625 50.2097C39.7244 50.2097 39.2594 49.4831 39.2594 48.2604V45.8601H38.2032V44.8153H39.2594V43.2192H40.3996V44.8153H42.2473V45.8601ZM27.7802 46.9826C27.9014 46.2234 28.3565 45.7047 29.1604 45.7047C29.8875 45.7047 30.355 46.1683 30.4762 46.9826H27.7802ZM31.6511 47.4461C31.6387 45.805 30.6395 44.6825 29.1826 44.6825C27.6615 44.6825 26.5954 45.805 26.5954 47.4461C26.5954 49.1173 27.7035 50.2097 29.2593 50.2097C30.0409 50.2097 30.7582 50.0118 31.3889 49.4731L30.8349 48.6237C30.3995 48.977 29.8455 49.1749 29.3236 49.1749C28.5964 49.1749 27.9335 48.8342 27.7703 47.8871H31.6288C31.6387 47.7418 31.6511 47.5989 31.6511 47.4461ZM36.6177 46.1582C36.3036 45.9603 35.663 45.7047 35.0001 45.7047C34.3818 45.7047 34.0107 45.9378 34.0107 46.3211C34.0107 46.6719 34.4015 46.7721 34.8913 46.8373L35.4231 46.9149C36.5534 47.0803 37.2386 47.5664 37.2386 48.4909C37.2386 49.4931 36.3679 50.2097 34.869 50.2097C34.0206 50.2097 33.239 49.9892 32.6182 49.5257L33.15 48.6337C33.5309 48.9319 34.0973 49.185 34.8789 49.185C35.6506 49.185 36.0637 48.9544 36.0637 48.546C36.0637 48.2504 35.7694 48.0825 35.151 47.9973L34.6192 47.9196C33.4567 47.7543 32.826 47.2256 32.826 46.3662C32.826 45.3214 33.6744 44.68 34.9902 44.68C35.8163 44.68 36.5658 44.8679 37.1099 45.2312L36.6177 46.1582ZM50.558 45.7699C50.3255 45.7699 50.1103 45.8125 49.9099 45.8927C49.712 45.9753 49.5389 46.0906 49.393 46.2409C49.247 46.3913 49.1333 46.5692 49.0492 46.7771C48.9651 46.9851 48.9255 47.2156 48.9255 47.4636C48.9255 47.7142 48.9675 47.9422 49.0492 48.1502C49.1333 48.3581 49.247 48.536 49.393 48.6863C49.5389 48.8367 49.712 48.9519 49.9099 49.0346C50.1103 49.1173 50.3255 49.1574 50.558 49.1574C50.7905 49.1574 51.0081 49.1173 51.206 49.0346C51.4063 48.9519 51.5795 48.8367 51.7254 48.6863C51.8738 48.5385 51.9876 48.3581 52.0717 48.1502C52.1558 47.9422 52.1954 47.7142 52.1954 47.4636C52.1954 47.2131 52.1533 46.9851 52.0717 46.7771C51.9876 46.5692 51.8738 46.3913 51.7254 46.2409C51.5795 46.0931 51.4063 45.9753 51.206 45.8927C51.0056 45.81 50.7905 45.7699 50.558 45.7699ZM50.558 44.6825C50.9611 44.6825 51.3346 44.7526 51.6784 44.8955C52.0222 45.0358 52.319 45.2312 52.5689 45.4792C52.8211 45.7273 53.0165 46.0204 53.1575 46.3587C53.2985 46.6969 53.3702 47.0653 53.3702 47.4636C53.3702 47.862 53.2985 48.2278 53.1575 48.5686C53.0165 48.9068 52.8211 49.2025 52.5689 49.4505C52.319 49.6986 52.0222 49.894 51.6784 50.0343C51.3346 50.1746 50.9611 50.2473 50.558 50.2473C50.1548 50.2473 49.7813 50.1772 49.4375 50.0343C49.0937 49.8915 48.7994 49.6986 48.5495 49.4505C48.2997 49.2025 48.1043 48.9068 47.9633 48.5686C47.8224 48.2303 47.7506 47.862 47.7506 47.4636C47.7506 47.0653 47.8224 46.6994 47.9633 46.3587C48.1043 46.0204 48.2997 45.7273 48.5495 45.4792C48.7994 45.2312 49.0937 45.0358 49.4375 44.8955C49.7813 44.7526 50.1548 44.6825 50.558 44.6825ZM21.1761 47.4461C21.1761 46.5216 21.7747 45.7599 22.7517 45.7599C23.6867 45.7599 24.3174 46.4865 24.3174 47.4461C24.3174 48.4032 23.6867 49.1298 22.7517 49.1298C21.7747 49.1298 21.1761 48.3706 21.1761 47.4461ZM25.3834 47.4461V44.8153H24.2531V45.4542C23.8944 44.9806 23.3503 44.6825 22.6132 44.6825C21.1564 44.6825 20.0161 45.8375 20.0161 47.4461C20.0161 49.0522 21.1564 50.2097 22.6132 50.2097C23.3528 50.2097 23.8944 49.9116 24.2531 49.438V50.0769H25.3834V47.4461ZM19.0144 50.0769V46.7746C19.0144 45.5319 18.2328 44.695 16.9713 44.6825C16.3084 44.67 15.6233 44.8804 15.1459 45.6196C14.7873 45.0358 14.2209 44.6825 13.4269 44.6825C12.8729 44.6825 12.3287 44.8478 11.9057 45.4642V44.8153H10.7754V50.0769H11.9156V47.1605C11.9156 46.2459 12.4153 45.7624 13.187 45.7624C13.9364 45.7624 14.3173 46.2585 14.3173 47.1504V50.0769H15.4576V47.1605C15.4576 46.2459 15.9795 45.7624 16.7289 45.7624C17.5006 45.7624 17.8716 46.2585 17.8716 47.1504V50.0769H19.0144Z" fill="#110F0D"/>
</g>
<defs>
<clipPath id="clip0">
<rect width="63.3197" height="49.7778" fill="white" transform="translate(0.411621 0.466797)"/>
</clipPath>
</defs>
</svg>
