<svg width="65" height="51" viewBox="0 0 65 51" fill="none" xmlns="http://www.w3.org/2000/svg">
<g clip-path="url(#clip0)">
<path d="M11.8429 50.1343V46.8308C11.8429 45.5641 11.0742 44.7389 9.7548 44.7389C9.09634 44.7389 8.38029 44.9596 7.88706 45.6745C7.5015 45.07 6.9532 44.7389 6.12949 44.7389C5.57868 44.7389 5.03038 44.9045 4.58974 45.509V44.8493H3.43555V50.1343H4.58974V47.2171C4.58974 46.2815 5.08546 45.8401 5.85409 45.8401C6.62271 45.8401 7.00828 46.3367 7.00828 47.2171V50.1343H8.16247V47.2171C8.16247 46.2815 8.71327 45.8401 9.42682 45.8401C10.1954 45.8401 10.581 46.3367 10.581 47.2171V50.1343H11.8429ZM28.9354 44.8493H27.0676V43.2515H25.9135V44.8493H24.8694V45.8952H25.9135V48.3183C25.9135 49.5298 26.4092 50.2447 27.7261 50.2447C28.2218 50.2447 28.7701 50.0791 29.1557 49.8584L28.8252 48.8676C28.4947 49.0883 28.1117 49.1435 27.8363 49.1435C27.2855 49.1435 27.0676 48.8124 27.0676 48.2631V45.8952H28.9354V44.8493ZM38.7197 44.7389C38.0612 44.7389 37.6206 45.07 37.3452 45.509V44.8493H36.191V50.1343H37.3452V47.1619C37.3452 46.2815 37.7308 45.7849 38.4443 45.7849C38.6646 45.7849 38.94 45.8401 39.1578 45.8952L39.4883 44.7941C39.268 44.7389 38.9375 44.7389 38.7197 44.7389ZM23.9331 45.2882C23.3823 44.9019 22.6136 44.7364 21.7899 44.7364C20.4705 44.7364 19.5917 45.3961 19.5917 46.4446C19.5917 47.325 20.2502 47.8216 21.4044 47.9872L21.9552 48.0424C22.5585 48.1527 22.889 48.3183 22.889 48.5942C22.889 48.9805 22.4484 49.2539 21.6798 49.2539C20.9111 49.2539 20.3052 48.978 19.9222 48.7021L19.3714 49.5825C19.9748 50.0239 20.801 50.2422 21.6247 50.2422C23.1644 50.2422 24.0432 49.5273 24.0432 48.534C24.0432 47.5984 23.3297 47.1017 22.2306 46.9362L21.6798 46.881C21.184 46.8258 20.801 46.7155 20.801 46.3844C20.801 45.9981 21.1865 45.7799 21.7899 45.7799C22.4484 45.7799 23.1094 46.0558 23.4398 46.2213L23.9331 45.2882ZM54.603 44.7389C53.9445 44.7389 53.5038 45.07 53.2284 45.509V44.8493H52.0743V50.1343H53.2284V47.1619C53.2284 46.2815 53.614 45.7849 54.3276 45.7849C54.5479 45.7849 54.8233 45.8401 55.0411 45.8952L55.3716 44.7941C55.1513 44.7389 54.8233 44.7389 54.603 44.7389ZM39.8739 47.4905C39.8739 49.0883 40.973 50.2447 42.678 50.2447C43.4466 50.2447 43.9974 50.0791 44.5457 49.6402L43.9949 48.7046C43.5543 49.0357 43.1161 49.2012 42.6204 49.2012C41.6866 49.2012 41.0256 48.5415 41.0256 47.493C41.0256 46.5023 41.684 45.8401 42.6204 45.7849C43.1161 45.7849 43.5543 45.9504 43.9949 46.2815L44.5457 45.3459C43.9949 44.9044 43.4466 44.7414 42.678 44.7414C40.973 44.7389 39.8739 45.8952 39.8739 47.4905ZM50.5345 47.4905V44.8468H49.3803V45.5064C48.9948 45.0098 48.4464 44.7364 47.7304 44.7364C46.2457 44.7364 45.0915 45.8927 45.0915 47.4905C45.0915 49.0883 46.2457 50.2447 47.7304 50.2447C48.499 50.2447 49.0498 49.9688 49.3803 49.4746V50.1343H50.5345V47.4905ZM46.3033 47.4905C46.3033 46.5549 46.9067 45.7824 47.8981 45.7824C48.832 45.7824 49.493 46.4972 49.493 47.4905C49.493 48.4261 48.8345 49.1987 47.8981 49.1987C46.9092 49.1435 46.3033 48.4286 46.3033 47.4905ZM32.5081 44.7389C30.9684 44.7389 29.8692 45.8401 29.8692 47.493C29.8692 49.146 30.9684 50.2472 32.5632 50.2472C33.3318 50.2472 34.1029 50.0264 34.7063 49.5323L34.1555 48.7071C33.7149 49.0382 33.1666 49.2589 32.6158 49.2589C31.9022 49.2589 31.1862 48.9278 31.0209 47.9922H34.9241V47.5507C34.9817 45.8401 33.9928 44.7389 32.5081 44.7389ZM32.5081 45.7297C33.2217 45.7297 33.7174 46.1712 33.8275 46.9964H31.0785C31.1887 46.279 31.6844 45.7297 32.5081 45.7297ZM61.1425 47.4905V42.7573H59.9883V45.5115C59.6028 45.0148 59.0545 44.7414 58.3384 44.7414C56.8538 44.7414 55.6996 45.8977 55.6996 47.4956C55.6996 49.0934 56.8538 50.2497 58.3384 50.2497C59.1071 50.2497 59.6579 49.9738 59.9883 49.4796V50.1393H61.1425V47.4905ZM56.9113 47.4905C56.9113 46.5549 57.5147 45.7824 58.5062 45.7824C59.44 45.7824 60.101 46.4972 60.101 47.4905C60.101 48.4261 59.4425 49.1987 58.5062 49.1987C57.5147 49.1435 56.9113 48.4286 56.9113 47.4905ZM18.3274 47.4905V44.8468H17.1732V45.5064C16.7876 45.0098 16.2393 44.7364 15.5232 44.7364C14.0386 44.7364 12.8844 45.8927 12.8844 47.4905C12.8844 49.0883 14.0386 50.2447 15.5232 50.2447C16.2919 50.2447 16.8427 49.9688 17.1732 49.4746V50.1343H18.3274V47.4905ZM14.0411 47.4905C14.0411 46.5549 14.6445 45.7824 15.6359 45.7824C16.5698 45.7824 17.2307 46.4972 17.2307 47.4905C17.2307 48.4261 16.5723 49.1987 15.6359 49.1987C14.647 49.1435 14.0411 48.4286 14.0411 47.4905Z" fill="black"/>
<path d="M40.8626 4.70557H23.5498V35.8716H40.8626V4.70557Z" fill="#FF5F00"/>
<path d="M24.649 20.2901C24.649 13.9566 27.6158 8.34044 32.1775 4.70587C28.8251 2.0646 24.5939 0.466797 19.9771 0.466797C9.03863 0.466797 0.190674 9.33123 0.190674 20.2901C0.190674 31.249 9.03863 40.1134 19.9771 40.1134C24.5939 40.1134 28.8251 38.5156 32.1775 35.8744C27.6158 32.295 24.649 26.6211 24.649 20.2901Z" fill="#EB001B"/>
<path d="M64.222 20.2901C64.222 31.249 55.3741 40.1134 44.4355 40.1134C39.8188 40.1134 35.5876 38.5156 32.2352 35.8744C36.8519 32.2398 39.7637 26.6237 39.7637 20.2901C39.7637 13.9566 36.7943 8.34044 32.2327 4.70587C35.5851 2.0646 39.8188 0.466797 44.4355 0.466797C55.3715 0.466797 64.222 9.38641 64.222 20.2901Z" fill="#F79E1B"/>
</g>
<defs>
<clipPath id="clip0">
<rect width="64.0312" height="49.7778" fill="white" transform="translate(0.190674 0.466797)"/>
</clipPath>
</defs>
</svg>
