<svg width="36" height="36" viewBox="0 0 36 36" fill="none" xmlns="http://www.w3.org/2000/svg">
<path d="M30.7257 5.26977C23.6952 -1.75867 12.2982 -1.75656 5.26977 5.27399C-1.75867 12.3045 -1.75656 23.7015 5.27399 30.7299C12.3045 37.7584 23.7015 37.7563 30.7299 30.7264C34.1056 27.35 36.0013 22.7705 35.9999 17.9963C35.9992 13.2228 34.1021 8.64477 30.7257 5.26977ZM27.26 25.074C27.2593 25.0747 27.2586 25.0754 27.2579 25.0761V25.0705L26.3459 25.9768C25.1668 27.1714 23.4484 27.6629 21.8157 27.2727C20.1711 26.8325 18.6066 26.1315 17.1835 25.197C15.8609 24.3519 14.6361 23.364 13.5294 22.2509C12.5113 21.2405 11.5972 20.131 10.7991 18.9392C9.92657 17.6567 9.2361 16.2596 8.74743 14.7873C8.18703 13.0576 8.6511 11.1605 9.94766 9.88508L11.0157 8.81703C11.3124 8.51891 11.7955 8.5175 12.0936 8.81492C12.0943 8.81563 12.095 8.81633 12.0957 8.81703L15.4679 12.1892C15.766 12.4859 15.7674 12.969 15.47 13.2671C15.4693 13.2678 15.4686 13.2685 15.4679 13.2692L13.4879 15.2492C12.9198 15.811 12.8481 16.704 13.3198 17.3495C14.0356 18.3324 14.8288 19.257 15.6901 20.1155C16.6506 21.0802 17.6947 21.9577 18.8099 22.7375C19.4546 23.1868 20.3286 23.1116 20.8855 22.5575L22.7994 20.6134C23.0961 20.3152 23.5784 20.3138 23.8773 20.6113C23.878 20.612 23.8787 20.6127 23.8794 20.6134L27.2572 23.9975C27.556 24.2928 27.5574 24.7752 27.26 25.074Z" fill="#D70040"/>
</svg>
