<svg width="80" height="41" viewBox="0 0 80 41" fill="none" xmlns="http://www.w3.org/2000/svg">
<g clip-path="url(#clip0)">
<path d="M72.884 29.1268C72.884 28.4856 72.4505 28.0972 71.8998 28.0972C71.2795 28.0972 70.8238 28.5077 70.7099 29.1268H72.884ZM62.0608 29.1268C62.0608 28.4856 61.624 28.0972 61.0766 28.0972C60.4594 28.0972 60.0006 28.5077 59.8866 29.1268H62.0608ZM47.4336 31.2586C48.2342 31.2586 48.8988 30.6396 48.8988 29.7237C48.8988 28.8299 48.2374 28.1888 47.4336 28.1888C46.6329 28.1888 45.9905 28.8078 45.9905 29.7237C45.9905 30.6396 46.6329 31.2586 47.4336 31.2586ZM75.1278 27.2981H76.343V29.1741H76.938L78.1279 27.2981H79.4793L77.9222 29.6321V29.6542L79.6628 32.1934H78.2419L76.9602 30.2006H76.3177V32.1934H75.1056V27.2981H75.1278ZM71.9473 27.1844C73.3429 27.1844 74.1246 28.214 74.1246 29.4963C74.1214 29.6573 74.1024 29.8184 74.0771 29.9763H70.713C70.7827 30.8227 71.4441 31.2807 72.1783 31.2807C72.6815 31.2807 73.1847 31.0501 73.5739 30.7533L74.055 31.6249C73.5518 32.0608 72.7954 32.3324 72.0834 32.3324C70.4599 32.3324 69.4503 31.167 69.4503 29.771C69.4503 28.2361 70.482 27.1844 71.9473 27.1844ZM63.8678 31.1638C64.4628 31.0722 64.8963 30.5701 64.8963 28.8299V27.2981H68.4693V32.1934H67.2572V28.2772H66.0673V28.8267C66.0673 30.9554 65.4945 32.1934 63.871 32.2345V31.1638H63.8678ZM61.1209 27.1844C62.5165 27.1844 63.295 28.214 63.295 29.4963C63.2918 29.6573 63.2792 29.8184 63.2507 29.9763H59.8835C59.9531 30.8227 60.6177 31.2807 61.3487 31.2807C61.8519 31.2807 62.3551 31.0501 62.7444 30.7533L63.2254 31.6249C62.7222 32.0608 61.969 32.3324 61.2569 32.3324C59.6303 32.3324 58.6239 31.167 58.6239 29.771C58.6271 28.2361 59.6556 27.1844 61.1209 27.1844ZM51.0951 27.2981H52.2629V31.1417H53.7978V27.3013H54.9655V31.1417H56.4972V27.3013H57.665V32.1966H51.1394V27.2981H51.0951ZM47.4336 27.1844C48.9178 27.1844 50.1362 28.2614 50.1362 29.7458C50.1362 31.2586 48.9463 32.3071 47.4557 32.3071C45.9683 32.3071 44.7784 31.2554 44.7784 29.7458C44.7531 28.2361 45.9461 27.1844 47.4336 27.1844ZM39.468 25.3779H40.7054V28.1445H41.5979L43.2024 25.3779H44.5537L42.6327 28.6278V28.6499L44.6676 32.1966H43.2751L41.6263 29.2184H40.7339V32.1966H39.4965V25.3779H39.468Z" fill="#2D3540"/>
<path d="M46.4743 19.4281L45.2148 17.8964C45.0787 17.7353 45.1926 17.4858 45.3983 17.4858H48.0535C48.1896 17.1195 48.2592 16.7057 48.2592 16.2952C48.2592 14.3971 46.8414 12.7485 44.8951 12.7485C42.952 12.7485 41.531 14.3971 41.531 16.2952C41.531 18.1933 42.952 19.8198 44.8951 19.8198C45.4426 19.8387 45.9933 19.6808 46.4743 19.4281ZM16.6059 36.7921C7.90617 36.7921 0.855225 29.7461 0.855225 21.0515C0.855225 12.3568 7.90617 5.31396 16.6027 5.31396C25.2993 5.31396 32.3503 12.36 32.3503 21.0515C32.3503 24.0013 31.5274 26.7742 30.1287 29.1271C30.0843 29.1966 29.9673 29.1745 29.9451 29.0829C29.4008 25.2172 27.0399 23.0885 23.6094 22.4474C23.3119 22.4032 23.2644 22.2169 23.6537 22.1758C24.7044 22.0842 26.1949 22.1063 26.9735 22.2421C27.0178 21.8537 27.0399 21.4399 27.0399 21.0294C27.0399 15.2845 22.372 10.6166 16.6249 10.6166C10.881 10.6166 6.20989 15.2845 6.20989 21.0294C6.20989 26.771 10.881 31.4389 16.6249 31.4389H17.1028C16.9382 30.5104 16.8717 29.5692 16.8971 28.6249C16.9192 27.9838 17.0585 27.8891 17.3338 28.3944C18.7769 30.8862 20.8339 33.1317 24.8626 34.0224C28.1602 34.7551 31.4547 35.6015 35.0023 40.1083C35.3219 40.4967 34.844 40.9073 34.4738 40.5883C30.8597 37.3859 27.5621 36.331 24.5651 36.331C21.2042 36.3595 18.9161 36.7921 16.6059 36.7921ZM24.6158 30.1819C24.9829 30.1819 25.3943 30.343 25.7614 30.662C26.4703 31.2589 26.676 31.9442 26.312 32.4464C26.1063 32.6959 25.7614 32.8601 25.3721 32.8601C24.9829 32.8601 24.5714 32.7212 24.2961 32.4685C23.6537 31.919 23.4733 31.0031 23.8847 30.5041C24.0429 30.2956 24.293 30.1819 24.6158 30.1819ZM28.0938 27.5953C28.6887 27.8227 28.9166 28.7165 28.964 29.105C29.0558 29.8124 28.8501 30.0903 28.6223 30.0903C28.3944 30.0903 28.0716 29.8124 27.7298 29.266C27.3849 28.7165 27.2488 28.1007 27.4323 27.7785C27.5431 27.5732 27.7963 27.4816 28.0938 27.5953ZM52.1961 21.9926C52.3321 22.1537 52.2214 22.3779 52.0125 22.3779H49.1295C49.0092 22.3811 48.9079 22.3369 48.832 22.2421L48.3541 21.6484C47.3478 22.2863 46.1578 22.678 44.8983 22.678C41.3728 22.678 38.5119 19.8166 38.5119 16.2952C38.5119 12.7737 41.3728 9.91236 44.8983 9.91236C48.4238 9.91236 51.2846 12.7737 51.2846 16.2952C51.2846 17.5521 50.9175 18.7428 50.2751 19.7503L52.1961 21.9926ZM78.9504 10.2092C79.1118 10.2092 79.2479 10.3482 79.27 10.5282V22.0811C79.2732 22.299 79.1688 22.4064 78.9504 22.4H76.5927C76.3743 22.4064 76.2667 22.299 76.2731 22.0811V10.5282C76.2667 10.3103 76.3712 10.2029 76.5927 10.2092H78.9504ZM74.966 10.2092C75.0578 10.2092 75.1749 10.2535 75.2857 10.3482C75.3553 10.4145 75.3553 10.5314 75.3332 10.623L71.4406 22.1979C71.3868 22.3306 71.2887 22.4 71.1431 22.4064H69.0354C68.8993 22.4064 68.7854 22.3369 68.7379 22.1979L66.472 15.4488L64.2061 22.1979C64.1523 22.3306 64.0542 22.4 63.9086 22.4032H61.8009C61.6648 22.4032 61.5509 22.3369 61.5034 22.1979L57.6109 10.6198C57.5887 10.5282 57.5887 10.4366 57.6583 10.3482C57.7026 10.2566 57.8197 10.2092 57.9083 10.2092H60.5414C60.6774 10.2092 60.7914 10.3008 60.8388 10.4366L62.9212 17.2774L65.2093 10.4366C65.2631 10.3008 65.3644 10.2313 65.5068 10.2313H67.3613C67.5005 10.2313 67.6113 10.3008 67.6588 10.4366L69.9468 17.2774L72.0292 10.4366C72.0735 10.2882 72.1716 10.2092 72.3267 10.2092H74.966ZM56.5665 10.5282V22.0811C56.5697 22.299 56.4684 22.4064 56.2469 22.4H53.8923C53.6708 22.4064 53.5664 22.299 53.5727 22.0811V10.5282C53.5664 10.3103 53.674 10.2029 53.8923 10.2092H56.2469C56.4652 10.2029 56.5697 10.3103 56.5665 10.5282Z" fill="#FF8C00"/>
</g>
<defs>
<clipPath id="clip0">
<rect width="78.9718" height="39.8222" fill="white" transform="translate(0.760498 0.977539)"/>
</clipPath>
</defs>
</svg>
