<svg width="107" height="45" viewBox="0 0 107 45" fill="none" xmlns="http://www.w3.org/2000/svg">
<path d="M40.3878 5.21629C41.8026 6.63296 43.2216 8.04369 44.6263 9.46967C44.8683 9.71538 45.1044 9.79927 45.4471 9.76368C53.0135 8.98587 60.5884 8.30889 68.1861 7.93439C71.152 7.78781 74.1254 7.60988 77.0963 7.85644C81.8061 8.24619 86.3263 9.40274 90.6663 11.2744C93.4908 12.4919 96.1918 13.94 98.7472 15.6464C101.526 17.5019 104.191 19.51 106.563 21.8824C106.825 22.1442 106.841 22.284 106.568 22.5484C104.528 24.5243 102.312 26.2748 99.9869 27.9015C97.7784 29.4461 95.4734 30.8162 93.066 32.0219C89.2295 33.9435 85.2026 35.3043 80.9844 36.0719C77.8257 36.6472 74.6348 36.7989 71.4304 36.6023C66.2577 36.2846 61.0826 35.9906 55.9142 35.6135C52.4313 35.3594 48.9578 34.9849 45.4809 34.6527C45.1957 34.6256 45.0087 34.7069 44.8158 34.9061C41.9769 37.8283 39.1262 40.7388 36.2924 43.6661C35.8811 44.0915 35.4471 44.2415 34.8598 44.1661C31.3541 43.717 27.8451 43.2933 24.3377 42.8612C24.2539 42.8511 24.1693 42.8434 24.0864 42.8282C23.632 42.7451 23.5025 42.4935 23.7454 42.1131C24.5188 40.9031 25.304 39.7 26.0842 38.4943C27.2553 36.6854 28.4289 34.8789 29.5882 33.0624C29.6466 32.9717 29.6043 32.7878 29.5586 32.6667C29.5162 32.554 29.3733 32.4794 29.3318 32.3667C29.0669 31.6542 28.4619 31.3983 27.8146 31.1636C26.8373 30.8086 25.887 30.3722 24.8979 30.0562C24.1042 29.802 23.6515 29.2708 23.4907 28.5226C23.2284 27.3008 22.9551 26.068 22.8611 24.8267C22.6623 22.2078 22.6657 19.5812 23.1911 16.9893C23.3155 16.3767 23.5347 15.7667 23.8148 15.2083C23.9612 14.916 24.2988 14.6551 24.611 14.522C25.788 14.0221 26.9862 13.5722 28.1844 13.1223C28.6202 12.9588 28.8935 12.6648 29.1989 12.3149C29.7312 11.704 29.5289 11.2803 29.1575 10.7186C27.4567 8.14621 25.7923 5.54928 24.1143 2.96166C24.0221 2.82017 23.9146 2.68714 23.8317 2.54141C23.5161 1.98983 23.6176 1.78309 24.2429 1.7026C25.0527 1.59838 25.8633 1.4984 26.674 1.39842C29.402 1.06205 32.1284 0.735843 34.8513 0.382525C35.4733 0.302033 35.9209 0.496061 36.3516 0.939192C37.7165 2.34484 39.1135 3.71914 40.4978 5.1053C40.4614 5.14258 40.4242 5.17901 40.3878 5.21629ZM70.1772 26.4425C72.5143 28.7251 76.1613 28.9751 78.6964 26.5137C81.0301 24.2472 81.251 20.5496 78.7776 17.9976C76.5099 15.6574 72.8088 15.449 70.2745 17.9137C67.9103 20.2141 67.8096 23.8896 70.1772 26.4425Z" fill="#A3CF25"/>
<path d="M20.5144 31.2492C18.1629 31.5449 15.9138 31.4772 13.69 30.8968C10.8503 30.1554 8.27288 28.8633 5.89684 27.1585C4.01751 25.8105 2.23209 24.3506 0.668371 22.634C0.395057 22.3341 0.338365 22.1426 0.659063 21.8062C3.27542 19.0593 6.20908 16.7403 9.61575 15.0491C11.5839 14.0722 13.6503 13.3952 15.8342 13.1207C17.3633 12.9284 18.894 12.9792 20.5254 13.1792C20.3951 13.674 20.2825 14.1425 20.1387 14.6026C20.1175 14.6704 19.9551 14.717 19.8518 14.7322C17.3091 15.1084 15.0278 16.1633 12.893 17.5266C10.9781 18.7492 9.22736 20.1938 7.67041 21.8639C7.3971 22.157 7.4411 22.3307 7.69326 22.5951C9.13682 24.1134 10.7268 25.453 12.4716 26.6112C14.3475 27.8559 16.3216 28.8845 18.5225 29.4233C18.9591 29.5301 19.4068 29.5953 19.8442 29.6987C19.9661 29.7275 20.1421 29.8055 20.1717 29.8995C20.3045 30.3265 20.3959 30.7654 20.5144 31.2492Z" fill="#A3CF25"/>
</svg>
