<svg width="107" height="45" viewBox="0 0 107 45" fill="none" xmlns="http://www.w3.org/2000/svg">
<path d="M40.3878 5.21629C41.8026 6.63296 43.2216 8.04369 44.6262 9.46967C44.8682 9.71538 45.1043 9.79927 45.447 9.76368C53.0134 8.98587 60.5883 8.30889 68.1861 7.93439C71.1519 7.78781 74.1253 7.60988 77.0962 7.85644C81.806 8.24619 86.3262 9.40274 90.6662 11.2744C93.4908 12.4919 96.1917 13.94 98.7472 15.6464C101.526 17.5019 104.191 19.51 106.563 21.8824C106.825 22.1442 106.841 22.284 106.568 22.5484C104.528 24.5243 102.312 26.2748 99.9868 27.9015C97.7783 29.4461 95.4733 30.8162 93.066 32.0219C89.2294 33.9435 85.2025 35.3043 80.9844 36.0719C77.8256 36.6472 74.6347 36.7989 71.4303 36.6023C66.2577 36.2846 61.0825 35.9906 55.9141 35.6135C52.4313 35.3594 48.9578 34.9849 45.4808 34.6527C45.1957 34.6256 45.0087 34.7069 44.8158 34.9061C41.9769 37.8283 39.1261 40.7388 36.2923 43.6661C35.8811 44.0915 35.447 44.2415 34.8597 44.1661C31.3541 43.717 27.845 43.2933 24.3376 42.8612C24.2539 42.8511 24.1693 42.8434 24.0863 42.8282C23.6319 42.7451 23.5025 42.4935 23.7453 42.1131C24.5187 40.9031 25.304 39.7 26.0841 38.4943C27.2552 36.6854 28.4289 34.8789 29.5881 33.0624C29.6465 32.9717 29.6042 32.7878 29.5585 32.6667C29.5162 32.554 29.3732 32.4794 29.3317 32.3667C29.0669 31.6542 28.4619 31.3983 27.8145 31.1636C26.8372 30.8086 25.887 30.3722 24.8978 30.0562C24.1041 29.802 23.6514 29.2708 23.4906 28.5226C23.2283 27.3008 22.955 26.068 22.8611 24.8267C22.6622 22.2078 22.6656 19.5812 23.1911 16.9893C23.3155 16.3767 23.5346 15.7667 23.8147 15.2083C23.9611 14.916 24.2987 14.6551 24.611 14.522C25.788 14.0221 26.9862 13.5722 28.1843 13.1223C28.6201 12.9588 28.8934 12.6648 29.1989 12.3149C29.7311 11.704 29.5289 11.2803 29.1574 10.7186C27.4566 8.14621 25.7922 5.54928 24.1143 2.96166C24.022 2.82017 23.9146 2.68714 23.8316 2.54141C23.516 1.98983 23.6176 1.78309 24.2429 1.7026C25.0527 1.59838 25.8633 1.4984 26.6739 1.39842C29.402 1.06205 32.1283 0.735843 34.8513 0.382525C35.4732 0.302033 35.9208 0.496061 36.3515 0.939192C37.7164 2.34484 39.1134 3.71914 40.4978 5.1053C40.4614 5.14258 40.4241 5.17901 40.3878 5.21629ZM70.1771 26.4425C72.5142 28.7251 76.1612 28.9751 78.6963 26.5137C81.0301 24.2472 81.2509 20.5496 78.7776 17.9976C76.5098 15.6574 72.8087 15.449 70.2744 17.9137C67.9102 20.2141 67.8095 23.8896 70.1771 26.4425Z" fill="#D70040"/>
<path d="M20.5145 31.2492C18.1629 31.5449 15.9138 31.4772 13.6901 30.8968C10.8504 30.1554 8.27294 28.8633 5.89691 27.1585C4.01757 25.8105 2.23215 24.3506 0.668432 22.634C0.395118 22.3341 0.338426 22.1426 0.659124 21.8062C3.27548 19.0593 6.20914 16.7403 9.61581 15.0491C11.584 14.0722 13.6503 13.3952 15.8343 13.1207C17.3633 12.9284 18.894 12.9792 20.5255 13.1792C20.3951 13.674 20.2826 14.1425 20.1388 14.6026C20.1176 14.6704 19.9551 14.717 19.8519 14.7322C17.3092 15.1084 15.0279 16.1633 12.893 17.5266C10.9781 18.7492 9.22742 20.1938 7.67047 21.8639C7.39716 22.157 7.44116 22.3307 7.69332 22.5951C9.13688 24.1134 10.7268 25.453 12.4716 26.6112C14.3476 27.8559 16.3217 28.8845 18.5226 29.4233C18.9592 29.5301 19.4068 29.5953 19.8443 29.6987C19.9661 29.7275 20.1421 29.8055 20.1718 29.8995C20.3046 30.3265 20.396 30.7654 20.5145 31.2492Z" fill="#D70040"/>
</svg>
