<svg width="60" height="57" viewBox="0 0 60 57" fill="none" xmlns="http://www.w3.org/2000/svg">
<path d="M39.5962 25.4547C41.6539 26.2158 43.6363 26.9496 45.6693 27.7016C45.1711 27.7572 44.6888 27.81 44.2066 27.8642C44.1952 27.9067 44.1838 27.9492 44.1724 27.9917C44.6269 28.2165 45.0828 28.4411 45.6693 28.7304C44.0135 28.7286 42.4988 28.7276 40.9825 28.7255C42.6141 29.1933 44.3642 29.0704 46.0018 29.8233C45.1687 30.0367 44.4003 30.2332 43.6306 30.43C43.6404 30.4931 43.6514 30.5546 43.6612 30.6177C43.8146 30.6041 43.9706 30.6049 44.1211 30.5756C45.0296 30.3975 45.9404 30.2244 46.8431 30.0216C47.2079 29.9396 47.4191 30.0306 47.425 30.4062C47.434 30.9906 47.4315 31.5784 47.3792 32.1601C47.3691 32.2712 47.1201 32.4097 46.9583 32.4518C45.9217 32.7174 44.8806 32.9648 43.8385 33.207C40.0888 34.0762 36.3379 34.9389 32.5875 35.8041C32.5262 35.8176 32.4627 35.8262 32.3687 35.7847C32.7057 35.5848 33.0426 35.3848 33.3796 35.1848C33.3726 35.1375 33.3655 35.0901 33.3587 35.0441C32.7603 35.031 32.1619 35.0179 31.5635 35.0049C31.552 35.0393 31.5403 35.0724 31.5301 35.1066C31.6611 35.2036 31.7924 35.3019 31.9798 35.4416C31.5278 35.8402 31.0853 36.2316 30.6111 36.6502C31.1634 37.0212 31.2 37.6006 31.3479 38.12C31.6289 39.1059 31.9349 40.0726 32.7424 40.7818C32.813 40.8436 32.8611 40.931 32.9143 41.0093C32.9305 41.0321 32.9261 41.068 32.9377 41.1334C32.306 41.4206 31.7648 41.5999 30.9996 41.2275C29.6943 40.5914 28.7508 39.7346 28.2598 38.3673C28.1047 37.937 27.8768 37.5236 27.6278 37.1369C27.3579 36.7161 27.0004 36.3513 26.7244 35.9342C26.3927 35.4325 26.08 34.9153 25.815 34.3775C25.6878 34.1192 26.4101 33.4731 26.7752 33.5152C27.0574 33.5477 27.3361 33.6294 27.6084 33.7136C28.354 33.9451 29.0954 34.1907 29.8831 34.354C29.5506 34.1603 29.2179 33.9652 28.8066 33.7247C29.0102 33.6428 29.1215 33.5988 29.2314 33.5537C31.5374 32.6183 33.9993 32.4223 36.4233 32.0439C36.5948 32.0176 36.7648 31.9835 36.9342 31.9536C36.9073 31.9165 36.8804 31.8794 36.8535 31.8423C37.0064 31.6735 37.1577 31.5036 37.3401 31.3026C37.217 31.2353 37.0626 31.1518 36.8524 31.0364C37.3087 30.494 37.742 29.9517 38.2095 29.4424C38.2993 29.3455 38.5319 29.3355 38.6906 29.352C39.2428 29.4097 39.7906 29.4965 40.3364 29.5715C40.4789 28.8645 40.3574 28.6537 39.7422 28.7138C38.4374 28.8418 37.3087 28.4674 36.2405 27.7394C35.5176 27.2475 34.7196 26.866 33.963 26.4204C33.7316 26.2845 33.4868 26.1346 33.3231 25.93C32.9572 25.4721 32.7422 24.9944 33.0163 24.3572C33.304 23.6894 33.4608 22.9636 33.6694 22.2625C33.7126 22.1171 33.7332 21.9663 33.6649 21.7799C33.4665 22.1498 33.2696 22.5208 33.0725 22.8905C32.9904 23.0454 32.9079 23.1991 32.8273 23.3551C32.6226 23.7504 32.3004 24.1327 32.2483 24.5483C32.1999 24.9309 32.4423 25.3498 32.5802 25.8358C31.1726 25.1192 29.8069 24.4248 28.3902 23.7031C28.5921 23.2461 28.7824 22.8156 28.9743 22.386C29.2795 21.7029 29.5742 21.0136 29.9033 20.3425C29.983 20.1812 30.163 19.9901 30.3257 19.96C31.6604 19.7106 33.0012 19.4953 34.3404 19.2708C34.3838 19.2631 34.4333 19.2827 34.4375 19.2833C34.4915 19.587 34.5422 19.8724 34.5743 20.053C34.9736 19.9825 35.3243 19.9205 35.7669 19.8423C34.7794 19.393 35.4957 18.8425 35.6547 18.2514C34.0813 18.682 32.5789 19.0933 31.0767 19.5059C31.0595 19.4698 31.042 19.4324 31.0247 19.3963C31.2681 19.2034 31.5085 19.0084 31.7552 18.8189C32.7424 18.0626 33.7167 17.2869 34.7273 16.5628C35.2415 16.1938 35.8237 15.9181 36.2944 15.6473C35.9321 15.6667 35.4331 15.6942 34.7836 15.7293C35.3665 15.3198 35.8722 15.0252 36.3052 14.6489C37.2273 13.846 38.2652 13.5195 39.4758 13.6998C39.7137 13.7347 39.9626 13.6948 40.2069 13.6894C40.2086 13.6459 40.2104 13.6024 40.2134 13.5587C39.291 13.43 38.3698 13.2701 37.4428 13.199C37.2779 13.1863 37.0851 13.5417 36.9019 13.7307C36.5474 13.0548 36.9531 12.4566 37.1971 11.8477C37.2234 11.7823 37.4767 11.7592 37.6057 11.7917C38.6873 12.0691 39.7643 12.3662 40.8438 12.6547C41.0884 12.7195 41.3341 12.776 41.5806 12.8364C41.5951 12.796 41.6111 12.7568 41.6256 12.7164C40.0342 12.0782 38.4438 11.4384 36.8186 10.7859C37.1049 9.94271 37.3638 9.14359 37.6557 8.35482C37.695 8.24797 37.8884 8.14762 38.0199 8.1325C39.0038 8.02073 39.9908 7.94084 40.9734 7.8293C41.2801 7.79401 41.4052 7.91097 41.4786 8.18692C41.5535 8.47073 41.671 8.74296 41.7703 9.01974C41.8229 9.01045 41.8754 9.00117 41.9292 8.99165C41.8359 7.27049 41.741 5.54824 41.644 3.76832C42.6712 3.85413 43.6377 3.92636 44.6029 4.02854C44.6995 4.03848 44.8671 4.25729 44.8476 4.34579C44.6678 5.16336 44.4531 5.97494 44.2132 6.9341C43.8046 6.44193 43.4689 6.0395 43.1329 5.63576C43.1079 5.65503 43.0827 5.673 43.0576 5.69227C43.4917 6.2974 43.9247 6.90407 44.3612 7.50742C44.902 8.2557 45.4585 8.99311 45.9776 9.75601C46.0713 9.89471 46.0775 10.1583 46.0163 10.3244C45.8068 10.8907 45.5689 11.4498 45.2963 11.9894C45.2121 12.1555 44.9957 12.3099 44.8104 12.3575C44.3167 12.4839 43.8085 12.5588 43.3031 12.6346C43.0248 12.6771 42.8849 12.8044 42.8493 13.0915C42.8054 13.4544 42.724 13.8117 42.6593 14.1715C42.716 14.1858 42.7725 14.1987 42.8292 14.213C42.9356 13.912 43.0588 13.6148 43.1423 13.3071C43.2186 13.0276 43.3577 12.8424 43.6619 12.8467C45.1247 12.8677 46.0603 12.111 46.6552 10.8474C46.8606 10.4101 47.1087 10.4338 47.4828 10.6863C48.1157 11.1145 48.7854 11.4903 49.4446 11.8761C49.5748 11.953 49.7354 11.98 49.8828 12.0242C50 12.0588 50.1211 12.0846 50.2414 12.1134C50.197 12.2144 50.1529 12.3167 50.094 12.4499C50.1688 12.4975 50.2501 12.5736 50.3469 12.6078C50.6117 12.7027 50.6445 12.8644 50.5981 13.1291C50.4062 14.1986 50.4454 14.2281 51.5243 14.3993C52.1838 14.5042 52.8377 14.6465 53.4729 14.7678C53.925 16.0611 54.3695 17.334 54.8598 18.7353C54.4317 18.5679 54.1202 18.4461 53.7098 18.2864C53.8643 18.5993 53.9767 18.8279 54.0894 19.0577C54.0708 19.0826 54.052 19.1062 54.0334 19.1311C53.0982 18.6186 52.1634 18.1073 51.2269 17.595C51.2365 17.565 51.246 17.535 51.2556 17.5049C51.5157 17.5278 51.7758 17.5507 52.0359 17.5736C52.0481 17.5431 52.0605 17.5139 52.0727 17.4834C51.7738 17.3337 51.4771 17.1809 51.1764 17.0369C50.6995 16.8079 50.1169 16.6854 50.2482 15.8697C50.1923 15.8984 50.1378 15.927 50.082 15.9557C50.0244 16.2265 49.9682 16.497 49.8931 16.8519C49.5404 16.5821 49.2297 16.3507 48.9241 16.1104C48.3729 15.6772 47.8388 15.218 47.2679 14.8112C46.9887 14.6121 46.6484 14.4886 46.3219 14.3668C46.2508 14.3402 46.0946 14.4447 46.0255 14.5285C45.7325 14.8841 45.4558 15.2557 45.1401 15.6665C45.0623 15.5264 45.0004 15.4144 44.8907 15.2164C44.0181 16.0538 43.1664 16.8713 42.3147 17.6888C42.3008 17.6562 42.2868 17.6235 42.2718 17.5924C42.1195 17.6193 41.9315 17.5985 41.8188 17.6806C40.5558 18.6004 39.2938 19.5255 38.056 20.4801C37.8034 20.6746 37.5996 20.6944 37.3195 20.6197C36.574 20.4193 35.8308 20.1712 35.0057 20.3765C37.153 21.4741 39.3014 22.5702 41.4487 23.6678C41.4795 23.6273 41.5102 23.5867 41.5422 23.546C41.4423 23.4259 41.3421 23.3045 41.2422 23.1845C41.2565 23.1657 41.271 23.1483 41.2866 23.1294C41.7374 23.5007 42.1881 23.872 42.717 24.3091C42.1299 24.4129 41.6242 24.5022 41.1908 24.5788C40.8849 25.3498 40.1741 25.1311 39.5962 25.4547ZM42.0555 16.9245C42.1165 16.9704 42.1762 17.0166 42.237 17.0612C42.8978 16.214 43.5586 15.3668 44.2181 14.5198C44.1646 14.4779 44.1109 14.4348 44.0574 14.3929C43.3906 15.2371 42.7239 16.0814 42.0555 16.9245ZM35.2612 26.0263C34.7955 25.6928 34.1529 25.751 33.7032 26.1248C34.239 26.0908 34.6837 26.0622 35.2612 26.0263ZM41.4207 15.1829C41.9714 14.7143 42.0444 14.4543 41.7208 14.2037C41.6159 14.5435 41.5183 14.8632 41.4207 15.1829ZM20.7296 7.88808C21.4898 7.49316 21.9952 6.71662 22.9269 6.53172C22.8992 6.77965 22.8755 6.98907 22.8501 7.22714C23.0439 7.2658 23.2202 7.2819 23.3819 7.33838C23.766 7.47169 23.9957 7.35413 24.1744 6.98771C24.3759 6.57407 24.6456 6.19425 24.8735 5.79214C25.0508 5.47863 25.2975 5.32702 25.6632 5.25834C28.7227 4.6745 31.7771 4.06994 34.8331 3.47455C34.8699 3.46805 34.9139 3.50213 34.9645 3.52019C34.9058 3.63991 34.8543 3.74623 34.8025 3.85124C35.4693 4.39365 36.1202 4.9078 36.7532 5.44268C37.2219 5.83915 37.7239 6.21626 37.7509 6.92438C37.7583 7.13369 37.872 7.33907 37.9405 7.5565C38.5 7.51839 39.0141 7.48424 39.6339 7.44223C39.4 7.21623 39.2531 7.07611 39.0458 6.87782C39.8482 7.08572 40.5538 7.26752 41.261 7.45039C40.842 6.73998 40.2567 6.45727 39.5152 6.47759C39.2306 6.48467 38.94 6.44286 38.6588 6.39264C38.4977 6.36304 38.3485 6.27059 38.1937 6.20749C38.2054 6.15142 38.2185 6.09511 38.2302 6.03903C38.848 6.06218 39.4655 6.08401 40.0956 6.10769C39.541 4.99999 38.6206 4.4025 37.6019 3.90744C37.4136 3.81648 37.2111 3.65245 37.1248 3.47193C36.737 2.65475 36.3931 1.81766 36.0214 0.992228C35.9478 0.829708 35.8229 0.691108 35.7205 0.541789C35.6948 0.557138 35.6678 0.572708 35.6418 0.586748C35.8699 1.42 36.0991 2.25171 36.3272 3.08496C36.2823 3.09963 36.2375 3.1143 36.1925 3.12766C35.8361 2.33464 35.4799 1.54292 35.1826 0.883928C34.6017 0.573418 34.1225 0.316507 33.5298 0C33.6647 0.347451 33.7422 0.547083 33.8459 0.817698C33.5335 0.897198 33.2665 0.964648 32.9902 1.03372C33.0638 1.40956 33.0071 1.72336 32.5088 1.86138C30.4805 2.42368 28.4609 3.01954 26.4313 3.58207C26.0659 3.6831 25.673 3.69042 25.2295 3.74854C25.1759 3.99564 25.1017 4.34765 25.0261 4.69989C24.9912 4.69391 24.9563 4.68793 24.9213 4.68196C24.9375 4.18629 24.955 3.69039 24.9714 3.19603C24.3384 3.27008 24.6768 3.80975 24.4378 4.12608C24.2434 3.4975 23.8167 3.71872 23.4288 3.79266C23.2086 3.83427 22.9895 3.87434 22.7696 3.91726C22.3662 3.99529 21.9334 4.02991 21.8668 4.6155C21.7372 4.48044 21.6754 4.36174 21.5885 4.33793C21.3422 4.27075 20.5618 4.85691 20.5161 5.12557C20.4416 5.55998 20.3727 5.99477 20.3023 6.4298C20.2663 6.42536 20.2301 6.41962 20.1941 6.41518C20.1801 6.14626 20.1659 5.87603 20.152 5.60711C20.1092 5.60253 20.0666 5.59925 20.0238 5.59467C19.8876 6.23036 19.7516 6.86737 19.6078 7.53681C20.2361 7.04773 20.8155 6.59566 21.3961 6.14335C21.302 6.80266 20.3643 7.03723 20.7296 7.88808ZM29.3142 31.688C29.2841 31.6636 29.2554 31.639 29.2253 31.6146C30.5604 29.9273 31.8966 28.2384 33.2715 26.5008C31.8588 25.9916 30.5127 25.4991 29.1578 25.0337C29.067 25.0025 28.856 25.1491 28.7802 25.2638C27.5465 27.179 26.3248 29.1001 25.1051 31.025C24.7781 31.5404 24.4724 32.0684 24.09 32.699C25.471 32.6332 26.7276 32.5772 27.9843 32.5131C28.3052 32.4969 28.6438 32.4127 28.6963 32.9368C28.8928 32.7616 29.0247 32.6505 29.1501 32.5325C30.5806 31.1915 32.0096 29.8494 33.4417 28.5094C34.1676 27.8303 34.1707 27.8325 33.4236 27.0207C32.0423 28.5934 30.6784 30.1414 29.3142 31.688ZM50.5971 7.31817C50.6518 7.15324 50.6888 6.98062 50.7627 6.82446C51.1594 5.99286 51.5438 5.15264 51.9764 4.34034C52.1896 3.93947 52.1337 3.66312 51.7908 3.39562C51.5408 3.20083 51.2599 3.01553 51.0797 2.76384C50.5311 2.00209 49.9039 1.76593 49.0466 2.06459C48.655 2.20129 48.2627 2.33407 47.8743 2.48102C47.7435 2.5298 47.5706 2.586 47.5146 2.6904C46.8812 3.85951 45.7295 4.90959 46.6023 6.44306C46.64 6.51065 46.6804 6.60072 46.6656 6.6695C46.6394 6.7889 46.5912 6.98239 46.5159 7.00109C46.1795 7.08215 46.1656 7.30873 46.1655 7.58282C46.167 8.15503 46.144 8.72617 46.14 9.298C46.1398 9.41144 46.1774 9.52362 46.2116 9.71601C46.5195 9.4213 46.7697 9.18266 47.021 8.94249C47.0511 8.96688 47.0798 8.9915 47.1097 9.01458C46.9303 9.42297 46.7523 9.83111 46.5277 10.3434C47.3772 9.99341 48.1116 9.68951 48.8475 9.38661C48.87 9.42179 48.8923 9.45565 48.9148 9.49083C48.7749 9.64111 48.635 9.79141 48.4372 10.0046C48.5841 9.96241 48.6525 9.95841 48.7011 9.92691C49.2845 9.55107 49.8398 9.57311 50.423 9.96551C50.7647 10.1955 51.165 10.3367 51.666 10.5789C51.2627 9.53768 50.9109 8.65609 50.5846 7.76593C50.5352 7.63289 50.599 7.45825 50.6106 7.30229C50.6079 7.30276 50.5971 7.31817 50.5971 7.31817ZM26.2824 36.0461C25.936 35.4997 25.6116 35.0089 25.3108 34.5058C25.1662 34.264 25.0097 34.2295 24.7582 34.3388C23.6733 34.8046 22.5769 35.2441 21.4982 35.7223C21.2686 35.825 21.0502 36.0215 20.8997 36.2263C19.0707 38.7247 17.956 41.6058 16.5802 44.3899C19.81 41.6103 23.0414 38.8317 26.2824 36.0461ZM55.8877 19.3962C56.1812 19.2336 56.5239 19.0961 56.2002 18.655C56.1626 18.6036 56.2801 18.3425 56.3708 18.3117C56.7847 18.171 56.8915 17.8646 56.968 17.4797C57.1989 16.325 57.4621 15.1768 57.7128 14.0267C58.0207 12.6194 58.3286 11.2122 58.6363 9.80361C58.5986 9.78191 58.5597 9.76171 58.522 9.74011C58.2917 10.098 58.0598 10.455 57.8295 10.8129C57.8138 10.8009 57.7981 10.7888 57.7824 10.7767C58.0028 10.3246 58.2232 9.87251 58.4783 9.34949C58.2212 9.35848 58.1107 9.3618 58.0002 9.36512C56.5963 9.41609 56.6046 9.41731 56.3544 10.8063C56.0791 12.3361 55.9288 13.9059 54.8995 15.1949C54.8099 15.3079 54.8597 15.5881 54.9266 15.7585C55.122 16.2559 55.3581 16.7381 55.5789 17.2256C55.5453 17.2424 55.5133 17.2602 55.4797 17.2769C55.2114 16.8045 54.9432 16.3321 54.6752 15.861C54.6243 15.8794 54.5734 15.8979 54.5225 15.9163C54.3274 17.2267 55.1575 18.2992 55.4566 19.6006C55.6417 19.5139 55.7679 19.4619 55.8877 19.3962ZM12.2778 47.9261C12.2433 47.8998 12.2088 47.8735 12.1741 47.8459C12.6597 46.9122 13.1455 45.9798 13.6311 45.0461C12.8702 45.3911 12.1728 45.7736 11.4997 46.1937C11.3875 46.2634 11.2998 46.5017 11.3247 46.6418C11.3968 47.0476 11.5038 47.4513 11.6471 47.8378C11.788 48.2192 11.7369 48.4956 11.4011 48.748C11.2625 48.8522 11.1156 49.0469 11.1113 49.2056C11.0864 50.0255 11.1065 50.8469 11.1121 51.7317C11.7005 51.6277 12.2335 51.547 12.757 51.4288C12.8546 51.4062 12.9669 51.2378 12.9857 51.1224C13.2299 49.6846 13.4587 48.244 13.714 46.6624C13.1669 47.1439 12.7229 47.5342 12.2778 47.9261ZM58.2948 9.03358C58.369 9.00156 58.4414 8.91316 58.4682 8.83551C58.6576 8.27008 58.8342 7.70151 59.0439 7.04473C58.7507 7.1708 58.5494 7.25768 58.3463 7.34217C58.1611 7.4208 57.9753 7.4955 57.7899 7.57282C57.7724 7.5354 57.7549 7.49799 57.7374 7.46057C58.0542 7.21557 58.371 6.97057 58.7626 6.66643C57.9457 6.47595 57.2304 6.30802 56.4671 6.12966C56.4376 6.74109 56.4121 7.28297 56.384 7.86444C56.1556 7.59293 55.9802 7.38359 55.8876 7.27439C55.8954 6.96787 55.9024 6.73305 55.9082 6.49846C55.8606 6.49742 55.813 6.49638 55.7669 6.49642C55.4119 7.07492 55.6146 7.63588 55.814 8.21632C56.158 8.12447 56.4733 8.03904 56.7889 7.95492C56.803 7.99564 56.8154 8.03529 56.8294 8.07602C56.5351 8.2185 56.2407 8.36099 55.9101 8.52067C56.5376 9.16992 57.5114 9.36644 58.2948 9.03358ZM14.6838 46.6234C15.7105 44.6719 16.7369 42.7191 17.7649 40.7673C16.6924 41.6076 15.6971 42.4937 14.7204 43.4008C14.6007 43.5124 14.5278 43.7346 14.5295 43.9044C14.5381 44.8061 14.5779 45.7078 14.6069 46.6099C14.6319 46.6136 14.6572 46.6186 14.6838 46.6234ZM20.7693 20.4916C20.5133 20.3397 20.2961 20.3295 20.0144 20.467C18.7392 21.0893 17.4492 21.6818 16.1657 22.288C16.1094 22.3142 16.062 22.3604 16.0104 22.3978C16.0239 22.4279 16.0363 22.4594 16.0498 22.4894C18.1027 22.1267 20.1556 21.7639 22.3254 21.3805C21.754 21.0548 21.2571 20.7821 20.7693 20.4916ZM26.2268 26.9261C24.8346 27.6217 23.5012 28.3893 22.1769 29.1702C22.0863 29.224 22.0086 29.366 21.9967 29.4747C21.925 30.1152 21.8755 30.7586 21.8077 31.5199C23.3315 29.9342 24.779 28.4295 26.2268 26.9261ZM40.1402 4.72804C39.493 3.44229 38.8556 2.15076 38.1848 0.877268C38.0906 0.698138 37.8365 0.487865 37.6595 0.49078C37.2284 0.49675 36.7992 0.619858 36.2712 0.713158C37.9604 1.85529 38.8609 3.59043 40.2249 4.92235C40.1983 4.85684 40.1731 4.79109 40.1402 4.72804ZM20.1557 42.366C20.1126 42.3291 20.0708 42.292 20.0276 42.255C18.3911 43.8471 16.2091 44.9618 15.6874 47.5288C17.1763 45.8075 18.6666 44.086 20.1557 42.366ZM12.4578 52.8467C12.1802 52.9997 11.8977 53.1482 11.6337 53.3245C11.5453 53.3833 11.4578 53.5162 11.453 53.6184C11.3995 54.6053 11.6723 54.9662 12.6808 55.2363C12.8634 54.3278 13.0466 53.4232 13.2476 52.4277C12.9243 52.5982 12.6883 52.7182 12.4578 52.8467ZM27.3692 32.7797C26.4123 32.8381 25.4686 32.9401 24.527 33.0538C24.4249 33.0664 24.3037 33.1162 24.2356 33.1903C23.8674 33.5957 23.5136 34.0133 23.1194 34.4704C24.779 34.3945 26.025 33.4709 27.3692 32.7797ZM14.421 47.4313C14.1689 47.5217 13.9748 47.6263 13.9463 47.9459C13.8753 48.7199 13.7575 49.4901 13.6839 50.2646C13.6615 50.4967 13.7216 50.7359 13.7447 50.9721C13.7769 50.9705 13.8076 50.9678 13.8398 50.9661C14.2365 49.7308 14.6331 48.4942 15.0627 47.1545C14.7684 47.2821 14.5993 47.3674 14.421 47.4313ZM32.8175 16.8774C33.0291 16.7185 33.3044 16.6442 33.5477 16.5269C33.6749 16.4653 33.7961 16.3925 33.9209 16.3246C33.9051 16.2896 33.8884 16.2561 33.8726 16.2211C32.5875 16.3914 31.3009 16.5608 29.9548 16.7392C30.9319 17.4266 31.8562 17.5967 32.8175 16.8774ZM33.8238 15.7409C34.6604 15.2191 35.4969 14.6973 36.4261 14.1172C35.8466 14.0657 35.3887 14.0049 34.9296 13.9982C34.7965 13.9961 34.6077 14.1226 34.5346 14.2449C34.2575 14.7057 34.0171 15.1897 33.7627 15.6639C33.7836 15.69 33.8043 15.7147 33.8238 15.7409ZM22.2701 34.075C22.8086 33.3399 23.3045 32.6622 23.8147 31.9659C23.4899 31.7087 23.2062 31.4847 22.839 31.1945C22.6389 32.2101 22.4603 33.1179 22.2701 34.075ZM50.6079 7.30276C50.714 7.35827 50.8295 7.47424 50.9245 7.46015C51.642 7.3509 52.3551 7.21678 52.9856 7.10538C53.0059 6.67108 53.0214 6.347 53.0335 6.09508C52.8763 6.03375 52.6843 5.95966 52.4311 5.86129C52.1898 6.64517 51.5442 6.9834 50.8137 7.2178C50.738 7.24196 50.6698 7.28507 50.5974 7.31948C50.5971 7.31817 50.6079 7.30276 50.6079 7.30276ZM18.7695 38.1433C18.2325 38.3611 17.7758 38.6956 17.2657 38.9046C16.5374 39.2047 16.3865 39.735 16.4964 40.5513C17.2954 39.704 18.0319 38.9244 18.7695 38.1433ZM12.0217 42.3182C12.6834 42.2607 13.3467 42.2124 14.007 42.1389C14.1305 42.1252 14.2793 42.0327 14.3507 41.931C14.5582 41.6351 14.7316 41.3155 14.994 40.8789C13.9059 41.3723 12.9504 41.8044 11.9952 42.2379C12.0043 42.266 12.0129 42.2915 12.0217 42.3182ZM18.0561 26.0396C18.8196 25.6711 19.5832 25.3026 20.4427 24.8874C19.9719 24.6776 19.6014 24.5136 19.2057 24.3377C18.7941 24.8952 18.4 25.4293 18.0059 25.9634C18.0226 25.9888 18.0393 26.0142 18.0561 26.0396ZM41.2509 18.3723C40.4383 18.9601 39.6256 19.5479 38.8058 20.141C38.9392 20.4037 39.0446 20.6078 39.1796 20.8716C39.9271 20.032 40.6272 19.2454 41.3285 18.4585C41.3019 18.4308 41.2764 18.4015 41.2509 18.3723ZM23.3681 39.3816C22.9428 39.6255 22.5406 39.9234 22.0886 40.1018C21.3318 40.4017 21.1466 40.9447 21.2672 41.7295C22.0117 40.9566 22.7319 40.2069 23.4522 39.4585C23.4246 39.4324 23.3958 39.4077 23.3681 39.3816ZM36.3334 6.06097C36.5307 6.7822 36.727 7.50496 36.9439 8.29833C37.2425 8.11865 37.4775 7.97721 37.7419 7.81843C37.2833 7.19738 36.8531 6.61451 36.423 6.03164C36.3933 6.03959 36.364 6.05017 36.3334 6.06097ZM7.11005 40.1267C7.48488 40.0024 7.85171 39.8255 8.23663 39.7656C8.94953 39.6531 9.03755 39.1272 9.18545 38.4962C8.43292 39.041 7.75591 39.5306 7.07914 40.0215C7.09068 40.0559 7.09959 40.0908 7.11005 40.1267ZM57.3925 3.6236C57.291 3.65502 57.1539 3.77512 57.1471 3.86677C57.1134 4.29399 57.1046 4.72489 57.1213 5.15399C57.1245 5.24794 57.2647 5.33524 57.3419 5.4269C57.4206 5.33604 57.5609 5.24913 57.5683 5.15332C57.5979 4.72549 57.5904 4.29476 57.5969 3.77515C57.5557 3.74191 57.4502 3.6053 57.3925 3.6236ZM23.6122 7.55152C23.272 7.61163 22.987 7.57828 22.8508 7.70362C22.5775 7.95713 22.6365 8.6623 22.9323 9.12175C23.1622 8.59371 23.3626 8.12893 23.6122 7.55152ZM10.0764 47.1027C9.87961 47.8247 9.69827 48.4886 9.48865 49.2602C10.3689 48.3904 10.4654 48.0263 10.0764 47.1027ZM58.1839 4.25739C58.1119 4.34032 57.9846 4.41682 57.9748 4.50631C57.9268 4.97521 57.9009 5.44693 57.8887 5.91896C57.8872 5.99482 57.9964 6.07544 58.0549 6.15287C58.1202 6.08597 58.2354 6.02511 58.244 5.95202C58.2934 5.48289 58.3192 5.01116 58.3597 4.4464C58.3326 4.41607 58.259 4.33727 58.1839 4.25739ZM9.18555 44.5004C9.49949 44.7041 9.75669 44.8707 10.0781 45.0785C10.1142 44.5955 10.1458 44.1943 10.184 43.6853C9.81362 43.9871 9.52743 44.2213 9.18555 44.5004ZM20.9318 33.6189C20.5386 33.9746 20.2559 34.2285 19.9315 34.5221C20.2322 34.7052 20.4706 34.8494 20.7851 35.0409C20.8359 34.5499 20.8757 34.1567 20.9318 33.6189ZM35.7744 11.1608C35.2543 11.1231 34.7905 11.0902 34.2733 11.0534C34.5228 11.9085 34.5739 11.9292 35.7744 11.1608ZM1.73526 51.574C1.77804 51.1061 1.81385 50.7285 1.85877 50.2345C1.47581 50.5492 1.2005 50.7761 0.861252 51.0548C1.18694 51.2483 1.43385 51.3951 1.73526 51.574ZM13.035 44.2535C13.4189 44.0655 13.7156 43.9213 14.0709 43.7478C13.7276 43.4858 13.467 43.2847 13.1255 43.0251C13.0913 43.4807 13.0672 43.8171 13.035 44.2535ZM12.4847 38.9488C11.9793 39.1312 11.5921 39.2699 11.1044 39.4452C11.4505 39.6621 11.6988 39.8167 11.984 39.9959C12.148 39.6536 12.2882 39.3602 12.4847 38.9488ZM30.8162 15.222C30.4309 14.9674 30.0443 14.713 29.5837 14.4082C29.5943 14.7345 29.6024 14.9626 29.6111 15.2405C30.0279 15.2681 30.413 15.2932 30.7968 15.3186C30.8046 15.2861 30.8098 15.2542 30.8162 15.222ZM10.1092 51.2109C10.2279 51.8785 10.344 52.5317 10.4785 53.2883C10.8543 52.4685 10.7173 51.8122 10.1092 51.2109ZM53.1676 7.7861C52.6904 8.08915 51.8186 8.18381 52.4506 9.10229C52.7035 8.63501 52.9355 8.21055 53.1676 7.7861ZM6.57776 11.7701C6.08675 11.7286 5.65609 11.6913 5.15542 11.6488C5.52288 12.4507 5.70108 12.4624 6.57776 11.7701ZM16.5518 8.90179C16.4304 8.80578 16.292 8.6142 16.188 8.63123C15.6689 8.71351 15.1595 8.85078 14.6454 8.96864C14.653 9.00375 14.6595 9.0404 14.6671 9.07551C15.2663 9.06279 15.8653 9.04875 16.4646 9.03602C16.493 8.99048 16.5217 8.94625 16.5518 8.90179ZM6.7206 51.2237C7.02118 50.6818 7.29483 50.1866 7.62319 49.5952C6.94713 50.0063 6.5103 50.4143 6.7206 51.2237ZM5.57447 53.5014C5.58855 53.5273 5.60263 53.5532 5.61672 53.579C6.0252 53.5068 6.43367 53.4347 6.90651 53.3511C6.79425 53.1617 6.70343 53.0089 6.58158 52.8037C6.19789 53.0686 5.88541 53.2845 5.57447 53.5014ZM59.1508 6.3278C59.17 6.23799 59.2182 6.14307 59.2046 6.05906C59.1596 5.79833 59.4889 5.48632 59.1005 5.27546C59.0192 5.51935 58.9116 5.75979 58.8694 6.01027C58.85 6.12173 58.9616 6.25456 59.0134 6.37774C59.059 6.36022 59.1049 6.34401 59.1508 6.3278ZM56.4794 4.49243C56.4291 4.59043 56.3382 4.68885 56.3355 4.78789C56.3288 5.02402 56.3536 5.26266 56.3858 5.49729C56.3937 5.55666 56.4705 5.60789 56.5169 5.66315C56.5742 5.60442 56.6806 5.54781 56.6822 5.48812C56.6903 5.25176 56.6657 5.01443 56.648 4.67866C56.625 4.65573 56.5522 4.57408 56.4794 4.49243ZM20.1936 7.73033C20.0481 8.16919 19.9202 8.55498 19.7924 8.94076C20.3964 8.43707 20.4652 8.19134 20.1936 7.73033ZM18.6938 5.23832C18.317 5.42777 17.9627 5.6065 17.5361 5.82094C18.3474 5.87334 18.5719 5.75672 18.6938 5.23832ZM27.5398 2.18184C26.9277 2.29 26.3157 2.39816 25.7049 2.50609C25.7159 2.55275 25.7272 2.60072 25.7382 2.64738C26.3541 2.50749 26.9689 2.36914 27.5848 2.22925C27.5699 2.21432 27.5549 2.19808 27.5398 2.18184ZM1.58574 44.9658C0.988692 44.5717 0.947792 45.0731 0.791992 45.3626C1.03832 45.2394 1.28573 45.1146 1.58574 44.9658ZM26.3295 15.4815C26.3221 15.5233 26.3159 15.5649 26.3082 15.6054C26.564 15.6574 26.8185 15.7097 27.1446 15.7763C26.9251 15.113 26.596 15.5019 26.3295 15.4815ZM2.81716 55.9977C2.39585 55.7387 2.3797 55.7469 2.00458 56.4181C2.3344 56.2464 2.5652 56.1273 2.81716 55.9977ZM13.3359 37.8924C13.6591 37.7367 13.9035 37.6179 14.1693 37.4899C13.7437 37.1993 13.74 37.2013 13.3359 37.8924ZM9.71178 53.3873C9.17548 53.015 9.10767 53.4793 8.96068 53.7726C9.19781 53.651 9.43495 53.5294 9.71178 53.3873ZM21.4761 24.1391C21.2237 23.5423 20.9321 23.876 20.6575 24.0231C20.9106 24.0594 21.1622 24.096 21.4761 24.1391Z" fill="url(#paint0_linear)"/>
<defs>
<linearGradient id="paint0_linear" x1="-2.50053" y1="32.1406" x2="61.986" y2="20.6742" gradientUnits="userSpaceOnUse">
<stop offset="4.47534e-07" stop-color="#D7006C"/>
<stop offset="1" stop-color="#D4000F"/>
</linearGradient>
</defs>
</svg>
