<svg width="36" height="36" viewBox="0 0 36 36" fill="none" xmlns="http://www.w3.org/2000/svg">
<path d="M18.0018 0C8.05811 0 0 8.05811 0 18.0018C0 27.9456 8.05811 36.0037 18.0018 36.0037C27.9456 36.0037 36.0037 27.9456 36.0037 18.0018C36.0037 8.05811 27.9419 0 18.0018 0ZM27.1317 19.9464C27.9714 20.764 28.8589 21.5374 29.6102 22.4397C29.9454 22.8411 30.2584 23.2536 30.4978 23.7177C30.8403 24.3806 30.531 25.1098 29.938 25.1466H26.2515C25.2976 25.2239 24.5426 24.8409 23.9018 24.1891C23.3936 23.6698 22.9185 23.1173 22.4287 22.5796C22.2298 22.3587 22.0162 22.1524 21.7657 21.9904C21.2612 21.6626 20.8266 21.7621 20.5393 22.2887C20.2447 22.8227 20.1784 23.4157 20.149 24.0086C20.1084 24.8778 19.847 25.1061 18.9741 25.1466C17.1106 25.235 15.3428 24.9514 13.6966 24.0123C12.2455 23.1836 11.1223 22.0125 10.1463 20.6867C8.24225 18.105 6.78384 15.2692 5.47274 12.3523C5.17811 11.6968 5.39172 11.3432 6.11724 11.3322C7.32154 11.3101 8.52583 11.3101 9.72645 11.3322C10.2163 11.3395 10.5404 11.6194 10.7282 12.0835C11.3801 13.6855 12.1756 15.2066 13.1736 16.6171C13.4388 16.9927 13.7113 17.3684 14.098 17.6336C14.5252 17.9282 14.8493 17.8288 15.0519 17.3537C15.1808 17.0517 15.236 16.7276 15.2655 16.4035C15.3612 15.2913 15.3723 14.179 15.2066 13.0705C15.1034 12.3781 14.713 11.9288 14.0207 11.7962C13.6671 11.7299 13.7187 11.601 13.8918 11.3985C14.1901 11.0523 14.4663 10.835 15.0224 10.835H19.1877C19.8433 10.9639 19.9906 11.2585 20.079 11.9214L20.0827 16.5508C20.0753 16.8049 20.2116 17.5673 20.6719 17.733C21.0402 17.8545 21.2833 17.5599 21.5043 17.3279C22.5023 16.2672 23.2168 15.015 23.8539 13.7224C24.1338 13.1515 24.3769 12.5586 24.6126 11.9693C24.7894 11.5311 25.0619 11.3174 25.5554 11.3248L29.566 11.3285C29.6839 11.3285 29.8054 11.3285 29.9196 11.3506C30.5972 11.4648 30.7814 11.7557 30.5715 12.4186C30.2437 13.4535 29.6029 14.319 28.9768 15.1845C28.3065 16.1125 27.592 17.0038 26.9291 17.9356C26.3251 18.7789 26.373 19.2061 27.1317 19.9464Z" fill="#D70040"/>
</svg>
