<svg width="28" height="28" viewBox="0 0 28 28" fill="none" xmlns="http://www.w3.org/2000/svg">
<path d="M27.7976 7.44188C27.7976 7.44188 27.2684 4.84692 26.5532 4.84692C26.0097 4.84692 23.8785 7.26888 22.8344 8.49428C22.4625 8.92678 21.9332 9.17186 21.3611 9.17186C20.2741 9.17186 19.4016 8.29245 19.4016 7.1968C19.4016 6.62014 19.6447 6.08673 20.0738 5.7119C21.2896 4.6595 23.6926 2.51145 23.6926 1.96362C23.6926 1.2428 21.118 0.69497 21.118 0.69497C20.5601 0.579639 19.9737 0.521973 19.4016 0.521973C14.6671 0.521973 10.8195 4.44325 10.8195 9.25836C10.8195 9.86385 10.8911 10.4693 11.0341 11.1037L2.15173 19.8977C0.363812 21.7286 0.363812 24.6984 2.15173 26.5293C3.02423 27.4231 4.1828 27.9133 5.42719 27.9133C6.67158 27.9133 7.83015 27.4231 8.68835 26.5437L17.5993 17.7208C18.2144 17.8217 18.8151 17.8217 19.4016 17.8217C24.2075 17.8217 27.9836 14.059 27.9836 9.25836C27.9836 8.63845 27.9263 8.03296 27.7976 7.44188Z" fill="#D60136"/>
</svg>
