<svg width="76" height="25" viewBox="0 0 76 25" fill="none" xmlns="http://www.w3.org/2000/svg">
<path d="M33.1478 24.1209H27.0537L30.8618 0.720215H36.9559L33.1478 24.1209Z" fill="#004A9B"/>
<path d="M21.9241 0.720215L16.1118 16.8152L15.4228 13.3471L13.3747 2.82991C13.3747 2.82991 13.1242 0.720215 10.4811 0.720215H0.873237L0.760498 1.11461C0.760498 1.11461 3.69797 1.72811 7.1365 3.78772L12.4352 24.1209H18.7862L28.4817 0.720215H21.9241Z" fill="#004A9B"/>
<path d="M69.8695 24.1209H75.4688L70.5897 0.720215H65.6856C63.4246 0.720215 62.8734 2.46681 62.8734 2.46681L53.7854 24.1271H60.1363L61.4078 20.6527H69.1554L69.8695 24.1209ZM63.1615 15.8449L66.362 7.08685L68.1658 15.8449H63.1615Z" fill="#004A9B"/>
<path d="M54.2612 6.34815L55.1318 1.3212C55.1318 1.3212 52.4449 0.300781 49.6515 0.300781C46.6263 0.300781 39.4424 1.62169 39.4424 8.05093C39.4424 14.0983 47.8727 14.1734 47.8727 17.3473C47.8727 20.5213 40.313 19.9579 37.8139 17.9546L36.9058 23.2069C36.9058 23.2069 39.6303 24.5278 43.7891 24.5278C47.9479 24.5278 54.2237 22.3743 54.2237 16.5147C54.2237 10.4298 45.7182 9.86013 45.7182 7.21832C45.7119 4.57025 51.6495 4.9083 54.2612 6.34815Z" fill="#004A9B"/>
<path d="M15.4228 13.3533L13.3747 2.8299C13.3747 2.8299 13.1242 0.720215 10.4811 0.720215H0.873237L0.760498 1.11461C0.760498 1.11461 5.37652 2.07242 9.81091 5.65325C14.0449 9.08385 15.4228 13.3533 15.4228 13.3533Z" fill="#F1960C"/>
</svg>
