<svg width="118" height="31" viewBox="0 0 118 31" fill="none" xmlns="http://www.w3.org/2000/svg">
<g clip-path="url(#clip0)">
<path fill-rule="evenodd" clip-rule="evenodd" d="M15.5989 0.0888672C18.0061 0.0888672 20.2827 0.644826 22.3163 1.63846C22.6365 1.78632 22.9507 1.95784 23.2708 2.13527L21.8598 3.40096L19.7373 1.21261L16.1622 4.39459L14.0337 2.08204L7.36975 8.0793L11.6444 12.7754L9.96657 14.2481L14.176 18.956L12.5041 20.4228L18.5159 27.1002L22.0851 23.8236L25.174 27.3368C24.5633 27.8099 23.8934 28.2594 23.1523 28.6735C20.9171 29.9451 18.3381 30.6725 15.593 30.6725C7.15631 30.6666 0.272949 23.7999 0.272949 15.3777C0.272949 6.95556 7.15631 0.0888672 15.5989 0.0888672Z" fill="#0761AF"/>
<path fill-rule="evenodd" clip-rule="evenodd" d="M12.8066 14.4138L16.4529 11.1372L19.7315 14.7746L16.0912 18.0512L12.8066 14.4138Z" fill="#0761AF"/>
<path fill-rule="evenodd" clip-rule="evenodd" d="M15.3972 20.695L19.0434 17.4243L22.328 21.0558L18.6818 24.3324L15.3972 20.695Z" fill="#0761AF"/>
<path fill-rule="evenodd" clip-rule="evenodd" d="M10.1978 8.20331L13.844 4.93262L17.1226 8.5641L13.4823 11.8407L10.1978 8.20331Z" fill="#0761AF"/>
<path fill-rule="evenodd" clip-rule="evenodd" d="M16.8855 6.44083L19.6187 3.98633L22.0791 6.71289L19.346 9.1674L16.8855 6.44083Z" fill="#0761AF"/>
<path fill-rule="evenodd" clip-rule="evenodd" d="M21.7471 17.6904L24.4803 15.23L26.9407 17.9625L24.2075 20.417L21.7471 17.6904Z" fill="#0761AF"/>
<path fill-rule="evenodd" clip-rule="evenodd" d="M24.1482 23.1967L26.8814 20.7422L29.3418 23.4688L26.6087 25.9233L24.1482 23.1967Z" fill="#0761AF"/>
<path fill-rule="evenodd" clip-rule="evenodd" d="M25.251 10.5694L27.0711 8.93701L28.7134 10.7528L26.8933 12.3911L25.251 10.5694Z" fill="#0761AF"/>
<path fill-rule="evenodd" clip-rule="evenodd" d="M22.9211 5.16956L24.7413 3.53125L26.3836 5.3529L24.5634 6.99121L22.9211 5.16956Z" fill="#0761AF"/>
<path fill-rule="evenodd" clip-rule="evenodd" d="M27.5811 15.9752L29.4012 14.3369L31.0435 16.1527L29.2233 17.791L27.5811 15.9752Z" fill="#0761AF"/>
<path fill-rule="evenodd" clip-rule="evenodd" d="M19.4053 11.9237L22.1385 9.46924L24.5989 12.1958L21.8657 14.6503L19.4053 11.9237Z" fill="#0761AF"/>
<path fill-rule="evenodd" clip-rule="evenodd" d="M73.15 9.50451L73.067 9.56365L72.984 9.50451C72.3555 8.93672 71.6678 8.70605 70.814 8.70605C68.8397 8.70605 67.5591 10.0723 67.5591 12.2133C67.5591 12.2133 67.5591 21.9899 67.5591 22.2147C67.7607 22.2147 69.3318 22.2147 69.5334 22.2147C69.5334 21.984 69.5334 12.2133 69.5334 12.2133C69.5334 10.7879 70.5057 10.6756 70.8199 10.6756C71.0512 10.6756 71.3891 10.7347 71.6796 10.9595C71.9642 11.2434 72.1065 11.6455 72.1065 12.2133C72.1065 12.2133 72.1065 21.9899 72.1065 22.2147C72.3081 22.2147 73.8792 22.2147 74.0808 22.2147C74.0808 21.984 74.0808 12.2133 74.0808 12.2133C74.0808 10.7879 75.0531 10.6756 75.3673 10.6756C75.5986 10.6756 75.9365 10.7347 76.227 10.9595C76.5116 11.2434 76.6539 11.6455 76.6539 12.2133C76.6539 12.2133 76.6539 21.9899 76.6539 22.2147C76.8555 22.2147 78.4266 22.2147 78.6223 22.2147C78.6223 21.984 78.6223 12.2133 78.6223 12.2133C78.6223 11.1014 78.2784 10.1906 77.6499 9.56365C77.0808 9.01952 76.2804 8.70605 75.3614 8.70605C74.4602 8.70605 73.7488 8.96629 73.15 9.50451Z" fill="#0761AF"/>
<path fill-rule="evenodd" clip-rule="evenodd" d="M87.5215 13.3254C86.8634 12.6394 85.7784 12.042 84.2903 12.042C82.8615 12.042 81.7765 12.6394 81.1184 13.3254C80.0927 14.4373 79.8911 16.0047 79.8911 17.229C79.8911 18.4237 80.0927 19.9969 81.1184 21.1029C81.7765 21.789 82.8615 22.3864 84.2903 22.3864C85.7784 22.3864 86.8634 21.789 87.5215 21.1029C88.5472 19.991 88.7488 18.4237 88.7488 17.229C88.7488 16.0047 88.5472 14.4373 87.5215 13.3254ZM86.7508 17.6548C86.7508 18.5952 86.7508 19.648 86.0334 20.4169C85.7488 20.7008 85.2033 21.0734 84.2903 21.0734C83.4306 21.0734 82.8911 20.7008 82.6065 20.4169C81.8891 19.648 81.8891 18.5952 81.8891 17.6548V16.7736C81.8891 15.8332 81.8891 14.7804 82.6065 14.0352C82.8911 13.7217 83.4366 13.3491 84.2903 13.3491C85.2033 13.3491 85.7488 13.7217 86.0334 14.0352C86.7508 14.7745 86.7508 15.8332 86.7508 16.7736V17.6548Z" fill="#0761AF"/>
<path fill-rule="evenodd" clip-rule="evenodd" d="M90.3792 12.2135L92.0392 12.2431V13.1243C92.5254 12.7813 92.9523 12.527 93.4384 12.3555C94.0372 12.1011 94.4641 12.042 95.0688 12.042C95.9285 12.042 96.8119 12.2135 97.5234 13.012C98.2111 13.8104 98.3534 14.7508 98.3534 15.5493V22.1912H96.5214V15.4073C96.5214 13.7808 95.4957 13.355 94.636 13.355C93.7764 13.355 92.893 13.7276 92.1815 14.3782V22.1853H90.3792V13.6685V12.2135Z" fill="#0761AF"/>
<path fill-rule="evenodd" clip-rule="evenodd" d="M107.294 20.2513C106.95 20.4228 106.577 20.5647 106.12 20.7067C105.575 20.8782 105.148 20.961 104.579 20.961C103.636 20.961 102.776 20.6475 102.32 20.133C101.976 19.7899 101.608 19.1098 101.608 17.9091V17.6548H107.78V17.1994C107.78 15.6025 107.721 14.2895 106.725 13.2367C106.067 12.527 105.071 12.042 103.808 12.042C102.409 12.042 101.377 12.6394 100.749 13.355C99.7171 14.5261 99.6045 16.0638 99.6045 17.0575C99.6045 18.1694 99.7764 19.8254 100.802 20.961C101.46 21.7299 102.628 22.3864 104.288 22.3864C105.029 22.3864 105.83 22.3036 106.63 21.9901C107.057 21.8186 107.543 21.5938 107.857 21.4223L107.294 20.2513ZM101.608 16.1171C101.608 14.9756 101.982 14.3191 102.267 14.0056C102.551 13.6921 103.008 13.3491 103.778 13.3491C104.294 13.3491 104.804 13.4615 105.178 13.8341C105.836 14.461 105.836 15.2299 105.836 15.916V16.3418H101.608V16.1171Z" fill="#0761AF"/>
<path fill-rule="evenodd" clip-rule="evenodd" d="M117.664 12.2432L113.751 23.9834C113.608 24.498 113.235 25.3497 112.808 25.8346C112.292 26.4024 111.61 26.6627 110.834 26.6627C110.288 26.6627 109.778 26.5503 109.262 26.2664C108.948 26.0653 108.634 25.8701 108.432 25.6395L109.292 24.5571C109.434 24.6991 109.636 24.841 109.808 24.9534C110.093 25.1249 110.436 25.2077 110.751 25.2077C111.296 25.2077 111.634 24.9238 111.806 24.6932C112.008 24.4388 112.203 23.8356 112.351 23.4689L112.583 22.6704L108.385 12.2373H110.353L112.867 18.4771C113.122 19.0744 113.383 19.9852 113.436 20.2455H113.519C113.834 19.0508 113.976 18.6486 114.237 17.9093L116.039 12.2373H117.664V12.2432Z" fill="#0761AF"/>
<path fill-rule="evenodd" clip-rule="evenodd" d="M40.7788 21.6175L40.8381 21.5347L40.9211 21.6175C41.5792 22.1616 42.2373 22.4159 43.1207 22.4159C45.0891 22.4159 46.3756 21.0201 46.3756 18.9086C46.3756 18.9086 46.3756 9.10246 46.3756 8.90137C46.1741 8.90137 44.5733 8.90137 44.3776 8.90137C44.3776 9.10246 44.3776 18.9086 44.3776 18.9086C44.3776 20.334 43.4053 20.4168 43.1207 20.4168C42.8658 20.4168 42.5219 20.3872 42.261 20.1329C41.9765 19.8786 41.8342 19.4469 41.8342 18.9086C41.8342 18.9086 41.8342 9.10246 41.8342 8.90137C41.6326 8.90137 40.0318 8.90137 39.8362 8.90137C39.8362 9.10246 39.8362 18.9086 39.8362 18.9086C39.8362 20.334 38.8638 20.4168 38.5496 20.4168C38.3184 20.4168 37.9804 20.3872 37.7196 20.1329C37.435 19.8786 37.2927 19.4469 37.2927 18.9086C37.2927 18.9086 37.2927 9.10246 37.2927 8.90137C37.0911 8.90137 35.4903 8.90137 35.2947 8.90137C35.2947 9.10246 35.2947 18.9086 35.2947 18.9086C35.2947 19.991 35.6385 20.9018 36.267 21.5287C36.8362 22.0965 37.6662 22.41 38.5555 22.41C39.433 22.4159 40.1504 22.132 40.7788 21.6175Z" fill="#0761AF"/>
<path fill-rule="evenodd" clip-rule="evenodd" d="M55.5474 20.251C55.2332 20.393 54.8596 20.5645 54.4031 20.7065C53.8577 20.878 53.4308 20.9608 52.8616 20.9608C51.9189 20.9608 51.0593 20.6473 50.6027 20.1328C50.2885 19.7897 49.915 19.1096 49.915 17.9089V17.6546H56.0276V17.1992C56.0276 15.6023 55.9683 14.2893 55.0019 13.2365C54.3438 12.5504 53.3419 12.0654 52.0612 12.0654C50.7213 12.0654 49.6897 12.6628 49.0613 13.3489C48.0059 14.5436 47.917 16.0873 47.917 17.0513C47.917 18.1632 48.0593 19.8193 49.0909 20.9549C49.7786 21.6942 50.917 22.3802 52.577 22.3802C53.3181 22.3802 54.0889 22.2679 54.9189 21.9544C55.3458 21.8125 55.8023 21.5581 56.1166 21.3866L55.5474 20.251ZM49.9209 16.1168C49.9209 14.9753 50.2648 14.3484 50.579 14.0054C50.834 13.7215 51.2905 13.3489 52.0672 13.3489C52.583 13.3489 53.0988 13.4908 53.4664 13.8634C54.1245 14.4608 54.1245 15.2297 54.1245 15.9453V16.3416H49.9269V16.1168H49.9209Z" fill="#0761AF"/>
<path fill-rule="evenodd" clip-rule="evenodd" d="M64.5177 13.0709C63.8003 12.444 62.8043 12.0714 61.7727 12.0714C61.3162 12.0714 60.83 12.1542 60.4861 12.2133C60.2015 12.2961 59.828 12.444 59.5138 12.5564V8.65283H57.7114V21.3334C58.7668 21.9604 60.0237 22.3862 61.4525 22.3862C62.5078 22.3862 63.9367 22.1615 64.9683 20.8189C65.7983 19.707 65.9703 18.3111 65.9703 17.1697C65.9762 16.0873 65.8932 14.2361 64.5177 13.0709ZM61.4347 13.3548C62.1521 13.3548 62.8932 13.5855 63.3497 14.0705C63.9782 14.7566 63.9782 15.7798 63.9782 16.6669V17.5245C63.9782 19.2042 63.6936 19.8903 63.4327 20.2629C63.1482 20.6355 62.5493 21.0909 61.5177 21.0909C61.1442 21.0909 60.6877 20.9786 60.3438 20.8899C60.0889 20.8011 59.7747 20.6355 59.5138 20.4877V13.9522" fill="#0761AF"/>
</g>
<defs>
<clipPath id="clip0">
<rect width="117.391" height="30.5778" fill="white" transform="translate(0.272949 0.0888672)"/>
</clipPath>
</defs>
</svg>
