<svg width="85" height="24" viewBox="0 0 85 24" fill="none" xmlns="http://www.w3.org/2000/svg">
<g clip-path="url(#clip0)">
<path d="M47.2656 2.76876L42.0085 14.1549H41.4743V0.289062H34.0046V23.7528H40.3447C42.0085 23.7528 43.5205 22.7872 44.2211 21.2731L49.4811 9.88695H50.0153V23.7528H57.4849V0.289062H51.1449C49.4782 0.289062 47.9632 1.2576 47.2656 2.76876Z" fill="#20AA4D"/>
<path d="M19.2404 3.37264L16.1288 14.1549H15.5946L12.483 3.37264C11.9547 1.54641 10.2821 0.289062 8.38182 0.289062H0.920898V23.7558H8.39058V9.88695H8.92475L13.1923 23.7528H18.5282L22.7987 9.88695H23.3329V23.7528H30.8025V0.289062H23.3416C21.4414 0.289062 19.7688 1.54641 19.2404 3.37264Z" fill="#20AA4D"/>
<path d="M60.6841 10.9546V23.7528H68.1392V16.2874H76.1576C79.64 16.2874 82.5969 14.0586 83.6974 10.9546H60.6841Z" fill="#20AA4D"/>
<path d="M76.1579 0.289062H59.616C60.6201 5.75023 65.4014 9.88695 71.1547 9.88695H84.0012C84.1062 9.37059 84.1617 8.83381 84.1617 8.28536C84.1617 3.8715 80.5772 0.289062 76.1579 0.289062Z" fill="url(#paint0_linear)"/>
</g>
<defs>
<linearGradient id="paint0_linear" x1="59.616" y1="5.0892" x2="84.1619" y2="5.0892" gradientUnits="userSpaceOnUse">
<stop offset="0.00985222" stop-color="#00A7E3"/>
<stop offset="0.3366" stop-color="#009EDC"/>
<stop offset="0.8748" stop-color="#0085C9"/>
<stop offset="1" stop-color="#007EC4"/>
</linearGradient>
<clipPath id="clip0">
<rect width="83.2407" height="23.4667" fill="white" transform="translate(0.920898 0.289062)"/>
</clipPath>
</defs>
</svg>
