<svg width="95" height="38" viewBox="0 0 95 38" fill="none" xmlns="http://www.w3.org/2000/svg">
<g clip-path="url(#clip0)">
<path d="M74.5008 10.4369C78.5588 7.26933 82.5798 4.0535 86.6072 0.844238C86.6072 5.66361 86.6138 10.483 86.6029 15.3002C86.5615 18.086 86.6051 20.8719 86.5811 23.66C84.1947 25.3337 81.7734 26.9614 79.3717 28.6198C77.2403 30.0829 75.1089 31.5439 72.9775 33.0048C72.5111 33.3426 72.0076 33.6322 71.5674 34.0029C72.3345 33.8186 73.0712 33.5225 73.8274 33.2878C79.363 31.4803 84.8943 29.6617 90.4299 27.8542C90.6086 27.841 90.602 27.6502 90.6042 27.5164C90.5977 23.4472 90.6064 19.3781 90.5998 15.3089C92.0055 15.3265 93.4112 15.3111 94.8169 15.3155C94.8191 22.2517 94.8169 29.1879 94.8169 36.1263C86.7751 36.1241 78.731 36.1307 70.6891 36.1241C69.3859 36.1219 68.2068 34.9856 68.1741 33.6717C68.1741 28.5035 68.1741 23.3354 68.1741 18.1672C68.161 17.4104 68.246 16.6339 68.5773 15.9473C69.0219 15.0281 69.7433 14.2845 70.4886 13.6089C71.757 12.466 73.1671 11.5008 74.5008 10.4369Z" fill="#FFCC05"/>
<path d="M86.6028 15.3001C87.9344 15.3023 89.266 15.2892 90.5976 15.3089C90.6042 19.3781 90.5933 23.4472 90.602 27.5164C90.5998 27.6524 90.6064 27.841 90.4276 27.8542C84.892 29.6617 79.3608 31.4802 73.8252 33.2878C73.0711 33.5203 72.3345 33.8164 71.5652 34.0029C72.0076 33.6322 72.5089 33.3426 72.9752 33.0048C75.1067 31.5417 77.2381 30.0829 79.3695 28.6198C81.7712 26.9636 84.1925 25.3359 86.5789 23.66C86.605 20.8741 86.5614 18.086 86.6028 15.3001Z" fill="#D5AB00"/>
<path fill-rule="evenodd" clip-rule="evenodd" d="M7.74002 27.5075V35.0865H9.85183V15.3198H6.6961C3.59703 15.3198 0.990503 17.3906 0.990503 21.5409C0.990503 24.5023 2.13467 26.1036 3.86727 26.9833L0.190674 35.0865H2.63811L5.97908 27.5075H7.74002ZM7.74002 25.7373H6.61328C4.78043 25.7373 3.26359 24.7151 3.26359 21.5409C3.26359 18.2527 4.91119 17.1186 6.61328 17.1186H7.74002V25.7373Z" fill="#D91F1A"/>
<path fill-rule="evenodd" clip-rule="evenodd" d="M31.0526 33.3141H29.9542V21.1549H23.5316V22.3439C23.5316 26.0445 23.3921 30.3528 22.1259 33.3141H21.2781V37.8198H23.1959V35.0866H29.1238V37.822H31.0504V33.3141H31.0526ZM40.3607 34.1389L39.8681 32.4806C39.3189 32.8732 38.3513 33.426 37.1505 33.426C35.4484 33.426 34.5635 31.7676 34.5635 28.611H40.3345V27.4221C40.3345 22.7014 38.8264 20.9575 36.5184 20.9575C33.5763 20.9575 32.3384 24.2172 32.3384 28.6966C32.3384 32.9785 34.0972 35.273 36.9543 35.273C38.3317 35.273 39.4759 34.8321 40.3607 34.1389ZM17.9306 21.1549V27.0667H14.7487V21.1549H12.5977V35.0866H14.7487V28.837H17.9306V35.0866H20.0446V21.1571H17.9306V21.1549ZM48.3176 35.0866H50.6538L46.7266 27.7051L50.1613 21.1571H47.9928L44.6693 27.5932V21.1549H42.5291V35.0866H44.6693V28.1438L48.3176 35.0866ZM55.6795 35.273C56.9457 35.273 57.8196 34.8606 58.565 34.2245L58.0724 32.6232C57.5799 33.0641 56.7779 33.4765 55.7361 33.4765C54.0057 33.4765 53.1863 31.4913 53.1863 28.0056C53.1863 24.5024 54.276 22.7585 55.8211 22.7585C56.6951 22.7585 57.5254 23.2279 58.1008 23.7237L58.3993 21.6814C57.7935 21.2888 57.0786 20.9597 55.8495 20.9597C52.6109 20.9597 50.935 23.7522 50.935 28.1175C50.9328 32.8754 52.7112 35.273 55.6795 35.273ZM27.8424 33.3141H24.157C25.3121 30.3528 25.4516 26.073 25.4516 23.1402V22.8967H27.8445V33.3141H27.8424ZM36.5163 22.73C37.7541 22.73 38.1355 24.4717 38.1355 26.843H34.5897C34.7292 24.3598 35.1956 22.73 36.5163 22.73Z" fill="#030404"/>
<path d="M81.3376 13.7951C80.2217 14.0671 79.3391 15.0257 79.01 16.1115C78.8618 16.6249 78.8531 17.2237 79.1669 17.6778C79.4546 18.0924 79.9994 18.2459 80.4811 18.1582C81.2439 18.0353 81.8955 17.5352 82.364 16.9363C82.7716 16.4011 83.0571 15.7364 83.0266 15.052C83.0222 14.6638 82.8675 14.2667 82.5602 14.021C82.2202 13.7446 81.7495 13.7095 81.3376 13.7951Z" fill="black"/>
</g>
<defs>
<clipPath id="clip0">
<rect width="94.624" height="36.9778" fill="white" transform="translate(0.190674 0.844238)"/>
</clipPath>
</defs>
</svg>
