<svg width="43" height="35" fill="none" xmlns="http://www.w3.org/2000/svg"><g clip-path="url(#clip0)" fill="#8E8E8E"><path d="M21.524 24.252c-2.766 0-5.016 2.271-5.016 5.063 0 2.793 2.25 5.064 5.016 5.064s5.016-2.271 5.016-5.064c0-2.792-2.25-5.063-5.016-5.063z"/><path d="M33.628 17.573c-6.674-6.738-17.535-6.738-24.209 0a4.621 4.621 0 000 6.486c.858.866 2 1.344 3.213 1.344a4.49 4.49 0 003.213-1.343 7.942 7.942 0 015.679-2.375c2.145 0 4.162.843 5.679 2.374a4.493 4.493 0 003.213 1.343 4.494 4.494 0 003.213-1.343 4.622 4.622 0 000-6.486z"/><path d="M41.193 8.602C35.94 3.298 28.954.378 21.523.378c-7.43 0-14.414 2.92-19.669 8.224a4.578 4.578 0 00-1.33 3.243c0 1.225.472 2.377 1.33 3.243a4.508 4.508 0 003.214 1.341 4.509 4.509 0 003.213-1.341A18.512 18.512 0 0121.524 9.56c5.009 0 9.712 1.963 13.244 5.528a4.493 4.493 0 003.213 1.343 4.494 4.494 0 003.213-1.343 4.578 4.578 0 001.33-3.243 4.582 4.582 0 00-1.33-3.243z"/></g><defs><clipPath id="clip0"><path fill="#fff" transform="translate(.524 .378)" d="M0 0h42v34H0z"/></clipPath></defs></svg>