<svg width="32" height="32" fill="none" xmlns="http://www.w3.org/2000/svg"><g clip-path="url(#clip0)" fill="#8E8E8E"><path d="M1.298 18.662v10.003A3.34 3.34 0 004.635 32h24.028A3.339 3.339 0 0032 28.665V18.662H1.297zM15.803 3.05l-4.995 1.184 4.185 6.153 5.41-1.23-4.6-6.107zM9.42 4.563L4.036 5.838l4.14 6.096 5.418-1.23-4.176-6.14zM31.979 5.82l-1.136-4.305A2.017 2.017 0 0028.45.05l-4.485 1.064 4.256 6.27 3.26-.742c.178-.04.33-.15.424-.306a.674.674 0 00.075-.516zm-9.405-4.376l-5.353 1.27 4.607 6.12L26.822 7.7l-4.248-6.255zM8.025 11.994l-2.136 5.334h5.237l2.135-5.334H8.025zm6.675 0l-2.137 5.334h5.236l2.137-5.334h-5.237zm16.632 0h-3.285l-2.135 5.335H32v-4.668a.665.665 0 00-.668-.667zm-9.959 0l-2.136 5.334h5.236l2.137-5.334h-5.237zM2.648 6.17l-1.088.257c-.53.12-.979.441-1.263.903a1.986 1.986 0 00-.236 1.533l1.237 4.888v3.577h3.153l2.004-5.003.326-.073-4.133-6.083z"/></g><defs><clipPath id="clip0"><path fill="#fff" d="M0 0h32v32H0z"/></clipPath></defs></svg>